<svg xmlns="http://www.w3.org/2000/svg" xmlns:xlink="http://www.w3.org/1999/xlink" viewBox="0 0 135.72 354.14"><defs><linearGradient id="c" data-name="Sfumatura senza nome 733" x1="43.95" y1="257.32" x2="13.36" y2="215.22" gradientUnits="userSpaceOnUse"><stop offset="0" stop-color="#7b9dad"/><stop offset=".33" stop-color="#81a4b5"/><stop offset="1" stop-color="#8bafc2"/></linearGradient><linearGradient id="a" data-name="Sfumatura senza nome 877" x1="63.71" y1="247.74" x2="15.3" y2="296.16" gradientUnits="userSpaceOnUse"><stop offset=".19" stop-color="#53737e"/><stop offset=".37" stop-color="#577783"/><stop offset=".59" stop-color="#638492"/><stop offset=".82" stop-color="#7799a9"/><stop offset="1" stop-color="#8bafc2"/></linearGradient><linearGradient id="d" data-name="Sfumatura senza nome 136" x1="4.16" y1="280.98" x2="26.65" y2="262.1" gradientUnits="userSpaceOnUse"><stop offset="0" stop-color="#8bafc2"/><stop offset="1" stop-color="#8bafc2"/></linearGradient><linearGradient id="e" data-name="Sfumatura senza nome 125" x1="53.19" y1="210.42" x2="27.73" y2="262.63" gradientUnits="userSpaceOnUse"><stop offset="0" stop-color="#53737e"/><stop offset=".65" stop-color="#7699a9"/><stop offset="1" stop-color="#8bafc2"/></linearGradient><linearGradient id="b" data-name="Sfumatura senza nome 140" x1="103.16" y1="271.94" x2="103.16" y2="3.12" gradientUnits="userSpaceOnUse"><stop offset="0" stop-color="#53737e"/><stop offset=".18" stop-color="#5f808c"/><stop offset=".72" stop-color="#7fa2b3"/><stop offset="1" stop-color="#8bafc2"/></linearGradient><linearGradient id="f" x1="176.64" y1="68.23" x2="38.05" y2="206.83" xlink:href="#a"/><linearGradient id="g" data-name="Sfumatura senza nome 866" x1="159.2" y1="50.79" x2="78.3" y2="131.69" gradientUnits="userSpaceOnUse"><stop offset="0" stop-color="#507182"/><stop offset=".02" stop-color="#507182"/><stop offset="1" stop-color="#507182"/></linearGradient><linearGradient id="h" x1="45.32" y1="61.14" x2="45.32" y2="0" xlink:href="#b"/><linearGradient id="i" x1="51.51" y1="61.14" x2="51.51" y2="0" xlink:href="#a"/><linearGradient id="j" x1="102.32" y1="354.14" x2="102.32" y2="293" xlink:href="#b"/><linearGradient id="k" x1="108.51" y1="354.14" x2="108.51" y2="293" xlink:href="#a"/></defs><g data-name="Livello 2"><g data-name="Livello 24"><path style="fill:url(#c)" d="m0 238.79 33.31-38.07 27.63 44.25-34.29 17.13L0 238.79z"/><path style="fill:url(#a)" d="M26.65 307.51V262.1l34.29-17.13-15.58 39.02-18.71 23.52z"/><path style="fill:url(#d)" d="m0 238.79 26.65 68.99V262.1L0 238.79z"/><path style="fill:url(#e)" d="m33.31 200.72-6.66 61.38 34.29-17.13-27.63-44.25z"/><path style="fill:url(#b)" d="m103.16 271.94 32.56-102.32-24.19-166.5-40.92 161.55 32.55 107.27z"/><path style="fill:url(#f)" d="m111.53 3.12-8.37 268.82 32.56-102.32-24.19-166.5z"/><path style="fill:url(#g)" d="m135.72 169.62-29.07-9.59 4.88-156.91 24.19 166.5z"/><path style="fill:url(#h)" d="M43.05 59.12 32.94 33.35 47.03 0 57.7 32.84l-12.38 28.3-2.27-2.02z"/><path style="fill:url(#i)" d="M45.32 61.14 47.03 0 57.7 32.84l-12.38 28.3z"/><path style="fill:url(#j)" d="m100.05 352.12-10.11-25.77L104.03 293l10.67 32.84-12.38 28.3-2.27-2.02z"/><path style="fill:url(#k)" d="m102.32 354.14 1.71-61.14 10.67 32.84-12.38 28.3z"/></g></g></svg>