<svg xmlns="http://www.w3.org/2000/svg" xmlns:xlink="http://www.w3.org/1999/xlink" viewBox="-500 -400 3000 2000"><defs><linearGradient id="Sfumatura_senza_nome_516" data-name="Sfumatura senza nome 516" x1="744.09" y1="-256.21" x2="1349.91" y2="1503.21" gradientUnits="userSpaceOnUse"><stop offset="0" stop-color="#a9a6a9"/><stop offset=".53" stop-color="#9fb3bb"/><stop offset="1" stop-color="#98bcc7"/></linearGradient><linearGradient id="Sfumatura_senza_nome_74" data-name="Sfumatura senza nome 74" x1="453.53" y1="335.18" x2="569.8" y2="133.79" gradientUnits="userSpaceOnUse"><stop offset="0" stop-color="#b3d9de"/><stop offset=".16" stop-color="#b7d6db" stop-opacity=".78"/><stop offset=".38" stop-color="#bcd3d8" stop-opacity=".51"/><stop offset=".58" stop-color="#c0d0d5" stop-opacity=".29"/><stop offset=".76" stop-color="#c3ced3" stop-opacity=".13"/><stop offset=".91" stop-color="#c4ccd1" stop-opacity=".03"/><stop offset="1" stop-color="#c5ccd1" stop-opacity="0"/></linearGradient><linearGradient id="Sfumatura_senza_nome_74-2" x1="826.48" y1="230.95" x2="907.87" y2="89.97" xlink:href="#Sfumatura_senza_nome_74"/><linearGradient id="Sfumatura_senza_nome_74-3" x1="1262.73" y1="334.31" x2="1381.05" y2="129.36" xlink:href="#Sfumatura_senza_nome_74"/><linearGradient id="Sfumatura_senza_nome_74-4" x1="1348.79" y1="208.57" x2="1406.23" y2="109.08" xlink:href="#Sfumatura_senza_nome_74"/><linearGradient id="Sfumatura_senza_nome_74-5" x1="1564.19" y1="343.01" x2="1676.44" y2="148.59" xlink:href="#Sfumatura_senza_nome_74"/><linearGradient id="Sfumatura_senza_nome_74-6" x1="1682.66" y1="251.91" x2="1760.59" y2="116.94" xlink:href="#Sfumatura_senza_nome_74"/><linearGradient id="Sfumatura_senza_nome_74-7" x1="191.62" y1="324.48" x2="316.16" y2="108.77" xlink:href="#Sfumatura_senza_nome_74"/><linearGradient id="Sfumatura_senza_nome_74-8" x1="709.16" y1="178.73" x2="764.62" y2="82.67" xlink:href="#Sfumatura_senza_nome_74"/><linearGradient id="Sfumatura_senza_nome_74-9" x1="1859.51" y1="345.59" x2="1944.52" y2="198.36" xlink:href="#Sfumatura_senza_nome_74"/><linearGradient id="Sfumatura_senza_nome_74-10" x1="1911.06" y1="712.28" x2="2042.09" y2="485.32" xlink:href="#Sfumatura_senza_nome_74"/><linearGradient id="Sfumatura_senza_nome_74-11" x1="1814.11" y1="848.08" x2="1972.8" y2="573.22" xlink:href="#Sfumatura_senza_nome_74"/><linearGradient id="Sfumatura_senza_nome_74-12" x1="1723.29" y1="1011.65" x2="1907.64" y2="692.36" xlink:href="#Sfumatura_senza_nome_74"/><linearGradient id="Sfumatura_senza_nome_74-13" x1="1624.21" y1="1090.8" x2="1713.96" y2="935.35" xlink:href="#Sfumatura_senza_nome_74"/><linearGradient id="Sfumatura_senza_nome_74-14" x1="1191.19" y1="1199.66" x2="1322.46" y2="972.3" xlink:href="#Sfumatura_senza_nome_74"/><linearGradient id="Sfumatura_senza_nome_74-15" x1="940.63" y1="1214.34" x2="1040.25" y2="1041.79" xlink:href="#Sfumatura_senza_nome_74"/><linearGradient id="Sfumatura_senza_nome_74-16" x1="736.43" y1="1154.42" x2="856.63" y2="946.23" xlink:href="#Sfumatura_senza_nome_74"/><linearGradient id="Sfumatura_senza_nome_74-17" x1="605.12" y1="1155.24" x2="761.37" y2="884.61" xlink:href="#Sfumatura_senza_nome_74"/><linearGradient id="Sfumatura_senza_nome_74-18" x1="461.76" y1="1123.87" x2="523.5" y2="1016.94" xlink:href="#Sfumatura_senza_nome_74"/><linearGradient id="Sfumatura_senza_nome_74-19" x1="362.21" y1="1140.53" x2="422.96" y2="1035.33" xlink:href="#Sfumatura_senza_nome_74"/><linearGradient id="Sfumatura_senza_nome_74-20" x1="140.76" y1="940.72" x2="269.35" y2="717.99" xlink:href="#Sfumatura_senza_nome_74"/><linearGradient id="Sfumatura_senza_nome_74-21" x1="127.71" y1="632.6" x2="234.42" y2="447.78" xlink:href="#Sfumatura_senza_nome_74"/><linearGradient id="Sfumatura_senza_nome_74-22" x1="1686.39" y1="1127.02" x2="1812.03" y2="1127.02" xlink:href="#Sfumatura_senza_nome_74"/><linearGradient id="Sfumatura_senza_nome_74-23" x1="1792" y1="1088" x2="1872" y2="1088" xlink:href="#Sfumatura_senza_nome_74"/><linearGradient id="Sfumatura_senza_nome_74-24" x1="1512.47" y1="1163.58" x2="1646.81" y2="1163.58" xlink:href="#Sfumatura_senza_nome_74"/><linearGradient id="Sfumatura_senza_nome_74-25" x1="1303.63" y1="1170.5" x2="1418.47" y2="1170.5" xlink:href="#Sfumatura_senza_nome_74"/><linearGradient id="Sfumatura_senza_nome_74-26" x1="1741.31" y1="1020.19" x2="1759.37" y2="1072.64" xlink:href="#Sfumatura_senza_nome_74"/><linearGradient id="Sfumatura_senza_nome_74-27" x1="1646.17" y1="927.18" x2="1737.48" y2="1192.36" xlink:href="#Sfumatura_senza_nome_74"/><linearGradient id="Sfumatura_senza_nome_74-28" x1="1692.24" y1="1058.62" x2="1738.21" y2="1192.11" xlink:href="#Sfumatura_senza_nome_74"/><linearGradient id="Sfumatura_senza_nome_74-29" x1="1616.28" y1="1231.31" x2="1723.18" y2="1112.58" xlink:href="#Sfumatura_senza_nome_74"/><linearGradient id="Sfumatura_senza_nome_74-30" x1="1300.72" y1="976.39" x2="1352.58" y2="1127.02" xlink:href="#Sfumatura_senza_nome_74"/><linearGradient id="Sfumatura_senza_nome_74-31" x1="1397.77" y1="1111.46" x2="1443.8" y2="1245.15" xlink:href="#Sfumatura_senza_nome_74"/><linearGradient id="Sfumatura_senza_nome_74-32" x1="1505.38" y1="1247" x2="1505.38" y2="1090" xlink:href="#Sfumatura_senza_nome_74"/><linearGradient id="Sfumatura_senza_nome_74-33" x1="1463.65" y1="1125.8" x2="1512.48" y2="1267.61" xlink:href="#Sfumatura_senza_nome_74"/><linearGradient id="Sfumatura_senza_nome_74-34" x1="1101.56" y1="1070.47" x2="1101.56" y2="1247" xlink:href="#Sfumatura_senza_nome_74"/><linearGradient id="Sfumatura_senza_nome_74-35" x1="1227.79" y1="1151.91" x2="1227.79" y2="1205.47" xlink:href="#Sfumatura_senza_nome_74"/><linearGradient id="Sfumatura_senza_nome_74-36" x1="1257.61" y1="1205.47" x2="1257.61" y2="1247" xlink:href="#Sfumatura_senza_nome_74"/><linearGradient id="Sfumatura_senza_nome_74-37" x1="1265.21" y1="1185.04" x2="1265.21" y2="1247" xlink:href="#Sfumatura_senza_nome_74"/><linearGradient id="Sfumatura_senza_nome_74-38" x1="1881.93" y1="1133" x2="1881.93" y2="1247" xlink:href="#Sfumatura_senza_nome_74"/><linearGradient id="Sfumatura_senza_nome_74-39" x1="1857.71" y1="945.16" x2="1857.71" y2="997" xlink:href="#Sfumatura_senza_nome_74"/><linearGradient id="Sfumatura_senza_nome_74-40" x1="1855.46" y1="641.12" x2="1855.46" y2="991.14" xlink:href="#Sfumatura_senza_nome_74"/><linearGradient id="Sfumatura_senza_nome_74-41" x1="1866.51" y1="991.14" x2="1866.51" y2="1057" xlink:href="#Sfumatura_senza_nome_74"/><linearGradient id="Sfumatura_senza_nome_74-42" x1="1925.5" y1="1049" x2="1925.5" y2="1133" xlink:href="#Sfumatura_senza_nome_74"/><linearGradient id="Sfumatura_senza_nome_74-43" x1="1927.56" y1="732.38" x2="1927.56" y2="957.28" xlink:href="#Sfumatura_senza_nome_74"/><linearGradient id="Sfumatura_senza_nome_74-44" x1="1908.1" y1="892.3" x2="1908.1" y2="991.14" xlink:href="#Sfumatura_senza_nome_74"/><linearGradient id="Sfumatura_senza_nome_74-45" x1="1926" y1="991.14" x2="1926" y2="1059.77" xlink:href="#Sfumatura_senza_nome_74"/><linearGradient id="Sfumatura_senza_nome_74-46" x1="1930.31" y1="529" x2="1930.31" y2="842.84" xlink:href="#Sfumatura_senza_nome_74"/><linearGradient id="Sfumatura_senza_nome_74-47" x1="2017.84" y1="688.61" x2="2017.84" y2="1103.85" xlink:href="#Sfumatura_senza_nome_74"/><linearGradient id="Sfumatura_senza_nome_74-48" x1="1936.01" y1="957.28" x2="1936.01" y2="1049" xlink:href="#Sfumatura_senza_nome_74"/><linearGradient id="Sfumatura_senza_nome_74-49" x1="2009.75" y1="842.84" x2="2009.75" y2="1103.85" xlink:href="#Sfumatura_senza_nome_74"/><linearGradient id="Sfumatura_senza_nome_74-50" x1="1925.5" y1="1049" x2="1925.5" y2="1247" xlink:href="#Sfumatura_senza_nome_74"/><linearGradient id="Sfumatura_senza_nome_74-51" x1="2024.53" y1="1049" x2="2024.53" y2="1247" xlink:href="#Sfumatura_senza_nome_74"/><linearGradient id="Sfumatura_senza_nome_74-52" x1="967.07" y1="1163.51" x2="967.07" y2="1247" xlink:href="#Sfumatura_senza_nome_74"/><linearGradient id="Sfumatura_senza_nome_74-53" x1="967.07" y1="1247" x2="967.07" y2="1163.51" xlink:href="#Sfumatura_senza_nome_74"/><linearGradient id="Sfumatura_senza_nome_74-54" x1="831.64" y1="921.65" x2="831.64" y2="1247" xlink:href="#Sfumatura_senza_nome_74"/><linearGradient id="Sfumatura_senza_nome_74-55" x1="853.46" y1="1163.51" x2="853.46" y2="1247" xlink:href="#Sfumatura_senza_nome_74"/><linearGradient id="Sfumatura_senza_nome_74-56" x1="715.76" y1="1054" x2="715.76" y2="1099" xlink:href="#Sfumatura_senza_nome_74"/><linearGradient id="Sfumatura_senza_nome_74-57" x1="740.38" y1="850.2" x2="740.38" y2="1179" xlink:href="#Sfumatura_senza_nome_74"/><linearGradient id="Sfumatura_senza_nome_74-58" x1="737.31" y1="1086.35" x2="737.31" y2="1247" xlink:href="#Sfumatura_senza_nome_74"/><linearGradient id="Sfumatura_senza_nome_74-59" x1="795.56" y1="1120.99" x2="795.56" y2="1247" xlink:href="#Sfumatura_senza_nome_74"/><linearGradient id="Sfumatura_senza_nome_74-60" x1="520.48" y1="1247" x2="520.48" y2="1005.21" xlink:href="#Sfumatura_senza_nome_74"/><linearGradient id="Sfumatura_senza_nome_74-61" x1="723.53" y1="1198.66" x2="577.56" y2="1151.23" xlink:href="#Sfumatura_senza_nome_74"/><linearGradient id="Sfumatura_senza_nome_74-62" x1="552.21" y1="1247" x2="552.21" y2="1127.03" xlink:href="#Sfumatura_senza_nome_74"/><linearGradient id="Sfumatura_senza_nome_74-63" x1="646.32" y1="1128.9" x2="646.32" y2="1247" xlink:href="#Sfumatura_senza_nome_74"/><linearGradient id="Sfumatura_senza_nome_74-64" x1="462.39" y1="1247" x2="462.39" y2="1121.54" xlink:href="#Sfumatura_senza_nome_74"/><linearGradient id="Sfumatura_senza_nome_74-65" x1="437.51" y1="1247" x2="437.51" y2="1045.77" xlink:href="#Sfumatura_senza_nome_74"/><linearGradient id="Sfumatura_senza_nome_74-66" x1="360.65" y1="1247" x2="360.65" y2="1148" xlink:href="#Sfumatura_senza_nome_74"/><linearGradient id="Sfumatura_senza_nome_74-67" x1="305.13" y1="1156" x2="305.13" y2="1058" xlink:href="#Sfumatura_senza_nome_74"/><linearGradient id="Sfumatura_senza_nome_74-68" x1="363.47" y1="1210.74" x2="273.28" y2="1168.68" xlink:href="#Sfumatura_senza_nome_74"/><linearGradient id="Sfumatura_senza_nome_74-69" x1="327.62" y1="1184.13" x2="191.94" y2="1120.86" xlink:href="#Sfumatura_senza_nome_74"/><linearGradient id="Sfumatura_senza_nome_74-70" x1="149.51" y1="1126.11" x2="149.51" y2="962.87" xlink:href="#Sfumatura_senza_nome_74"/><linearGradient id="Sfumatura_senza_nome_74-71" x1="305.76" y1="1231.02" x2="187.24" y2="1175.76" xlink:href="#Sfumatura_senza_nome_74"/><linearGradient id="Sfumatura_senza_nome_74-72" x1="236.02" y1="1140.91" x2="165.86" y2="1262.42" xlink:href="#Sfumatura_senza_nome_74"/><linearGradient id="Sfumatura_senza_nome_74-73" x1="180.87" y1="1189.4" x2="93.66" y2="1148.73" xlink:href="#Sfumatura_senza_nome_74"/></defs><g id="Livello_2" data-name="Livello 2"><g id="Livello_24" data-name="Livello 24"><path d="M-343-416v2020h2808V-405ZM1941.68 688.61 1896.21 529l-27.29 280-50-167.89-39.41 365.93-69.73 45.53-30-137-38.22 164.56-129.09 9.87-74 44.49-69.94-13-49.72-151.37-32.64 156.11-158.61 36.63-37.6-92.44-32 90.53-205.35 2.51-38.55-241.81L769.88 1127l-68.12-276.8-54.18 232.8-91.33 44-53.06-121.82-45.47 116.33-16.67-75.77-38.49 75.77-181.3-63.51-42.15-95.13L231 832.16V695.84l-33.65 95L176 576.44l25.67-99.34-22.56-142.37 22.52-105.51L241 353l46.21-218.06 31.37 72.18 25.53-72.18 53.75-10.76 55.73 51.48L479.7 350.3l36.38-174.67 31.83-28.13 32.58 81.72 24.26-94.31 59-22.91 29.62 57.62 16.55-47.75L805 106l38.21 134.63L883.57 106l39.55 59.38 29-59.38 146.47 35.13 14 39.1 11.92-39.1 151.89-29.49 42.37 255 34.69-231.76 15 85 44.17-107.15 151.4 14.38 41.1 239.49 47.58-231.76 27 115.34 42.12-115.34 84.88 21.92L1844.28 314 1878 210.69l59.11 179.72 50 63.19Z" style="fill:url(#Sfumatura_senza_nome_516)"/><path style="fill:url(#Sfumatura_senza_nome_74)" d="M479.7 350.3 486 165l53-49 25 16 16.49 97.22L548 147l-31.92 28.63L479.7 350.3z"/><path style="fill:url(#Sfumatura_senza_nome_74-2)" d="M843.24 240.63 856 78l45.8 8.46 21.32 78.92L883.57 106l-40.33 134.63z"/><path style="fill:url(#Sfumatura_senza_nome_74-3)" d="M1318.78 366.67 1325 97l28.47 37.91-34.69 231.76z"/><path style="fill:url(#Sfumatura_senza_nome_74-4)" d="M1368.5 219.95 1380 109l32.67 3.8-44.17 107.15z"/><path style="fill:url(#Sfumatura_senza_nome_74-5)" d="M1605.17 366.67 1610 169h12.35l30.39-34.09-47.57 231.76z"/><path style="fill:url(#Sfumatura_senza_nome_74-6)" d="M1679.77 250.25 1700 102l104 40 2.77 14.83-84.88-21.92-42.12 115.34z"/><path style="fill:url(#Sfumatura_senza_nome_74-7)" d="M240.96 352.97 246.2 116l72.09-6-18.53 53.88-10.85-24.97-47.95 214.06z"/><path style="fill:url(#Sfumatura_senza_nome_74-8)" d="M693.39 169.62 699 103l106.03 3-95.09 15.87-16.55 47.75z"/><path style="fill:url(#Sfumatura_senza_nome_74-9)" d="m1844.28 314.01 19.29-154.7 42.44 16.81 31.12 214.29-59.11-179.72-33.74 103.32z"/><path style="fill:url(#Sfumatura_senza_nome_74-10)" d="M1941.68 688.61 1966 744l21.15-290.4-45.47 235.01z"/><path style="fill:url(#Sfumatura_senza_nome_74-11)" d="m1896.2 529 18.91 203.38-24.41 159.92-21.78-83.29L1896.2 529z"/><path style="fill:url(#Sfumatura_senza_nome_74-12)" d="m1818.9 641.13 27.61 304.03-23.11 48.5L1841 997l-28.97 65.88-32.54-55.84 39.41-365.91z"/><path style="fill:url(#Sfumatura_senza_nome_74-13)" d="M1679.77 915.61v157.88l-32.96 30.36-5.26-23.68 38.22-164.56z"/><path style="fill:url(#Sfumatura_senza_nome_74-14)" d="m1318.78 970.17 2.23 123.83-17.38 57.91-176.1 11 158.61-36.63 32.64-156.11z"/><path style="fill:url(#Sfumatura_senza_nome_74-15)" d="m1089.93 1070.47-14.34 113.42-223-20.38 205.35-2.51 31.99-90.53z"/><path style="fill:url(#Sfumatura_senza_nome_74-16)" d="m814.06 921.65-3.36 199.34L779 1179l-9.12-51.97 44.18-205.38z"/><path style="fill:url(#Sfumatura_senza_nome_74-17)" d="M701.76 850.2 717 1054l-33.47 35.92 28.64-3.57-16.55 49.8-139.37-9.12 91.33-44 54.18-232.83z"/><path style="fill:url(#Sfumatura_senza_nome_74-18)" d="m503.19 1005.21-18.49 125.82-26.98-9.49 45.47-116.33z"/><path style="fill:url(#Sfumatura_senza_nome_74-19)" d="M441.05 1045.77 423 1148l-34 8-65.02-62 78.58 27.54 38.49-75.77z"/><path style="fill:url(#Sfumatura_senza_nome_74-20)" d="M231 695.84v136.32l-51.89 130.71L231 695.84z"/><path style="fill:url(#Sfumatura_senza_nome_74-21)" d="m193.23 424-17.27 84-11.44-71.12-10.57 191.2 30.9 37.51-8.89-89.14 25.67-99.35-8.4-53.1z"/><path style="fill:url(#Sfumatura_senza_nome_74-22)" d="m1779.49 1007.04 32.54 55.84L1792 1132l17 47-.21 68h-122.4l53.61-132-2-35 41.49-72.96z"/><path style="fill:url(#Sfumatura_senza_nome_74-23)" d="m1841 997-28.97 65.88L1792 1132l17 47 62-46 1-76-31-60z"/><path style="fill:url(#Sfumatura_senza_nome_74-24)" d="M1646.81 1103.85 1633.72 1247h-61.39l-59.86-157 129.08-9.83 5.26 23.68z"/><path style="fill:url(#Sfumatura_senza_nome_74-25)" d="m1321.01 1094 47.49 27.54 49.97 125.46-114.84-95.09 17.38-57.91z"/><path style="fill:url(#Sfumatura_senza_nome_74-26)" d="M1709.76 1052.58 1738 1080l41.49-72.96-69.73 45.54z"/><path style="fill:url(#Sfumatura_senza_nome_74-27)" d="m1679.77 915.61 29.99 136.97-5.88 151.35-24.11-130.44V915.61z"/><path style="fill:url(#Sfumatura_senza_nome_74-28)" d="m1738 1080 2 35-36.12 88.93 5.88-151.35L1738 1080z"/><path style="fill:url(#Sfumatura_senza_nome_74-29)" d="m1646.81 1103.85 32.96-30.36 24.11 130.44-17.49 43.07h-52.67l13.09-143.15z"/><path style="fill:url(#Sfumatura_senza_nome_74-30)" d="m1318.78 970.17 2.23 123.83 47.49 27.54-49.72-151.37z"/><path style="fill:url(#Sfumatura_senza_nome_74-31)" d="M1438.44 1134.49V1247h-19.97l-49.97-125.46 69.94 12.95z"/><path style="fill:url(#Sfumatura_senza_nome_74-32)" d="m1512.47 1090-74.03 44.49L1572.33 1247l-59.86-157z"/><path style="fill:url(#Sfumatura_senza_nome_74-33)" d="M1438.44 1247h133.89l-133.89-112.51V1247z"/><path style="fill:url(#Sfumatura_senza_nome_74-34)" d="m1089.93 1070.47 37.6 92.44-30.78 84.09h-15.19l-5.97-63.11 14.34-113.42z"/><path style="fill:url(#Sfumatura_senza_nome_74-35)" d="m1111.95 1205.47 15.58-42.56 176.1-11 40.01 33.13-231.69 20.43z"/><path style="fill:url(#Sfumatura_senza_nome_74-36)" d="m1096.75 1247 15.2-41.53 306.52 41.53h-321.72z"/><path style="fill:url(#Sfumatura_senza_nome_74-37)" d="m1343.64 1185.04-231.69 20.43 306.52 41.53-74.83-61.96z"/><path style="fill:url(#Sfumatura_senza_nome_74-38)" d="m1809 1179-.21 68h146.27L1871 1133l-62 46z"/><path style="fill:url(#Sfumatura_senza_nome_74-39)" d="m1823.4 993.66 23.11-48.5 45.5 45.98L1841 997l-17.6-3.34z"/><path style="fill:url(#Sfumatura_senza_nome_74-40)" d="m1818.9 641.13 71.8 251.17 1.31 98.84-45.5-45.98-27.61-304.03z"/><path style="fill:url(#Sfumatura_senza_nome_74-41)" d="m1841 997 51.01-5.86L1872 1057l-31-60z"/><path style="fill:url(#Sfumatura_senza_nome_74-42)" d="m1871 1133 1-73.23 108-10.77-109 84z"/><path style="fill:url(#Sfumatura_senza_nome_74-43)" d="m1915.11 732.38 49.31 110.46-38.92 114.44-34.8-64.98 24.41-159.92z"/><path style="fill:url(#Sfumatura_senza_nome_74-44)" d="m1892.01 991.14-1.31-98.84 34.8 64.98-33.49 33.86z"/><path style="fill:url(#Sfumatura_senza_nome_74-45)" d="m1872 1059.77 20.01-68.63L1980 1049l-108 10.77z"/><path style="fill:url(#Sfumatura_senza_nome_74-46)" d="m1896.2 529 45.48 159.61 22.74 154.23-49.31-110.46L1896.2 529z"/><path style="fill:url(#Sfumatura_senza_nome_74-47)" d="m1966 744 128 258v101.85l-129.58-261.01-22.74-154.23L1966 744z"/><path style="fill:url(#Sfumatura_senza_nome_74-48)" d="M1925.5 957.28 1980 1049l-87.99-57.86 33.49-33.86z"/><path style="fill:url(#Sfumatura_senza_nome_74-49)" d="m1964.42 842.84-38.92 114.44L1980 1049l114 54.85-129.58-261.01z"/><path style="fill:url(#Sfumatura_senza_nome_74-50)" d="m1955.06 1247 24.94-198-109 84 84.06 114z"/><path style="fill:url(#Sfumatura_senza_nome_74-51)" d="M2094 1247v-143.15L1980 1049l-24.94 198H2094z"/><path style="fill:url(#Sfumatura_senza_nome_74-52)" d="m1081.56 1247-228.97-83.49 223 20.38 5.97 63.11z"/><path style="fill:url(#Sfumatura_senza_nome_74-53)" d="m885.67 1247-33.08-83.49 228.97 83.49H885.67z"/><path style="fill:url(#Sfumatura_senza_nome_74-54)" d="m810.7 1120.99 3.36-199.34 38.53 241.86-31.34 83.49-10.55-126.01z"/><path style="fill:url(#Sfumatura_senza_nome_74-55)" d="M885.67 1247h-64.42l31.34-83.49 33.08 83.49z"/><path style="fill:url(#Sfumatura_senza_nome_74-56)" d="m717 1054 31 45-35.83-12.65-28.64 3.57L717 1054z"/><path style="fill:url(#Sfumatura_senza_nome_74-57)" d="m701.76 850.2 68.12 276.83L779 1179l-31-80-31-45-15.24-203.8z"/><path style="fill:url(#Sfumatura_senza_nome_74-58)" d="M712.17 1086.35 748 1099l31 80-9.12 68h-62.06l-12.2-110.85 16.55-49.8z"/><path style="fill:url(#Sfumatura_senza_nome_74-59)" d="M810.7 1120.99 779 1179l-9.12 68h51.37l-10.55-126.01z"/><path style="fill:url(#Sfumatura_senza_nome_74-60)" d="m503.19 1005.21 53.06 121.82L519.61 1247h-12.13l-22.78-115.97 18.49-125.82z"/><path style="fill:url(#Sfumatura_senza_nome_74-61)" d="m707.82 1247-123-118.1 110.8 7.25 12.2 110.85z"/><path style="fill:url(#Sfumatura_senza_nome_74-62)" d="M584.82 1243.01V1128.9l-28.57-1.87L519.61 1247h65.21v-3.99z"/><path style="fill:url(#Sfumatura_senza_nome_74-63)" d="m707.82 1247-123-118.1V1247h123z"/><path style="fill:url(#Sfumatura_senza_nome_74-64)" d="M457.72 1121.54 417.3 1247h90.18l-22.78-115.97-26.98-9.49z"/><path style="fill:url(#Sfumatura_senza_nome_74-65)" d="M441.05 1045.77 423 1148l-5.7 99 40.42-125.46-16.67-75.77z"/><path style="fill:url(#Sfumatura_senza_nome_74-66)" d="m389 1156-90.69 91H417.3l5.7-99-34 8z"/><path style="fill:url(#Sfumatura_senza_nome_74-67)" d="m221.26 1058 102.72 36 65.02 62-100.55-19.85-67.19-78.15z"/><path style="fill:url(#Sfumatura_senza_nome_74-68)" d="m298.31 1247 90.69-91-100.55-19.85 9.86 110.85z"/><path style="fill:url(#Sfumatura_senza_nome_74-69)" d="m298.31 1247-87.92-120.89 10.87-68.11 67.19 78.15 9.86 110.85z"/><path style="fill:url(#Sfumatura_senza_nome_74-70)" d="m179.11 962.87 42.15 95.13-10.87 68.11-132.63-49.61 101.35-113.63z"/><path style="fill:url(#Sfumatura_senza_nome_74-71)" d="M298.31 1247h-87.92v-120.89L298.31 1247z"/><path style="fill:url(#Sfumatura_senza_nome_74-72)" d="m139.15 1247 71.24-120.89V1247h-71.24z"/><path style="fill:url(#Sfumatura_senza_nome_74-73)" d="M119.98 1092.29 139.15 1247l71.24-120.89-90.41-33.82z"/></g></g><script>document.querySelector(&quot;#Livello_2&quot;).addEventListener(&quot;click&quot;,console.log);</script></svg>