<svg xmlns="http://www.w3.org/2000/svg" xmlns:xlink="http://www.w3.org/1999/xlink" viewBox="-20 -20 382.04 459.95"><defs><linearGradient id="Sfumatura_senza_nome_4" data-name="Sfumatura senza nome 4" x1="-618.79" y1="1391.39" x2="-479.67" y2="1605.62" gradientTransform="matrix(-.99 -.13 -.13 .99 -216.21 -1326.98)" gradientUnits="userSpaceOnUse"><stop offset="0" stop-color="#961355"/><stop offset=".13" stop-color="#a31054"/><stop offset=".49" stop-color="#c50852"/><stop offset=".8" stop-color="#da0351"/><stop offset="1" stop-color="#e20150"/></linearGradient><linearGradient id="Sfumatura_senza_nome_3" data-name="Sfumatura senza nome 3" x1="-652.73" y1="1427.4" x2="-637.72" y2="1450.51" gradientTransform="matrix(-.99 -.13 -.13 .99 -216.21 -1326.98)" gradientUnits="userSpaceOnUse"><stop offset="0" stop-color="#fcf9db"/><stop offset=".4" stop-color="#fdfbe6"/><stop offset="1" stop-color="#fff"/></linearGradient><linearGradient id="Sfumatura_senza_nome_3-2" x1="-627.8" y1="1646.6" x2="-612.31" y2="1670.45" gradientTransform="matrix(-1 -.02 -.02 1 -341.16 -1506.9)" xlink:href="#Sfumatura_senza_nome_3"/><linearGradient id="Sfumatura_senza_nome_3-3" x1="-358.94" y1="228.1" x2="-346.94" y2="246.57" gradientTransform="scale(-1 1) rotate(-40.5 -309.38 61.39)" xlink:href="#Sfumatura_senza_nome_3"/><linearGradient id="Sfumatura_senza_nome_3-4" x1="-368.94" y1="250.89" x2="-356.95" y2="269.37" gradientTransform="scale(-1 1) rotate(-40.5 -309.38 61.39)" xlink:href="#Sfumatura_senza_nome_3"/><linearGradient id="Sfumatura_senza_nome_3-5" x1="-374.87" y1="273.08" x2="-362.87" y2="291.55" gradientTransform="scale(-1 1) rotate(-40.5 -309.38 61.39)" xlink:href="#Sfumatura_senza_nome_3"/><linearGradient id="Sfumatura_senza_nome_3-6" x1="-146.88" y1="-26.94" x2="-135.6" y2="-9.57" gradientTransform="scale(-1 1) rotate(-51.5 144.69 197.27)" xlink:href="#Sfumatura_senza_nome_3"/><linearGradient id="Sfumatura_senza_nome_3-7" x1="-148.75" y1="-8.65" x2="-137.47" y2="8.72" gradientTransform="scale(-1 1) rotate(-51.5 144.69 197.27)" xlink:href="#Sfumatura_senza_nome_3"/><linearGradient id="Sfumatura_senza_nome_3-8" x1="394.63" y1="-426.64" x2="405.74" y2="-409.53" gradientTransform="matrix(-.33 -.95 -.95 .33 -91.75 826.67)" xlink:href="#Sfumatura_senza_nome_3"/><linearGradient id="Sfumatura_senza_nome_3-9" x1="390.04" y1="-409.61" x2="401.15" y2="-392.5" gradientTransform="matrix(-.33 -.95 -.95 .33 -91.75 826.67)" xlink:href="#Sfumatura_senza_nome_3"/><linearGradient id="Sfumatura_senza_nome_3-10" x1="801.62" y1="-565.01" x2="813.31" y2="-547" gradientTransform="scale(-1 1) rotate(-83 835.323 418.903)" xlink:href="#Sfumatura_senza_nome_3"/><linearGradient id="Sfumatura_senza_nome_3-11" x1="795.43" y1="-549.22" x2="807.13" y2="-531.22" gradientTransform="scale(-1 1) rotate(-83 835.323 418.903)" xlink:href="#Sfumatura_senza_nome_3"/><linearGradient id="Sfumatura_senza_nome_3-12" x1="793.02" y1="-533.77" x2="804.72" y2="-515.76" gradientTransform="scale(-1 1) rotate(-83 835.323 418.903)" xlink:href="#Sfumatura_senza_nome_3"/><linearGradient id="Sfumatura_senza_nome_3-13" x1="788.01" y1="-517" x2="799.71" y2="-499" gradientTransform="scale(-1 1) rotate(-83 835.323 418.903)" xlink:href="#Sfumatura_senza_nome_3"/><linearGradient id="Sfumatura_senza_nome_3-14" x1="1931.79" y1="-520.89" x2="1946.32" y2="-498.52" gradientTransform="scale(1 -1) rotate(65.2 878.472 -1878.24)" xlink:href="#Sfumatura_senza_nome_3"/><linearGradient id="Sfumatura_senza_nome_3-15" x1="2650.09" y1="-163" x2="2666.31" y2="-138.03" gradientTransform="scale(1 -1) rotate(43.8 1586.721 -3483.844)" xlink:href="#Sfumatura_senza_nome_3"/><linearGradient id="Sfumatura_senza_nome_3-16" x1="2648.47" y1="-146.75" x2="2664.69" y2="-121.77" gradientTransform="scale(1 -1) rotate(43.8 1586.721 -3483.844)" xlink:href="#Sfumatura_senza_nome_3"/><linearGradient id="Sfumatura_senza_nome_3-17" x1="2647.26" y1="-130.96" x2="2663.48" y2="-105.99" gradientTransform="scale(1 -1) rotate(43.8 1586.721 -3483.844)" xlink:href="#Sfumatura_senza_nome_3"/><linearGradient id="Sfumatura_senza_nome_3-18" x1="2646.05" y1="-115.18" x2="2662.27" y2="-90.2" gradientTransform="scale(1 -1) rotate(43.8 1586.721 -3483.844)" xlink:href="#Sfumatura_senza_nome_3"/><linearGradient id="Sfumatura_senza_nome_3-19" x1="2646.72" y1="-98.69" x2="2662.93" y2="-73.72" gradientTransform="scale(1 -1) rotate(43.8 1586.721 -3483.844)" xlink:href="#Sfumatura_senza_nome_3"/><linearGradient id="Sfumatura_senza_nome_3-20" x1="3501.14" y1="1323.74" x2="3516.63" y2="1347.59" gradientTransform="matrix(1 .02 .02 -1 -3525.93 1541.22)" xlink:href="#Sfumatura_senza_nome_3"/><linearGradient id="Sfumatura_senza_nome_3-21" x1="-455.31" y1="423.12" x2="-442.8" y2="442.38" gradientTransform="scale(-1 1) rotate(-34 -715.42 -27.241)" xlink:href="#Sfumatura_senza_nome_3"/><linearGradient id="Sfumatura_senza_nome_3-22" x1="939.23" y1="3418.91" x2="958.19" y2="3448.11" gradientTransform="scale(-1 1) rotate(62.7 3055.87 790.744)" xlink:href="#Sfumatura_senza_nome_3"/><linearGradient id="Sfumatura_senza_nome_3-23" x1="1828.8" y1="3466.64" x2="1841.39" y2="3486.03" gradientTransform="matrix(-.08 1 1 .08 -3108.12 -1994.88)" xlink:href="#Sfumatura_senza_nome_3"/><linearGradient id="Sfumatura_senza_nome_3-24" x1="3586.58" y1="2417.99" x2="3598.45" y2="2436.26" gradientTransform="matrix(.74 .67 .67 -.74 -4105.33 -453.18)" xlink:href="#Sfumatura_senza_nome_3"/><linearGradient id="Sfumatura_senza_nome_3-25" x1="3779.09" y1="2014.71" x2="3791.85" y2="2034.36" gradientTransform="matrix(.85 .52 .52 -.85 -4106.06 -81.37)" xlink:href="#Sfumatura_senza_nome_3"/><linearGradient id="Sfumatura_senza_nome_3-26" x1="3425.75" y1="2558.93" x2="3437.08" y2="2576.38" gradientTransform="matrix(.64 .77 .77 -.64 -3997.96 -828.62)" xlink:href="#Sfumatura_senza_nome_3"/><linearGradient id="Sfumatura_senza_nome_3-27" x1="3007.21" y1="2918.74" x2="3018.23" y2="2935.71" gradientTransform="scale(1 -1) rotate(-65.7 -817.023 3591)" xlink:href="#Sfumatura_senza_nome_3"/><linearGradient id="Sfumatura_senza_nome_3-28" x1="3008.38" y1="2901.83" x2="3019.39" y2="2918.8" gradientTransform="scale(1 -1) rotate(-65.7 -817.023 3591)" xlink:href="#Sfumatura_senza_nome_3"/><linearGradient id="Sfumatura_senza_nome_3-29" x1="2359.21" y1="3180.05" x2="2371.04" y2="3198.27" gradientTransform="matrix(.08 1 1 -.08 -3245.54 -1899.44)" xlink:href="#Sfumatura_senza_nome_3"/><linearGradient id="Sfumatura_senza_nome_3-30" x1="1931.82" y1="3231.61" x2="1944.64" y2="3251.35" gradientTransform="scale(-1 1) rotate(82.5 2646.672 568.746)" xlink:href="#Sfumatura_senza_nome_3"/><linearGradient id="Sfumatura_senza_nome_3-31" x1="1935.09" y1="3215.98" x2="1947.91" y2="3235.72" gradientTransform="scale(-1 1) rotate(82.5 2646.672 568.746)" xlink:href="#Sfumatura_senza_nome_3"/><linearGradient id="Sfumatura_senza_nome_3-32" x1="1937.42" y1="3200.36" x2="1950.24" y2="3220.1" gradientTransform="scale(-1 1) rotate(82.5 2646.672 568.746)" xlink:href="#Sfumatura_senza_nome_3"/><linearGradient id="Sfumatura_senza_nome_3-33" x1="1939.77" y1="3184.11" x2="1952.59" y2="3203.85" gradientTransform="scale(-1 1) rotate(82.5 2646.672 568.746)" xlink:href="#Sfumatura_senza_nome_3"/><linearGradient id="Sfumatura_senza_nome_3-34" x1="3178.64" y1="2699.54" x2="3189.65" y2="2716.5" gradientTransform="scale(1 -1) rotate(-61.4 -836.083 3884.56)" xlink:href="#Sfumatura_senza_nome_3"/><linearGradient id="Sfumatura_senza_nome_3-35" x1="3624.22" y1="2208.03" x2="3635.91" y2="2226.04" gradientTransform="matrix(.72 .7 .7 -.72 -4114.37 -718.89)" xlink:href="#Sfumatura_senza_nome_3"/><linearGradient id="Sfumatura_senza_nome_3-36" x1="3627.32" y1="2191.24" x2="3639.01" y2="2209.24" gradientTransform="matrix(.72 .7 .7 -.72 -4114.37 -718.89)" xlink:href="#Sfumatura_senza_nome_3"/><linearGradient id="Sfumatura_senza_nome_3-37" x1="3631.46" y1="2174.08" x2="3643.15" y2="2192.08" gradientTransform="matrix(.72 .7 .7 -.72 -4114.37 -718.89)" xlink:href="#Sfumatura_senza_nome_3"/><linearGradient id="Sfumatura_senza_nome_3-38" x1="1530.36" y1="3404.57" x2="1551.85" y2="3437.66" gradientTransform="scale(-1 1) rotate(52.3 4013.149 -45.716)" xlink:href="#Sfumatura_senza_nome_3"/><linearGradient id="Sfumatura_senza_nome_3-39" x1="1587.73" y1="3492.36" x2="1603.29" y2="3516.33" gradientTransform="scale(-1 1) rotate(79 2743.014 717.84)" xlink:href="#Sfumatura_senza_nome_3"/><linearGradient id="Sfumatura_senza_nome_44" data-name="Sfumatura senza nome 44" x1="14.38" y1="349.1" x2="14.38" y2="233.36" gradientTransform="translate(241.49)" gradientUnits="userSpaceOnUse"><stop offset="0" stop-color="#696969"/><stop offset=".2" stop-color="#5f5f5f"/><stop offset=".55" stop-color="#434343"/><stop offset=".85" stop-color="#262626"/></linearGradient><linearGradient id="Sfumatura_senza_nome_222" data-name="Sfumatura senza nome 222" x1="21.57" y1="157.22" x2="9.79" y2="269.37" gradientTransform="translate(241.49)" gradientUnits="userSpaceOnUse"><stop offset=".59" stop-color="#bda795"/><stop offset="1" stop-color="#6f5848"/></linearGradient><linearGradient id="Sfumatura_senza_nome_38" data-name="Sfumatura senza nome 38" x1="-10.13" y1="238.57" x2="55.96" y2="132.81" gradientTransform="translate(241.49)" gradientUnits="userSpaceOnUse"><stop offset="0" stop-color="#e8e8e8"/><stop offset=".55" stop-color="#7d7d7d"/></linearGradient><linearGradient id="Sfumatura_senza_nome_39" data-name="Sfumatura senza nome 39" x1="-74.36" y1="280.76" x2="63.77" y2="197.76" gradientTransform="translate(241.49)" gradientUnits="userSpaceOnUse"><stop offset="0" stop-color="#e8e8e8"/><stop offset=".31" stop-color="#b6b6b6"/><stop offset=".69" stop-color="#7d7d7d"/></linearGradient><linearGradient id="Sfumatura_senza_nome_223" data-name="Sfumatura senza nome 223" x1="259.25" y1="237.77" x2="298.69" y2="153.19" gradientUnits="userSpaceOnUse"><stop offset="0" stop-color="#b0b0b0"/><stop offset=".35" stop-color="#878787"/><stop offset=".78" stop-color="#595959"/><stop offset="1" stop-color="#474747"/></linearGradient><linearGradient id="Sfumatura_senza_nome_153" data-name="Sfumatura senza nome 153" x1="-87.22" y1="-468.89" x2="-95.81" y2="-591.64" gradientTransform="translate(339.18 626.95)" gradientUnits="userSpaceOnUse"><stop offset="0" stop-color="#ffdddc"/><stop offset=".27" stop-color="#fddad8"/><stop offset=".56" stop-color="#f6d1cb"/><stop offset=".76" stop-color="#efc7bd"/></linearGradient><linearGradient id="Sfumatura_senza_nome_183" data-name="Sfumatura senza nome 183" x1="-24.38" y1="-484.29" x2="-29.43" y2="-556.54" gradientTransform="translate(339.18 626.95)" gradientUnits="userSpaceOnUse"><stop offset="0" stop-color="#f2f2f2"/><stop offset="1" stop-color="#a6a6a6"/></linearGradient><linearGradient id="Sfumatura_senza_nome_183-2" x1="-37.15" y1="-468.56" x2="-46.32" y2="-599.8" xlink:href="#Sfumatura_senza_nome_183"/><linearGradient id="Sfumatura_senza_nome_183-3" x1="-140.01" y1="-461.37" x2="-149.19" y2="-592.61" xlink:href="#Sfumatura_senza_nome_183"/><linearGradient id="Sfumatura_senza_nome_183-4" x1="-90.24" y1="-464.85" x2="-99.42" y2="-596.09" xlink:href="#Sfumatura_senza_nome_183"/><linearGradient id="Sfumatura_senza_nome_183-5" x1="-86.96" y1="-465.08" x2="-96.14" y2="-596.32" xlink:href="#Sfumatura_senza_nome_183"/><linearGradient id="Sfumatura_senza_nome_183-6" x1="-87.99" y1="-479.84" x2="-93.04" y2="-552.09" xlink:href="#Sfumatura_senza_nome_183"/><linearGradient id="Sfumatura_senza_nome_12" data-name="Sfumatura senza nome 12" x1="-91.52" y1="-455.69" x2="-91.52" y2="-592.94" gradientTransform="translate(339.18 626.95)" gradientUnits="userSpaceOnUse"><stop offset="0" stop-color="#ffdddc"/><stop offset=".22" stop-color="#fddbda"/><stop offset=".32" stop-color="#f7d4d3"/><stop offset=".4" stop-color="#edc8c6"/><stop offset=".46" stop-color="#deb8b4"/><stop offset=".5" stop-color="#d4aca7"/></linearGradient><linearGradient id="Sfumatura_senza_nome_33" data-name="Sfumatura senza nome 33" x1="-112.92" y1="-791.36" x2="-87.74" y2="-467.89" gradientTransform="translate(339.18 626.95)" gradientUnits="userSpaceOnUse"><stop offset=".5" stop-color="#f2f2f2"/><stop offset=".57" stop-color="#dcdcdc"/><stop offset=".71" stop-color="#a2a2a2"/><stop offset=".81" stop-color="#787878"/></linearGradient><linearGradient id="Sfumatura_senza_nome_191" data-name="Sfumatura senza nome 191" x1="-150.85" y1="-657.29" x2="-106.45" y2="-464.94" gradientTransform="translate(339.18 626.95)" gradientUnits="userSpaceOnUse"><stop offset=".24" stop-color="#e8e8e8"/><stop offset=".37" stop-color="#e3e3e3"/><stop offset=".55" stop-color="#d3d3d3"/><stop offset=".74" stop-color="#b9b9b9"/><stop offset=".95" stop-color="#959595"/><stop offset="1" stop-color="#8a8a8a"/></linearGradient><linearGradient id="Sfumatura_senza_nome_179" data-name="Sfumatura senza nome 179" x1="-113.11" y1="-509.14" x2="-91.34" y2="-517.93" gradientTransform="translate(339.18 626.95)" gradientUnits="userSpaceOnUse"><stop offset="0" stop-color="#b0b0b0"/><stop offset=".68" stop-color="#696969"/><stop offset="1" stop-color="#474747"/></linearGradient><linearGradient id="Sfumatura_senza_nome_179-2" x1="-126.48" y1="-513.59" x2="-107.57" y2="-521.23" xlink:href="#Sfumatura_senza_nome_179"/><linearGradient id="Sfumatura_senza_nome_179-3" x1="-138.2" y1="-519.35" x2="-124.47" y2="-524.9" xlink:href="#Sfumatura_senza_nome_179"/><linearGradient id="Sfumatura_senza_nome_179-4" x1="-147.22" y1="-523.32" x2="-137.07" y2="-527.42" xlink:href="#Sfumatura_senza_nome_179"/><linearGradient id="Sfumatura_senza_nome_191-2" x1="-276.99" y1="-360.68" x2="-336.72" y2="-556.06" gradientTransform="matrix(-1 -.01 -.01 1 -50.75 621.56)" xlink:href="#Sfumatura_senza_nome_191"/><linearGradient id="Sfumatura_senza_nome_179-5" x1="5804.33" y1="-590.82" x2="5826.09" y2="-599.61" gradientTransform="matrix(-1 .01 .01 1 6089.03 626.95)" xlink:href="#Sfumatura_senza_nome_179"/><linearGradient id="Sfumatura_senza_nome_179-6" x1="5790.96" y1="-595.28" x2="5809.86" y2="-602.92" gradientTransform="matrix(-1 .01 .01 1 6089.03 626.95)" xlink:href="#Sfumatura_senza_nome_179"/><linearGradient id="Sfumatura_senza_nome_179-7" x1="5779.23" y1="-601.03" x2="5792.97" y2="-606.58" gradientTransform="matrix(-1 .01 .01 1 6089.03 626.95)" xlink:href="#Sfumatura_senza_nome_179"/><linearGradient id="Sfumatura_senza_nome_179-8" x1="5770.22" y1="-605" x2="5780.37" y2="-609.11" gradientTransform="matrix(-1 .01 .01 1 6089.03 626.95)" xlink:href="#Sfumatura_senza_nome_179"/><linearGradient id="Sfumatura_senza_nome_20" data-name="Sfumatura senza nome 20" x1="136.57" y1="-461.83" x2="196.28" y2="-459.84" gradientTransform="matrix(-.98 -.2 -.2 .98 248.38 541.63)" gradientUnits="userSpaceOnUse"><stop offset="0" stop-color="#ffffdb"/><stop offset=".3" stop-color="#fbfbda"/><stop offset=".61" stop-color="#eeeed8"/><stop offset=".93" stop-color="#dadad5"/><stop offset="1" stop-color="#d4d4d4"/></linearGradient><linearGradient id="Sfumatura_senza_nome_23" data-name="Sfumatura senza nome 23" x1="751.91" y1="-1277.78" x2="799.62" y2="-1276.2" gradientTransform="matrix(-.88 -.47 -.47 .88 251.87 1554.32)" gradientUnits="userSpaceOnUse"><stop offset="0" stop-color="#ffffdb"/><stop offset=".35" stop-color="#f4f4d9"/><stop offset=".96" stop-color="#d6d6d4"/><stop offset="1" stop-color="#d4d4d4"/></linearGradient><linearGradient id="Sfumatura_senza_nome_23-2" x1="410.27" y1="-859.73" x2="451.3" y2="-858.36" gradientTransform="matrix(-.94 -.34 -.34 .94 283.87 1044.46)" xlink:href="#Sfumatura_senza_nome_23"/><linearGradient id="Sfumatura_senza_nome_2" data-name="Sfumatura senza nome 2" x1="82.39" y1="-1041.06" x2="51.18" y2="-998.24" gradientTransform="matrix(1.14 .03 -.02 1 100.4 1098.05)" gradientUnits="userSpaceOnUse"><stop offset="0" stop-color="#b5b5b5"/><stop offset="1" stop-color="#757575"/></linearGradient><linearGradient id="Sfumatura_senza_nome_20-2" x1="-5909.18" y1="-1585.49" x2="-5854.67" y2="-1583.68" gradientTransform="rotate(-9.11 7545.836 -39760.01)" xlink:href="#Sfumatura_senza_nome_20"/><linearGradient id="Sfumatura_senza_nome_23-3" x1="-4732.9" y1="-4062.75" x2="-4688.25" y2="-4061.27" gradientTransform="rotate(-25.5 6937.492 -13159.791)" xlink:href="#Sfumatura_senza_nome_23"/><linearGradient id="Sfumatura_senza_nome_23-4" x1="-5414.22" y1="-2835.86" x2="-5376.49" y2="-2834.61" gradientTransform="matrix(.95 -.3 .3 .95 6332.28 1193.92)" xlink:href="#Sfumatura_senza_nome_23"/><linearGradient id="Sfumatura_senza_nome_2-2" x1="5313.61" y1="-966.63" x2="5282.4" y2="-923.82" gradientTransform="matrix(0 -1.24 -1 0 -602.1 6638.65)" xlink:href="#Sfumatura_senza_nome_2"/><linearGradient id="Sfumatura_senza_nome_2-3" x1="-24.47" y1="346.38" x2="-24.47" y2="288.72" gradientTransform="translate(241.49)" xlink:href="#Sfumatura_senza_nome_2"/><linearGradient id="Sfumatura_senza_nome_200" data-name="Sfumatura senza nome 200" x1="-41.27" y1="313.6" x2="-1.18" y2="322.12" gradientTransform="translate(241.49)" gradientUnits="userSpaceOnUse"><stop offset="0" stop-color="#e8e8e8"/><stop offset="1" stop-color="#8a8a8a"/></linearGradient><linearGradient id="Sfumatura_senza_nome_179-9" x1="-55.28" y1="337.78" x2="6.66" y2="350.95" gradientTransform="translate(241.49)" xlink:href="#Sfumatura_senza_nome_179"/><linearGradient id="Sfumatura_senza_nome_18" data-name="Sfumatura senza nome 18" x1="187.18" y1="339.98" x2="222.55" y2="347.5" gradientUnits="userSpaceOnUse"><stop offset="0" stop-color="#e8e8e8"/><stop offset=".26" stop-color="#c9c9c9"/><stop offset=".76" stop-color="#929292"/><stop offset="1" stop-color="#7d7d7d"/></linearGradient><linearGradient id="Sfumatura_senza_nome_41" data-name="Sfumatura senza nome 41" x1="6068.94" y1="332.81" x2="6095.47" y2="366.76" gradientTransform="matrix(-1 0 0 1 6303.68 0)" gradientUnits="userSpaceOnUse"><stop offset="0" stop-color="#b0b0b0"/><stop offset=".16" stop-color="#959595"/><stop offset=".39" stop-color="#737373"/><stop offset=".62" stop-color="#5b5b5b"/><stop offset=".83" stop-color="#4c4c4c"/><stop offset="1" stop-color="#474747"/></linearGradient><linearGradient id="Sfumatura_senza_nome_2-4" x1="5887.74" y1="347.38" x2="5887.74" y2="289.72" gradientTransform="matrix(-1 0 0 1 6182.72 0)" xlink:href="#Sfumatura_senza_nome_2"/><linearGradient id="Sfumatura_senza_nome_200-2" x1="5907.35" y1="302.43" x2="5873.23" y2="340.33" gradientTransform="matrix(-1 0 0 1 6182.72 0)" xlink:href="#Sfumatura_senza_nome_200"/><linearGradient id="Sfumatura_senza_nome_179-10" x1="5912.07" y1="362.37" x2="5861.89" y2="329.78" gradientTransform="matrix(-1 0 0 1 6182.72 0)" xlink:href="#Sfumatura_senza_nome_179"/><linearGradient id="Sfumatura_senza_nome_41-2" x1="6112.28" y1="335.74" x2="6139.55" y2="364.99" gradientTransform="matrix(-1 0 0 1 6424.21 0)" xlink:href="#Sfumatura_senza_nome_41"/><linearGradient id="Sfumatura_senza_nome_18-2" x1="151.45" y1="335.25" x2="185.75" y2="355.86" gradientTransform="translate(120.53)" xlink:href="#Sfumatura_senza_nome_18"/><linearGradient id="Sfumatura_senza_nome_27" data-name="Sfumatura senza nome 27" x1="256.86" y1="247.76" x2="256.86" y2="277.38" gradientUnits="userSpaceOnUse"><stop offset="0" stop-color="#e8e8e8"/><stop offset="1" stop-color="#7d7d7d"/></linearGradient><linearGradient id="Sfumatura_senza_nome_207" data-name="Sfumatura senza nome 207" x1="240.04" y1="249.52" x2="275.08" y2="252.24" gradientUnits="userSpaceOnUse"><stop offset="0" stop-color="#a6a6a6"/><stop offset=".03" stop-color="#a3a3a3"/><stop offset=".45" stop-color="#7c7c7c"/><stop offset=".79" stop-color="#656565"/><stop offset="1" stop-color="#5c5c5c"/></linearGradient><linearGradient id="Sfumatura_senza_nome_69" data-name="Sfumatura senza nome 69" x1="325.98" y1="342.24" x2="192.77" y2="450.12" gradientUnits="userSpaceOnUse"><stop offset="0" stop-color="#4f565c"/><stop offset=".93" stop-color="#608998"/></linearGradient><linearGradient id="Sfumatura_senza_nome_381" data-name="Sfumatura senza nome 381" x1="248.93" y1="324.42" x2="274.03" y2="397.32" gradientUnits="userSpaceOnUse"><stop offset="0" stop-color="#a9a6a9"/><stop offset=".53" stop-color="#97abb8"/><stop offset="1" stop-color="#8bafc2"/></linearGradient><linearGradient id="Sfumatura_senza_nome_135" data-name="Sfumatura senza nome 135" x1="169.17" y1="351.88" x2="192.3" y2="419.06" gradientUnits="userSpaceOnUse"><stop offset="0" stop-color="#60676b"/><stop offset=".52" stop-color="#758b96"/><stop offset="1" stop-color="#8bafc2"/></linearGradient><linearGradient id="Sfumatura_senza_nome_143" data-name="Sfumatura senza nome 143" x1="298.65" y1="360.17" x2="224.18" y2="360.17" gradientUnits="userSpaceOnUse"><stop offset="0" stop-color="#302927"/><stop offset=".19" stop-color="#353232"/><stop offset=".52" stop-color="#414a50"/><stop offset=".96" stop-color="#557181"/><stop offset="1" stop-color="#577586"/></linearGradient><linearGradient id="Sfumatura_senza_nome_135-2" x1="338.24" y1="401.47" x2="192" y2="401.47" xlink:href="#Sfumatura_senza_nome_135"/><linearGradient id="Sfumatura_senza_nome_143-2" x1="188.5" y1="383.97" x2="168" y2="383.97" xlink:href="#Sfumatura_senza_nome_143"/><linearGradient id="Sfumatura_senza_nome_135-3" x1="186.16" y1="383.97" x2="168" y2="383.97" xlink:href="#Sfumatura_senza_nome_135"/><linearGradient id="Sfumatura_senza_nome_143-3" x1="334.57" y1="397.86" x2="194.89" y2="397.86" xlink:href="#Sfumatura_senza_nome_143"/><linearGradient id="Sfumatura_senza_nome_125" data-name="Sfumatura senza nome 125" x1="198.36" y1="423.09" x2="149" y2="423.09" gradientUnits="userSpaceOnUse"><stop offset="0" stop-color="#53737e"/><stop offset=".65" stop-color="#7699a9"/><stop offset="1" stop-color="#8bafc2"/></linearGradient><linearGradient id="Sfumatura_senza_nome_125-2" x1="165" y1="430.71" x2="127" y2="430.71" xlink:href="#Sfumatura_senza_nome_125"/><linearGradient id="Sfumatura_senza_nome_87" data-name="Sfumatura senza nome 87" x1="5644.84" y1="2060.6" x2="5644.84" y2="2000.29" gradientTransform="translate(-5384.51 -1817.27)" gradientUnits="userSpaceOnUse"><stop offset="0" stop-color="#bda795"/><stop offset="1" stop-color="#6f5848"/></linearGradient><linearGradient id="Sfumatura_senza_nome_18-3" x1="5646.07" y1="2013.73" x2="5644.75" y2="1988.49" gradientTransform="rotate(180 2952.585 1121.81)" xlink:href="#Sfumatura_senza_nome_18"/><linearGradient id="Sfumatura_senza_nome_4-2" x1="5638.88" y1="2001.66" x2="5650.8" y2="2001.66" gradientTransform="rotate(180 2952.585 1121.81)" xlink:href="#Sfumatura_senza_nome_4"/><linearGradient id="Sfumatura_senza_nome_18-4" x1="5644.84" y1="2067.15" x2="5644.84" y2="2054.04" gradientTransform="rotate(180 2952.585 1121.81)" xlink:href="#Sfumatura_senza_nome_18"/><linearGradient id="Sfumatura_senza_nome_60" data-name="Sfumatura senza nome 60" x1="5664.21" y1="1989.79" x2="5655.2" y2="1817.93" gradientTransform="rotate(180 2952.585 1121.81)" gradientUnits="userSpaceOnUse"><stop offset="0" stop-color="#e8e8e8"/><stop offset=".44" stop-color="#d4d4d4"/><stop offset="1" stop-color="#bfbfbf"/></linearGradient><linearGradient id="Sfumatura_senza_nome_60-2" x1="5640.55" y1="1991.03" x2="5631.54" y2="1819.17" xlink:href="#Sfumatura_senza_nome_60"/><linearGradient id="Sfumatura_senza_nome_60-3" x1="5656.62" y1="1990.19" x2="5647.62" y2="1818.33" xlink:href="#Sfumatura_senza_nome_60"/><linearGradient id="Sfumatura_senza_nome_364" data-name="Sfumatura senza nome 364" x1="5591.18" y1="1870.3" x2="5684.23" y2="1966.66" gradientTransform="rotate(180 2952.585 1121.81)" gradientUnits="userSpaceOnUse"><stop offset="0" stop-color="#b3b3b3"/><stop offset="1" stop-color="#bfbfbf"/></linearGradient><linearGradient id="Sfumatura_senza_nome_153-2" x1="-105.47" y1="593.84" x2="-39.26" y2="577.33" gradientTransform="matrix(-.73 -.69 -.69 .73 642.36 -280)" xlink:href="#Sfumatura_senza_nome_153"/><linearGradient id="Sfumatura_senza_nome_207-2" x1="-59.86" y1="609.66" x2="-82.66" y2="592.47" gradientTransform="matrix(-.73 -.69 -.69 .73 642.36 -280)" xlink:href="#Sfumatura_senza_nome_207"/><linearGradient id="Sfumatura_senza_nome_3-40" x1="-932.24" y1="186.57" x2="-1011.92" y2="179.85" gradientTransform="matrix(-1 .03 .03 1 -668.04 -4.98)" xlink:href="#Sfumatura_senza_nome_3"/><linearGradient id="Sfumatura_senza_nome_200-3" x1="-1104.37" y1="386.34" x2="-1037.4" y2="416.8" gradientTransform="matrix(-.99 .11 .11 .99 -788.11 -109.27)" xlink:href="#Sfumatura_senza_nome_200"/><linearGradient id="Sfumatura_senza_nome_200-4" x1="-1078" y1="389.99" x2="-1041.63" y2="406.52" gradientTransform="matrix(-.99 .11 .11 .99 -788.11 -109.27)" xlink:href="#Sfumatura_senza_nome_200"/><linearGradient id="Sfumatura_senza_nome_336" data-name="Sfumatura senza nome 336" x1="-1101.37" y1="390.07" x2="-1038.29" y2="418.76" gradientTransform="matrix(-.99 .11 .11 .99 -788.11 -109.27)" gradientUnits="userSpaceOnUse"><stop offset="0" stop-color="#b5b5b5"/><stop offset="1" stop-color="#5e5e5e"/></linearGradient><linearGradient id="Sfumatura_senza_nome_153-3" x1="-4255.52" y1="-3320.76" x2="-4189.31" y2="-3337.27" gradientTransform="rotate(-43.34 2435.989 -7157.457)" xlink:href="#Sfumatura_senza_nome_153"/><linearGradient id="Sfumatura_senza_nome_207-3" x1="-4209.91" y1="-3304.95" x2="-4233.52" y2="-3322.74" gradientTransform="rotate(-43.34 2435.989 -7157.457)" xlink:href="#Sfumatura_senza_nome_207"/><linearGradient id="Sfumatura_senza_nome_3-41" x1="-6635" y1="346.42" x2="-6714.68" y2="339.7" gradientTransform="rotate(1.6 3621.852 246606.152)" xlink:href="#Sfumatura_senza_nome_3"/><linearGradient id="Sfumatura_senza_nome_200-5" x1="-6773.51" y1="1025.02" x2="-6706.54" y2="1055.48" gradientTransform="rotate(6.42 4477.733 62415.588)" xlink:href="#Sfumatura_senza_nome_200"/><linearGradient id="Sfumatura_senza_nome_200-6" x1="-6747.14" y1="1028.67" x2="-6710.77" y2="1045.21" gradientTransform="rotate(6.42 4477.733 62415.588)" xlink:href="#Sfumatura_senza_nome_200"/><linearGradient id="Sfumatura_senza_nome_336-2" x1="-6770.5" y1="1028.75" x2="-6707.43" y2="1057.44" gradientTransform="rotate(6.42 4477.733 62415.588)" xlink:href="#Sfumatura_senza_nome_336"/><radialGradient id="Sfumatura_senza_nome_683" data-name="Sfumatura senza nome 683" cx="-3027.01" cy="-9550.84" r="37.45" gradientTransform="matrix(-.72 .29 .11 .28 -882.05 3603.78)" gradientUnits="userSpaceOnUse"><stop offset=".16" stop-color="#fff"/><stop offset=".29" stop-color="#fff" stop-opacity=".77"/><stop offset=".44" stop-color="#fff" stop-opacity=".5"/><stop offset=".58" stop-color="#fff" stop-opacity=".28"/><stop offset=".7" stop-color="#fff" stop-opacity=".13"/><stop offset=".8" stop-color="#fff" stop-opacity=".03"/><stop offset=".86" stop-color="#fff" stop-opacity="0"/></radialGradient><radialGradient id="Sfumatura_senza_nome_683-2" cx="-1041.32" cy="-3020.66" r="36.47" gradientTransform="matrix(0 -.6 -.38 0 -816.25 -474.54)" xlink:href="#Sfumatura_senza_nome_683"/><radialGradient id="Sfumatura_senza_nome_683-3" cx="-9277.8" cy="-8823.26" r="36.47" gradientTransform="matrix(.6 0 0 .38 5751.62 3496.73)" xlink:href="#Sfumatura_senza_nome_683"/></defs><g id="Livello_2" data-name="Livello 2"><g id="Livello_24" data-name="Livello 24"><g id="slide2_cavaliere"><g id="slide2_cavaliere_mantello"><g id="mantelloblu"><path d="M246.55 152.5s-7.18 85-49.91 130.72c-46 49.17-118.21 61.63-118.21 61.63L6.7 279l45.72-70s94.65 33.31 142.76-71.22c0 .03 2.82-21.04 51.37 14.72Z" style="fill:url(#Sfumatura_senza_nome_4)"/><g style="opacity:.54"><path d="M108.22 249.57c5.32 18.81-7.86 36.74-29.48 40.45l-2.14-7.57c16.76-3 27-16.95 22.8-31.6s-21.09-24.65-38.15-22.72l-2.14-7.57c21.89-2.63 43.79 10.19 49.11 29.01Z" style="fill:#fff"/><path d="M88.06 252.5c2.6 9.2-3.68 18-14.09 20l-2.14-7.5c5.55-1.34 8.83-6.14 7.41-11.16s-7-8.52-12.89-8.2L64.21 238c10.71-1 21.25 5.31 23.85 14.5Z" style="fill:#fff"/></g><path d="m11.84 267.28 4.35-7.67c.22 1.08.46 2.17.77 3.25 7 24.6 35.92 41.21 64.57 37s46.31-27.58 39.35-52.17c-4.79-17-20.08-30.14-38.51-35.3l2.5-.83 9.51-2.47c16.83 7.41 30.12 20.83 34.8 37.39 8.07 28.52-12.41 55.69-45.64 60.52-32.67 4.78-65.67-13.77-74.44-41.5Z" style="fill:#fff;opacity:.54"/><path d="M238.07 195s4.12 2.62 8.5-1.67c0 0-.85-6.19-6.76-5.13-.11-.52 6.54 2.9 11.6-4.47-.14.3-2.29-9.89-10.93-6.06.15-.09 4.81-.11 8-8 .24.56-4.51-6.38-9.42-.92-.18.51-5.29 8.24-5.29 8.24l2.36 1.18-3.25 5.23 2.9 4.43-4 3.34s.8 1.99 6.29 3.83Z" style="fill:url(#Sfumatura_senza_nome_3)"/><path d="M242.87 176.86s4.35 1.92 8.45-3c0 0-1.31-5.93-7.2-4-.15-.49 6.81 1.81 11.38-6.21-.12.32-3-9.32-11.48-4.2.15-.11 4.85-.87 7.44-9.13.29.5-5-5.53-9.57.58-.15.54-4.74 8.92-4.74 8.92l2.47.78-2.9 5.63 3.25 3.89-3.76 3.89s.98 1.99 6.66 2.85Z" style="fill:url(#Sfumatura_senza_nome_3-2)"/><path d="M222.45 231.49s2.16 5.73 7.1 5.34c0 0 1.67-6.35-3.23-10.16.11-.57 3.9 7.94 10.51 5.28-.22.17 1.95-10.89-6.07-14.38.15.05 3.7 3.78 9.06-.93 0 .71-1.06-9.48-6.83-8.46-.34.32-7.12 3.27-7.12 3.27l1.36 3-4.43 2.16.56 6.41-4.28-.17s-.14 2.55 3.37 8.64Z" style="fill:url(#Sfumatura_senza_nome_3-3)"/><path d="M215.37 255.35s2.16 5.73 7.1 5.34c0 0 1.66-6.35-3.24-10.16.11-.57 3.9 7.94 10.52 5.29-.23.16 1.94-10.9-6.08-14.39.15 0 3.71 3.78 9.07-.93 0 .71-1.06-9.48-6.84-8.46-.33.32-7.11 3.27-7.11 3.27l1.35 3-4.42 2.17.55 6.4-4.27-.18s-.15 2.56 3.37 8.65Z" style="fill:url(#Sfumatura_senza_nome_3-4)"/><path d="M205.56 276.11s2.16 5.73 7.1 5.34c0 0 1.67-6.35-3.23-10.16.11-.57 3.9 7.94 10.51 5.29-.22.16 1.95-10.9-6.07-14.39.15.05 3.7 3.79 9.06-.92 0 .7-1.06-9.49-6.83-8.47-.34.33-7.12 3.27-7.12 3.27l1.36 3-4.43 2.17.56 6.4-4.28-.16s-.14 2.52 3.37 8.63Z" style="fill:url(#Sfumatura_senza_nome_3-5)"/><path d="M193.34 292.47s1.3 6.4 6.06 7.42a11.78 11.78 0 0 0-1.73-11.17c.17-.54 2.66 9.12 9.33 8.35-.24.1 3.3-10.43-3.89-16.26.13.1 3 4.89 8.77 1.68-.12.7.25-9.87-5.4-10.5-.36.23-7.22 1.26-7.22 1.26l.9 3.39-4.51.91-.32 6.62-4.06-1.39s-.48 2.54 2.07 9.69Z" style="fill:url(#Sfumatura_senza_nome_3-6)"/><path d="M180.22 305.35s1.3 6.4 6.06 7.42a11.78 11.78 0 0 0-1.73-11.17c.17-.54 2.66 9.12 9.32 8.35-.23.1 3.3-10.44-3.88-16.26.13.1 3 4.89 8.77 1.68-.12.7.25-9.87-5.4-10.5-.36.23-7.22 1.25-7.22 1.25l.9 3.4-4.51.91-.33 6.62-4-1.39s-.53 2.54 2.02 9.69Z" style="fill:url(#Sfumatura_senza_nome_3-7)"/><path d="M163.91 314.22s-.3 7 3.73 10.36c0 0 3.53-4.65 1-11.91.28-.45.29 10.35 6.43 12.9-.23 0 5.35-8.68.26-18 .1.16 1.59 6.34 7.46 6-.26.63 2.49-9.65-2.42-13.07-.37 0-6.75-2.36-6.75-2.36v3.81l-4.24-1.34-1.78 6.39-3.31-3.4s-1.01 2.28-.38 10.62Z" style="fill:url(#Sfumatura_senza_nome_3-8)"/><path d="M149.31 324.13s-.3 7 3.73 10.35c0 0 3.53-4.65 1-11.91.28-.45.29 10.35 6.43 12.9-.23 0 5.35-8.68.26-18 .1.16 1.59 6.34 7.47 6-.27.63 2.49-9.64-2.43-13.07-.37 0-6.75-2.36-6.75-2.36v3.81l-4.24-1.34-1.78 6.39-3.31-3.4s-1.01 2.28-.38 10.63Z" style="fill:url(#Sfumatura_senza_nome_3-9)"/><path d="M131.89 327.76s-1.31 6.93 2 11.62c0 0 4-3.55 2.71-11.68.33-.36-1.25 10.52 4.19 15.05a19.93 19.93 0 0 0 2.89-18.06c.08.2.58 6.9 6.19 8.45-.35.55 3.77-8.92-.37-13.94-.36-.07-6-4.52-6-4.52l-.53 3.84-3.83-2.71-2.65 5.86-2.63-4.48s-1.33 1.97-1.97 10.57Z" style="fill:url(#Sfumatura_senza_nome_3-10)"/><path d="M116.93 335.74s-1.31 6.93 2 11.62c0 0 4-3.56 2.71-11.68.33-.36-1.25 10.52 4.19 15a19.92 19.92 0 0 0 2.89-18.05c.07.19.58 6.89 6.18 8.44-.34.56 3.78-8.91-.36-13.93-.37-.07-6.05-4.52-6.05-4.52l-.49 3.88-3.82-2.71-2.65 5.85-2.64-4.47s-1.33 1.97-1.96 10.57Z" style="fill:url(#Sfumatura_senza_nome_3-11)"/><path d="M101.87 339.93s-1.32 6.92 2 11.61c0 0 4-3.55 2.71-11.67.34-.36-1.25 10.51 4.19 15a19.94 19.94 0 0 0 2.9-18.05c.07.19.57 6.89 6.18 8.44-.35.56 3.77-8.91-.37-13.93-.36-.07-6-4.53-6-4.53l-.53 3.84-3.82-2.7-2.66 5.85-2.63-4.48s-1.34 2.01-1.97 10.62Z" style="fill:url(#Sfumatura_senza_nome_3-12)"/><path d="M85.79 346.85s-1.31 6.92 2 11.61c0 0 4-3.55 2.72-11.67.33-.36-1.25 10.51 4.19 15a19.92 19.92 0 0 0 2.89-18.05c.07.19.58 6.89 6.18 8.44-.34.56 3.78-8.91-.36-13.93-.37-.07-6-4.53-6-4.53l-.54 3.85L93 334.9l-2.65 5.85-2.64-4.48s-1.29 1.98-1.92 10.58Z" style="fill:url(#Sfumatura_senza_nome_3-13)"/><path d="M71.9 339.74a19.85 19.85 0 0 0-2.6 12.31s4.41-.16 6.29-8.71c.39-.07-4.74 8.77-2.12 17.18-.14-.25 7.47-1.59 8.72-14.47 0 .23-2 6.83 1.8 12.61-.47.25 6.14-5.32 4.71-13.19-.26-.34-3.1-8.88-3.1-8.88l-1.79 3.14-2-5.47-4.17 3.37-.45-6.19s-1.72.82-5.29 8.3Z" style="fill:url(#Sfumatura_senza_nome_3-14)"/><path d="M61.65 327.15s-4.44 3.37-5.39 10.66c0 0 3.92 2.25 7.73-5.1.36.14-6.38 6-6.21 15.7-.06-.33 7 2.52 11.32-9.43a18.45 18.45 0 0 0-1.61 13.36A12 12 0 0 0 75 342c-.14-.48-.47-10.41-.47-10.41l-2.37 2.1-.38-6.47-4.51 1 1.17-6.32s-1.76-.13-6.79 5.25Z" style="fill:url(#Sfumatura_senza_nome_3-15)"/><path d="M49.28 316.49s-4.45 3.37-5.4 10.65c0 0 3.92 2.26 7.73-5.09.36.14-6.38 6-6.21 15.69-.06-.32 7 2.53 11.32-9.43a18.5 18.5 0 0 0-1.61 13.37 12 12 0 0 0 7.46-10.37c-.14-.48-.47-10.41-.47-10.41l-2.37 2.1-.38-6.47-4.51 1 1.16-6.3s-1.7-.12-6.72 5.26Z" style="fill:url(#Sfumatura_senza_nome_3-16)"/><path d="M37.52 305.88s-4.45 3.38-5.4 10.66c0 0 3.92 2.26 7.73-5.09.36.14-6.38 6-6.21 15.69 0-.32 7 2.53 11.32-9.43a18.5 18.5 0 0 0-1.61 13.37 12 12 0 0 0 7.46-10.37c-.13-.48-.46-10.41-.46-10.41L48 312.4l-.38-6.47-4.5 1 1.17-6.32s-1.74-.11-6.77 5.27Z" style="fill:url(#Sfumatura_senza_nome_3-17)"/><path d="M25.76 295.28s-4.44 3.38-5.4 10.66c0 0 3.92 2.26 7.73-5.09.36.14-6.38 6-6.2 15.69-.06-.32 7 2.53 11.32-9.43a18.42 18.42 0 0 0-1.62 13.37 12 12 0 0 0 7.47-10.37c-.14-.48-.47-10.41-.47-10.41l-2.37 2.1-.38-6.47-4.51 1L32.5 290s-1.71-.1-6.74 5.28Z" style="fill:url(#Sfumatura_senza_nome_3-18)"/><path d="M14.88 282.88s-4.44 3.38-5.4 10.66c0 0 3.92 2.26 7.74-5.1.36.14-6.38 6-6.21 15.7-.06-.32 7 2.53 11.32-9.43a18.53 18.53 0 0 0-1.62 13.37 12.05 12.05 0 0 0 7.47-10.37c-.14-.48-.47-10.41-.47-10.41l-2.37 2.1-.34-6.47-4.51 1 1.17-6.32s-1.75-.11-6.78 5.27Z" style="fill:url(#Sfumatura_senza_nome_3-19)"/><path d="M12.64 264.87s-4.35-1.92-8.45 3c0 0 1.31 5.93 7.19 4 .15.49-6.8-1.82-11.38 6.2.12-.32 3 9.32 11.48 4.22-.16.1-4.85.86-7.45 9.12-.28-.51 5 5.53 9.58-.58.14-.53 4.74-8.91 4.74-8.91l-2.47-.78 2.9-5.63-3.25-3.89 3.77-3.89s-.99-1.96-6.66-2.86Z" style="fill:url(#Sfumatura_senza_nome_3-20)"/><path d="M229 214.64s2.61 5.26 7.56 4.1c0 0 1.22-6.48-4-9.44.07-.57 4.52 7.16 11 3.51-.21.2 1.17-11-7.18-13.13.15 0 4 3.12 9.08-2.34 0 .7-1.76-9.12-7.52-7.2-.31.37-6.94 4.33-6.94 4.33l1.59 2.7-4.29 2.83 1 6.19-4.33.51s.03 2.52 4.03 7.94Z" style="fill:url(#Sfumatura_senza_nome_3-21)"/><path d="M249.22 152a25.14 25.14 0 0 0 3.85-15.62s-5.62-.21-8.39 10.63c-.5.05 6.41-10.86 3.45-22 .17.34-9.55 1.34-11.72 17.84 0-.31 2.87-8.62-1.73-16.44.61-.27-8 6.29-6.56 16.56.31.47 3.55 11.74 3.55 11.74l2.42-3.88 2.31 7.24 5.44-3.94.3 8s2.22-.84 7.08-10.13Z" style="fill:url(#Sfumatura_senza_nome_3-22)"/><path d="M209.06 129.55s2.2-6.59-.32-12.3c0 0-4.32 2.39-4.18 11-.36.27 2.63-10.23-1.93-16.4.2.15-7 5.2-5.22 17.34 0-.22.39-7.12-4.73-10.34.4-.46-4.82 7.86-1.56 14.15.34.18 5.14 6.35 5.14 6.35l1-3.71 3.27 3.86 3.33-5.12 1.89 5.3s1.53-1.68 3.31-10.13Z" style="fill:url(#Sfumatura_senza_nome_3-23)"/><path d="M197.31 132.64s-2-5.84-7-5.66c0 0-1.78 6.3 3 10.34-.12.56-3.72-8.14-10.36-5.77.22-.16-2.16 10.85 5.76 14.71-.15-.06-3.62-4-9.05.53 0-.71.86 9.57 6.64 8.79.33-.31 7.15-3 7.15-3l-1.3-3.05 4.45-2-.42-6.45 4.26.35s.25-2.51-3.13-8.79Z" style="fill:url(#Sfumatura_senza_nome_3-24)"/><path d="M187.1 148.86s-2.79-5-7.73-3.53c0 0-1 6.52 4.34 9.08-.05.57-4.78-6.78-11.18-2.7.21-.21-.81 11 7.66 12.51-.16 0-4.14-2.81-9.06 3 0-.68 2.08 8.93 7.8 6.61.31-.38 6.84-4.79 6.84-4.79l-1.68-2.57 4.24-3.1-1.24-6.07 4.33-.82s-.13-2.54-4.32-7.62Z" style="fill:url(#Sfumatura_senza_nome_3-25)"/><path d="M177.17 168s-1.39-6.34-6.17-7.23a11.61 11.61 0 0 0 1.88 11.09c-.18.55-2.79-9-9.46-8.08.23-.1-3.18 10.5 4.1 16.11-.14-.09-3.1-4.79-8.82-1.43.11-.71-.12 9.85 5.55 10.32.35-.24 7.22-1.44 7.22-1.44l-.94-3.37 4.51-1 .24-6.6 4.08 1.28s.44-2.65-2.19-9.65Z" style="fill:url(#Sfumatura_senza_nome_3-26)"/><path d="M163 182.46s-.11-6.9-4.38-9.7a13 13 0 0 0-.3 11.86c-.26.47-.92-10.15-7.27-11.86.24 0-4.87 9.24.83 17.76-.11-.15-2-6-7.89-5 .23-.66-1.93 9.81 3.23 12.54.38-.09 6.95 1.44 6.95 1.44l-.17-3.7 4.36.77 1.44-6.52 3.5 2.95s.87-2.41-.3-10.54Z" style="fill:url(#Sfumatura_senza_nome_3-27)"/><path d="M148.07 190.44s-.11-6.9-4.38-9.7a13 13 0 0 0-.3 11.85c-.26.48-.92-10.14-7.27-11.85.24 0-4.87 9.24.83 17.75-.11-.14-2-6-7.89-4.94.23-.67-1.93 9.81 3.23 12.54.37-.1 7 1.43 7 1.43l-.25-3.74 4.36.77 1.44-6.52 3.54 2.91s.83-2.38-.31-10.5Z" style="fill:url(#Sfumatura_senza_nome_3-28)"/><path d="M132.48 201.39s1.47-6.89-1.71-11.77c0 0-4.1 3.35-3 11.58-.34.34 1.5-10.5-3.8-15.33a19.78 19.78 0 0 0-3.32 18c-.07-.2-.4-7-5.94-8.81.36-.54-4 8.75 0 14 .36.09 5.9 4.87 5.9 4.87l.63-3.83L125 213l2.78-5.74 2.51 4.64s1.35-1.9 2.19-10.51Z" style="fill:url(#Sfumatura_senza_nome_3-29)"/><path d="M116.57 209.44s2.38-6.49 0-12.38c0 0-4.36 2.12-4.47 10.75-.37.25 2.91-10.11-1.44-16.6.19.17-7.1 4.79-5.69 17.1 0-.23.6-7.13-4.4-10.7.42-.43-5 7.6-2 14.13.32.2 4.91 6.71 4.91 6.71l1.14-3.67 3.13 4.08 3.46-4.93 1.72 5.44s1.63-1.52 3.64-9.93Z" style="fill:url(#Sfumatura_senza_nome_3-30)"/><path d="M100.65 210.71s2.37-6.49 0-12.38c0 0-4.36 2.12-4.47 10.75-.37.25 2.91-10.11-1.44-16.6.19.16-7.1 4.79-5.69 17.1 0-.23.6-7.13-4.4-10.7.42-.43-5 7.6-2 14.13.33.2 4.92 6.71 4.92 6.71l1.14-3.67 3.13 4.08 3.45-4.93 1.73 5.44s1.62-1.52 3.63-9.93Z" style="fill:url(#Sfumatura_senza_nome_3-31)"/><path d="M84.86 211.05s2.37-6.49 0-12.39c0 0-4.36 2.13-4.47 10.76-.37.24 2.91-10.11-1.44-16.61.19.17-7.1 4.8-5.69 17.1 0-.22.6-7.13-4.4-10.69.42-.44-5 7.6-2 14.13.33.2 4.92 6.7 4.92 6.7l1.22-3.66 3.13 4.08 3.45-4.93 1.73 5.46s1.53-1.54 3.55-9.95Z" style="fill:url(#Sfumatura_senza_nome_3-32)"/><path d="M68.44 211.33s2.38-6.49 0-12.39c0 0-4.37 2.13-4.47 10.76-.38.24 2.9-10.12-1.44-16.61.19.17-7.11 4.79-5.7 17.1 0-.22.6-7.13-4.39-10.69.41-.44-5 7.6-2 14.12.33.2 4.92 6.71 4.92 6.71l1.13-3.67 3.14 4.09 3.45-4.93 1.73 5.44s1.62-1.52 3.63-9.93Z" style="fill:url(#Sfumatura_senza_nome_3-33)"/><path d="M51.75 211.09s-.47-6.79-4.92-9.07a12.74 12.74 0 0 0 .32 11.73c-.24.5-1.46-9.91-7.94-10.88.23 0-4.44 9.66 1.76 17.42-.12-.13-2.32-5.72-8.22-4 .2-.68-1.43 9.9 3.91 12 .38-.14 7.08.63 7.08.63l-.45-3.66 4.44.26 1.11-6.52 3.72 2.47s.77-2.47-.81-10.38Z" style="fill:url(#Sfumatura_senza_nome_3-34)"/><path d="M39.69 224s-1.86-6-6.75-6.12c0 0-2 6.21 2.69 10.57-.13.56-3.46-8.41-10.12-6.44.23-.14-2.45 10.77 5.3 15.14-.15-.06-3.48-4.21-9 0 .06-.71.58 9.67 6.33 9.25.35-.29 7.19-2.54 7.19-2.54l-1.19-3.15 4.47-1.7-.23-6.52 4.21.62s.27-2.55-2.9-9.11Z" style="fill:url(#Sfumatura_senza_nome_3-35)"/><path d="M30.17 238.22s-1.86-6-6.75-6.13c0 0-2 6.22 2.69 10.58-.13.56-3.46-8.41-10.12-6.44.23-.14-2.45 10.77 5.29 15.14-.14-.07-3.47-4.21-9 0 .06-.71.59 9.67 6.34 9.25.34-.29 7.19-2.54 7.19-2.54l-1.2-3.15 4.48-1.71-.23-6.51 4.21.62s.27-2.59-2.9-9.11Z" style="fill:url(#Sfumatura_senza_nome_3-36)"/><path d="M21.14 253.39s-1.86-6-6.75-6.13c0 0-2 6.22 2.69 10.58-.13.56-3.46-8.41-10.12-6.44.23-.14-2.45 10.77 5.29 15.14-.14-.07-3.47-4.21-9 0 .06-.71.59 9.67 6.34 9.25.34-.29 7.19-2.54 7.19-2.54l-1.2-3.15 4.48-1.71-.23-6.51 4.21.62s.27-2.59-2.9-9.11Z" style="fill:url(#Sfumatura_senza_nome_3-37)"/></g><path d="M237.3 140.51a36 36 0 0 0 7.74-17.7s-5.67-.82-11.14 11.45c-.52 0 9.18-11.91 8.89-25.06.08.41-10.06.57-16.3 19.45.1-.35 5-9.68 2.26-19.21.69-.26-9.71 6.45-10.72 18.5.2.58.73 14 .73 14l3.41-4.24.58 8.62 6.5-4-1.65 9.32s2.47-.86 9.7-11.13Z" style="fill:url(#Sfumatura_senza_nome_3-38)"/><path d="M224.23 129.29s3.35-8.67 1.51-16.71c0 0-5 2.71-6.14 14.35-.44.31 4.36-13.54.39-22.46.19.24-8.3 6.21-8.22 22.87 0-.31 1.49-9.6-3.53-14.59.5-.58-6.36 10.07-3.8 19 .33.25 4.56 9.25 4.56 9.25l1.68-4.9 2.93 5.63 4.34-6.53 1.24 7.4s1.81-2.03 5.04-13.31Z" style="fill:url(#Sfumatura_senza_nome_3-39)"/></g><path d="M323.89 332.62 316 240.47c-.69-5.53-8.68-3.4-14.21-2.7l-40.57 5.08a10.05 10.05 0 0 0-5.27 2.32 10 10 0 0 0-5.43-2.46L210 237.62c-5.53-.69-12.26-7.68-12.95-2.15l-9.15 97a10.16 10.16 0 0 0 8.8 11.32l40.57 5.08a10.17 10.17 0 0 0 11.32-8.8l7.32-58.45 7.34 58.59a10.16 10.16 0 0 0 11.32 8.8l40.57-5.08a10.16 10.16 0 0 0 8.75-11.31Z" style="fill:url(#Sfumatura_senza_nome_44)"/><path d="M277.49 267.28h-44.1a37.77 37.77 0 0 1-37.66-37.67A33.42 33.42 0 0 1 229 196.29h52.8a33.42 33.42 0 0 1 33.32 33.32 37.78 37.78 0 0 1-37.63 37.67Z" style="fill:url(#Sfumatura_senza_nome_222)"/><path d="M316.16 221.08V190a45 45 0 0 0-44.91-44.91h-30.51A45 45 0 0 0 195.83 190l.17 26.45 59.87 24.69Z" style="fill:url(#Sfumatura_senza_nome_38)"/><path d="m256 236.27-60-19.8v-1.91a45 45 0 0 0 44.91 44.91h30.55a45 45 0 0 0 44.87-43.28Z" style="fill:url(#Sfumatura_senza_nome_39)"/><path d="m256 236.27-.6-91.16s56.6-7.87 60.6 40.75c0-.77.33 30.33.33 30.33Z" style="fill:url(#Sfumatura_senza_nome_223)"/><path d="M223.58 127.14v24.21c.92 8.47 15 15.21 32.24 15.21s31.32-6.74 32.24-15.21h.05v-24.21Z" style="fill:#4e4d4d"/><circle cx="254.99" cy="95.47" r="61.52" style="fill:url(#Sfumatura_senza_nome_153)"/><path d="M318.49 89.12c.19 2.23.27 4.5.24 6.79v-3.74a14 14 0 0 0-.24-3.05Z" style="fill:url(#Sfumatura_senza_nome_183)"/><path d="M315.12 82.47a61.45 61.45 0 0 1-21.31 60.72l4.48.06a66.57 66.57 0 0 0 20.44-47.34c0-2.29-.05-4.56-.24-6.79a14.33 14.33 0 0 0-3.37-6.65Z" style="fill:url(#Sfumatura_senza_nome_183-2)"/><path d="M193.47 94.62a61.92 61.92 0 0 1 1.7-13.51 14.16 14.16 0 0 0-3.65 9.3l-.13 8.73a66.45 66.45 0 0 0 19 42.9l4.48.06a61.38 61.38 0 0 1-21.4-47.48Z" style="fill:url(#Sfumatura_senza_nome_183-3)"/><path d="M254.14 157a61.25 61.25 0 0 0 39.67-13.79l-78.94-1.09A61.25 61.25 0 0 0 254.14 157Z" style="fill:url(#Sfumatura_senza_nome_183-4)"/><path d="M304.71 77.7 206 76.34a14.22 14.22 0 0 0-10.81 4.77 61.45 61.45 0 0 0 19.7 61l78.94 1.09a61.45 61.45 0 0 0 21.31-60.72 14.22 14.22 0 0 0-10.43-4.78Z" style="fill:url(#Sfumatura_senza_nome_183-5)"/><path d="M304.71 77.7 206 76.34a14.22 14.22 0 0 0-10.81 4.77 61.45 61.45 0 0 0 19.7 61l78.94 1.09a61.45 61.45 0 0 0 21.31-60.72 14.22 14.22 0 0 0-10.43-4.78Z" style="fill:url(#Sfumatura_senza_nome_183-6)"/><path d="M315.12 82.47a14.22 14.22 0 0 0-10.41-4.77L206 76.34a14.22 14.22 0 0 0-10.81 4.77 61.45 61.45 0 0 0 19.7 61 61.52 61.52 0 0 0 101.62-45.8 62 62 0 0 0-1.39-13.84Z" style="fill:url(#Sfumatura_senza_nome_12)"/><path d="M318.49 89.12c-2.83-33.19-26.49-70.89-62.43-70.89-38.06 0-64.3 39.59-64.8 75.92 0 1.68 0 3.34.13 5L191 127.5a14.3 14.3 0 0 0 14.08 14.5l5.31.08 4.48.06a61.38 61.38 0 0 1-21.4-47.48c.07-4.65-.34 7.83.7 3.49A14.22 14.22 0 0 1 205 93.34l98.73 1.36a14.22 14.22 0 0 1 10.41 4.77c1 4.46 2.45-7.91 2.39-3.16a61.38 61.38 0 0 1-22.7 46.88l4.48.06 5.52.08a14.32 14.32 0 0 0 14.46-14.08l.46-33.34c.01-2.29-.07-4.56-.26-6.79Z" style="fill:url(#Sfumatura_senza_nome_33)"/><path style="fill:url(#Sfumatura_senza_nome_191)" d="m194.64 83.31 60.99-2.83-.96 69.55-61.24-44.58 1.21-22.14z"/><path style="fill:url(#Sfumatura_senza_nome_179)" d="m247.21 87.73-.68 48.9-7.53-5.16v-43l8.21-.74z"/><path style="fill:url(#Sfumatura_senza_nome_179-2)" d="m232 127.47.81-38.67-8.81.67v33l8 5z"/><path style="fill:url(#Sfumatura_senza_nome_179-3)" d="m217 117.47.82-27.79-6.82-.21v23.58l6 4.42z"/><path style="fill:url(#Sfumatura_senza_nome_179-4)" d="m206 110.47.33-20.72-5.33-.28.29 17.56 4.71 3.44z"/><path style="fill:url(#Sfumatura_senza_nome_191-2)" d="m315.85 84.98-60.22-4.5-.96 69.55 61.77-42.89-.59-22.16z"/><path style="fill:url(#Sfumatura_senza_nome_179-5)" d="m263 87.73.68 48.9 7.53-5.16v-43l-8.21-.74z"/><path style="fill:url(#Sfumatura_senza_nome_179-6)" d="m278.21 127.47-.81-38.67 8.81.67v33l-8 5z"/><path style="fill:url(#Sfumatura_senza_nome_179-7)" d="m293.21 117.47-.82-27.79 6.82-.21v23.58l-6 4.42z"/><path style="fill:url(#Sfumatura_senza_nome_179-8)" d="m304.21 110.47-.33-20.72 5.33-.28-.29 17.56-4.71 3.44z"/><path d="M305 115.47c-3.55 30.06-26 41.73-50.74 41.39s-45.53-13.27-48.26-43.39l-14-10c1.5 32.19 29.49 53.06 62.26 53.51s60.31-19.42 62.74-51.51Z" style="fill:#4e4d4d"/><path d="M210.93 45.44c2.5 6.32 11.1 10.76 27.52 4.27s34.43-21.45 31.93-27.77-17.83-6.18-34.25.31-27.69 16.87-25.2 23.19Z" style="opacity:.5;fill:url(#Sfumatura_senza_nome_683)"/><path d="M200.08 106.13c.88-2 7-21.79-4.52-41.19S158.31 0 158.31 0s.12 36.83 13.5 52.84c-.08.45-5.31 38.53 1.39 48.32s22.33 15.2 26.88 4.97Z" style="fill:url(#Sfumatura_senza_nome_20)"/><path d="M180.7 60.52 155 36.2s2.6 34.8 27.24 52.49c-.11.14 10.29-15.13-1.54-28.17Z" style="fill:url(#Sfumatura_senza_nome_23)"/><path d="m183.16 83.17-26.78-13.42s4.31 33.2 29.71 40.52c-.09.18 9.49-19.11-2.93-27.1Z" style="fill:url(#Sfumatura_senza_nome_23-2)"/><ellipse cx="191.51" cy="91.76" rx="6.51" ry="12.39" transform="rotate(-.92 191.71 91.846)" style="fill:url(#Sfumatura_senza_nome_2)"/><path d="M310.82 108.47c-.73-2-5.56-22.14 5.49-40.9s35.92-62.84 35.92-62.84-1.36 36.79-14 52.05c.07.45 3.51 38.78-2.88 48.19s-20.76 13.97-24.53 3.5Z" style="fill:url(#Sfumatura_senza_nome_20-2)"/><path d="M329.91 64 354 41.07S350.47 75.71 327.56 92c.1.17-8.8-15.66 2.35-28Z" style="fill:url(#Sfumatura_senza_nome_23-3)"/><path d="m326.92 86.46 24.7-11.95s-5 32.94-28.28 38.86c.09.19-7.94-19.6 3.58-26.91Z" style="fill:url(#Sfumatura_senza_nome_23-4)"/><ellipse cx="319.58" cy="94.59" rx="12.38" ry="6.41" transform="rotate(-87.7 319.776 94.275)" style="fill:url(#Sfumatura_senza_nome_2-2)"/><circle cx="202.69" cy="243.57" r="1.81" style="opacity:.29"/><circle cx="210.54" cy="252.99" r="1.81" style="opacity:.29"/><circle cx="222.37" cy="260.11" r="1.81" style="opacity:.29"/><circle cx="307.53" cy="247.76" r="1.81" style="opacity:.29"/><circle cx="298.65" cy="256.21" r="1.81" style="opacity:.29"/><circle cx="286.08" cy="261.92" r="1.81" style="opacity:.29"/><path d="M187 342.47s7.52-44.34 12.93-50.67 40.56-1.8 45 3.65 1.06 47.25-4.08 50.14-53.85-3.12-53.85-3.12Z" style="fill:url(#Sfumatura_senza_nome_2-3)"/><path d="M196 333.47s6.52-29.4 10.27-33.78 28.1-1.25 31.19 2.53 1.54 31.25-.46 34.25c-2.27 3.4-41-3-41-3Z" style="fill:url(#Sfumatura_senza_nome_200)"/><path d="M188.16 333.43s11.5-12 28.5-11c16 .94 30.33 11.31 32 18 2 8-1 23-30.42 24.13-34.3 1.36-37.07-16.89-30.08-31.13Z" style="fill:url(#Sfumatura_senza_nome_179-9)"/><path d="M217 319c-8.67 16.56-31.05 29.58-31.66 29.67 8 22 31.66 25 31.66 25Z" style="fill:url(#Sfumatura_senza_nome_18)"/><path d="M217 319c8.67 16.56 31.05 29.58 31.66 29.67-8 22-31.66 25-31.66 25Z" style="fill:url(#Sfumatura_senza_nome_41)"/><path d="M325 343.47s-7.52-44.34-12.93-50.67-40.56-1.8-45 3.65-1.06 47.25 4.08 50.14 53.85-3.12 53.85-3.12Z" style="fill:url(#Sfumatura_senza_nome_2-4)"/><path d="M316 334.47s-6.52-29.4-10.27-33.78-28.1-1.25-31.19 2.53-1.54 31.25.46 34.25c2.27 3.4 41-3 41-3Z" style="fill:url(#Sfumatura_senza_nome_200-2)"/><path d="M323.84 334.43s-11.5-12-28.5-11c-16 .94-30.33 11.31-32 18-2 8 1 23 30.42 24.13 34.3 1.36 37.07-16.89 30.08-31.13Z" style="fill:url(#Sfumatura_senza_nome_179-10)"/><path d="M295 320c8.67 16.56 31.05 29.58 31.66 29.67-8 22-31.66 25-31.66 25Z" style="fill:url(#Sfumatura_senza_nome_41-2)"/><path d="M295 320c-8.67 16.56-31.05 29.58-31.66 29.67 8 22 31.66 25 31.66 25Z" style="fill:url(#Sfumatura_senza_nome_18-2)"/><path style="fill:url(#Sfumatura_senza_nome_27)" d="m256.01 277.38-16.39-10.1-.41-7.17 16.8-12.35 18.51 11.71v7.81l-18.51 10.1z"/><path style="fill:url(#Sfumatura_senza_nome_207)" d="m239.21 260.11.79-7.64 16.17-12.35 18.35 13.64v5.71l-18.51-11.71-16.8 12.35z"/><path style="fill:url(#Sfumatura_senza_nome_69)" d="m159.7 387.2 28.8-41.97 6.39 32.24 136.11.23-2.6-32.47 22.6 41.24 6 39-184 .23-13.3-38.5z"/><path style="fill:url(#Sfumatura_senza_nome_381)" d="m188.5 345.23 6.39 32.24 136.11.23-2.6-32.47H188.5z"/><path style="fill:url(#Sfumatura_senza_nome_135)" d="m173 425.7 21.89-48.23-6.39-32.24-28.8 41.97 13.3 38.5z"/><path style="fill:url(#Sfumatura_senza_nome_143)" d="m224.18 357 1.32 6.35h70.49l2.66-6.35h-74.47z"/><path style="fill:url(#Sfumatura_senza_nome_135-2)" d="m192 416.47 12-30 120 2 14.24 28H192z"/><path style="fill:url(#Sfumatura_senza_nome_143-2)" d="m175 410.47 13.5-31.46-3.5-21.54-17 28 7 25z"/><path style="fill:url(#Sfumatura_senza_nome_135-3)" d="m178.02 403.43-3.7-16.96 11.84-21.84-1.16-7.16-17 28 7 25 3.02-7.04z"/><path style="fill:url(#Sfumatura_senza_nome_143-3)" d="M194.89 409.24h139.67L324 386.47H204l-9.11 22.77z"/><path style="fill:url(#Sfumatura_senza_nome_125)" d="m149 433.47 20.83-20.77 28.53 19.9-49.36.87z"/><path style="fill:url(#Sfumatura_senza_nome_125-2)" d="m127 439.95 23.1-18.48 14.9 17.81-38 .67z"/><rect x="250" y="183.02" width="20.65" height="60.31" rx="7" transform="rotate(180 260.33 213.175)" style="fill:url(#Sfumatura_senza_nome_87)"/><path d="M260.33 229.88c-16 0-29 10.63-29 23.73h58.06c-.03-13.1-13.03-23.73-29.06-23.73Z" style="fill:url(#Sfumatura_senza_nome_18-3)"/><ellipse cx="260.33" cy="241.96" rx="5.96" ry="7.14" style="fill:url(#Sfumatura_senza_nome_4-2)"/><path d="M250 186.8a10.33 10.33 0 0 1 20.66 0c0 5.7 0 .88-10.33.88S250 192.5 250 186.8Z" style="fill:url(#Sfumatura_senza_nome_18-4)"/><rect x="243.83" y="253.6" height="109.89" style="fill:url(#Sfumatura_senza_nome_60)"/><path style="fill:url(#Sfumatura_senza_nome_60-2)" d="m277.36 363.47-2.58-109.86h-14.45v109.86h17.03z"/><path style="fill:url(#Sfumatura_senza_nome_60-3)" d="M260.33 363.47V253.61h-15.21l-2.58 109.86h17.79z"/><path style="fill:url(#Sfumatura_senza_nome_364)" d="M260.33 363.47V253.61h-15.21l-2.58 109.86h17.79z"/><path style="opacity:.14" d="m242.54 363.47.34-14.37 17.48 1.94 16.66-1.94.34 14.37h-34.82z"/><path d="M317.66 144.93c-5.08-4.22-19.92 2.81-27.12 13.73s-8.05 27.18-2.54 30.81 3.34-15.43 10.55-26.35 23.7-14.37 19.11-18.19ZM196.36 145.93c5.08-4.22 19.91 2.81 27.12 13.73s8.05 27.18 2.54 30.81-3.34-15.43-10.55-26.35-23.7-14.37-19.11-18.19Z" style="fill:#666"/><path d="m290 189.58-1.43-21a17.33 17.33 0 1 1 34.57-2.36l2.59 38a18.13 18.13 0 0 1 0 1.95A17.38 17.38 0 0 1 309.64 223l-38 2.59a17.39 17.39 0 0 1-18.46-16.11A17.38 17.38 0 0 1 269.25 191Z" style="fill:url(#Sfumatura_senza_nome_153-2)"/><path d="M276 188.27a27.5 27.5 0 0 0 1.69 38.28c.31.3.63.58 1 .86a21.52 21.52 0 1 1-2.69-39.14Z" style="fill:#828282"/><ellipse cx="256.58" cy="196.76" rx="13.52" ry="9.76" transform="rotate(-10.3 256.484 196.716)" style="fill:#666"/><path d="M294 224.47a14.88 14.88 0 0 1-17.07 2.78c-10.28-4.67-13.26-29.54-3.06-39.65s16.13 1.87 16.13 1.87-12.18 14.84 4 35Z" style="fill:url(#Sfumatura_senza_nome_207-2)"/><path d="M341.78 138.24s5.07-.15 4.84-8.26c0 0-7.12-.82-10.11 1.3 0 0 2.9-5.35-1.83-11.22 0 .2-6.51 3.33-7.39 8.43a8.59 8.59 0 0 0-6-8.44c-.63 1-6.26 4.24-4.11 9.49 0 .49.81-6.88-8.38-8.66 0 0-6.93 6.29-2.73 11.24 0 0-3.24-7-9.36-7.86 0 0-.25 7.86 2.09 10.47-.54.29-2.13-5.64-9.1-3.8.19.24-2 2.78.23 8.27.18-.06-2.09-5.55-11.17-3.27 0 0-.78 8.14 3.36 11.07 0 0-3.13-3-7.16-1.83 0 0 .39 2.44 4.89 5.66-.3.6-3.79-2.64-8.72 2.57 0 0 .11 4.39 6.24 5.58 0-.34-6.58.4-7.18 6.06-.51.13 1.36 3.58 6.41 2.42a5.1 5.1 0 0 0-4.45 4.84c0 .72 1.6 1.16 6.1-.91 0 .17-1.41 5.51 6.78 7.66s64.33 12.78 56.75-40.81Z" style="fill:url(#Sfumatura_senza_nome_3-40)"/><path d="M317.82 131.2c-35.46 5.15-39.48 27-38 40s35.49 31.51 67.7 27.89 5.78-73.09-29.7-67.89Z" style="fill:url(#Sfumatura_senza_nome_200-3)"/><path d="M337.56 188.7s2.47-17.21-15.2-34.35-31.55-12.51-31.55-12.51-3.47 2.23-7.31 8.85c-.12-.33-5.74 41.7 54.06 38.01Z" style="fill:url(#Sfumatura_senza_nome_200-4)"/><path d="M283.5 150.69c-.11 5.32.68 9.21 4.63 16.41 8.65 15.78 41 23.31 58.23 21.37 12.63-1.42 15.31-8.7 15.27-13.69 1.76 12.41-2.09 22.95-14.13 24.31-32.21 3.62-66.24-14.93-67.7-27.89a34.6 34.6 0 0 1 3.7-20.51Z" style="fill:url(#Sfumatura_senza_nome_336)"/><path d="M357.5 184.22s2.11-19.53-11.63-41.41c-.22-.41 13.63 12.8 15.76 32-.02-.64.7 5.95-4.13 9.41Z" style="fill:#f1f1f1"/><ellipse cx="329.08" cy="150.25" rx="15.33" ry="24.64" transform="rotate(-60.01 329.106 150.25)" style="opacity:.5;fill:url(#Sfumatura_senza_nome_683-2)"/><path d="m224 190.58 1.43-21a17.33 17.33 0 1 0-34.57-2.36l-2.59 38a18.15 18.15 0 0 0 0 1.95A17.4 17.4 0 0 0 204.38 224l38 2.59a17.39 17.39 0 0 0 18.46-16.11A17.38 17.38 0 0 0 244.77 192Z" style="fill:url(#Sfumatura_senza_nome_153-3)"/><path d="M238 189.27a27.5 27.5 0 0 1-1.69 38.28c-.31.3-.63.58-.95.86a21.52 21.52 0 1 0 2.64-39.14Z" style="fill:#828282"/><path d="M219 225.47s7.81 7.45 18.09 2.78 13.26-29.54 3.06-39.65-16.15 1.87-16.15 1.87 11.18 14.84-5 35Z" style="fill:url(#Sfumatura_senza_nome_207-3)"/><path d="M172.24 139.24s-5.07-.15-4.85-8.26c0 0 7.13-.82 10.12 1.3 0 0-2.9-5.35 1.83-11.22 0 .2 6.51 3.33 7.38 8.43a8.61 8.61 0 0 1 6-8.44c.63 1 6.26 4.24 4.1 9.49 0 .49-.8-6.88 8.39-8.66 0 0 6.93 6.29 2.73 11.24 0 0 3.24-7 9.36-7.86 0 0 .25 7.86-2.09 10.47.54.29 2.13-5.64 9.09-3.8-.18.24 2 2.78-.23 8.27-.17-.06 2.1-5.55 11.17-3.27 0 0 .79 8.14-3.35 11.07 0 0 3.13-3 7.16-1.83 0 0-.39 2.44-4.89 5.66.3.6 3.79-2.64 8.72 2.57 0 0-.12 4.39-6.24 5.58 0-.34 6.57.4 7.18 6.06.51.13-1.37 3.58-6.41 2.42a5.1 5.1 0 0 1 4.45 4.84c-.05.72-1.6 1.16-6.1-.91 0 .17 1.4 5.51-6.78 7.66s-64.32 12.78-56.74-40.81Z" style="fill:url(#Sfumatura_senza_nome_3-41)"/><path d="M196.2 132.2c35.46 5.15 39.48 27 38 40s-35.49 31.51-67.7 27.89-5.78-73.09 29.7-67.89Z" style="fill:url(#Sfumatura_senza_nome_200-5)"/><path d="M176.46 189.7s-2.47-17.21 15.2-34.35 31.55-12.51 31.55-12.51 3.47 2.23 7.31 8.85c.12-.33 5.74 41.7-54.06 38.01Z" style="fill:url(#Sfumatura_senza_nome_200-6)"/><path d="M230.52 151.69c.11 5.32-.68 9.21-4.63 16.41-8.65 15.78-41 23.31-58.23 21.37-12.64-1.42-15.31-8.7-15.28-13.69-1.75 12.41 2.1 22.95 14.14 24.31 32.21 3.62 66.24-14.93 67.7-27.89a34.76 34.76 0 0 0-3.7-20.51Z" style="fill:url(#Sfumatura_senza_nome_336-2)"/><path d="M156.52 185.22s-2.11-19.53 11.63-41.41c.22-.41-13.63 12.8-15.77 32 .03-.64-.69 5.95 4.14 9.41Z" style="fill:#f1f1f1"/><ellipse cx="184.94" cy="151.25" rx="24.64" ry="15.33" transform="rotate(-29.99 184.898 151.237)" style="opacity:.5;fill:url(#Sfumatura_senza_nome_683-3)"/></g></g></g><script>(()=&gt;{let e=document.getElementById(&quot;slide2_cavaliere_mantello&quot;);e.style.transformOrigin=&quot;274px 28px&quot;,e.style.transformBox=&quot;fill-box&quot;;let t=()=&gt;{e.animate([{transform:&quot;rotateX(0deg) rotateY(0) skew(0)&quot;},{transform:&quot;rotateX(16deg) rotateY(10deg) skew(-5deg)&quot;,offset:.3},{transform:&quot;rotateX(16deg) rotateY(0) skew(-5deg)&quot;},{transform:&quot;rotateX(16deg) rotateY(10deg) skew(-5deg)&quot;},{transform:&quot;rotateX(16deg) rotateY(0) skew(-5deg)&quot;},{transform:&quot;rotateX(16deg) rotateY(10deg) skew(-5deg)&quot;},{transform:&quot;rotateX(16deg) rotateY(-2deg) skew(-5deg)&quot;},{transform:&quot;rotateX(0deg) rotateY(0) skew(0)&quot;}],{duration:8e3,iterations:1,easing:&quot;ease-in-out&quot;}),setTimeout(t,8e3+parseInt(6e3*Math.random()))};t()})();</script></svg>