<svg xmlns="http://www.w3.org/2000/svg" xmlns:xlink="http://www.w3.org/1999/xlink" viewBox="-20 -20 400.7 648.6"><defs><linearGradient id="Sfumatura_senza_nome_100" data-name="Sfumatura senza nome 100" x1="-1153.52" y1="2.49" x2="-1008.18" y2="153" gradientTransform="matrix(-1 0 0 1 -917.31 0)" gradientUnits="userSpaceOnUse"><stop offset="0" stop-color="#fff"/><stop offset="1" stop-color="#fff"/></linearGradient><linearGradient id="Sfumatura_senza_nome_4" data-name="Sfumatura senza nome 4" x1="-621.95" y1="1556.93" x2="-472.26" y2="1787.42" gradientTransform="matrix(-.99 -.13 -.13 .99 -192.36 -1325.47)" gradientUnits="userSpaceOnUse"><stop offset="0" stop-color="#961355"/><stop offset=".13" stop-color="#a31054"/><stop offset=".49" stop-color="#c50852"/><stop offset=".8" stop-color="#da0351"/><stop offset="1" stop-color="#e20150"/></linearGradient><linearGradient id="Sfumatura_senza_nome_3" data-name="Sfumatura senza nome 3" x1="-650.41" y1="1591.26" x2="-634.07" y2="1616.43" gradientTransform="matrix(-.99 -.13 -.13 .99 -192.36 -1325.47)" gradientUnits="userSpaceOnUse"><stop offset="0" stop-color="#fcf9db"/><stop offset=".4" stop-color="#fdfbe6"/><stop offset="1" stop-color="#fff"/></linearGradient><linearGradient id="Sfumatura_senza_nome_3-2" x1="-628.05" y1="1807.71" x2="-611.03" y2="1833.92" gradientTransform="matrix(-1 -.02 -.02 1 -337.41 -1506.86)" xlink:href="#Sfumatura_senza_nome_3"/><linearGradient id="Sfumatura_senza_nome_3-3" x1="-347.23" y1="402.42" x2="-334.99" y2="421.26" gradientTransform="scale(-1 1) rotate(-40.5 -309.88 248.666)" xlink:href="#Sfumatura_senza_nome_3"/><linearGradient id="Sfumatura_senza_nome_3-4" x1="-359.27" y1="427.62" x2="-347.03" y2="446.46" gradientTransform="scale(-1 1) rotate(-40.5 -309.88 248.666)" xlink:href="#Sfumatura_senza_nome_3"/><linearGradient id="Sfumatura_senza_nome_3-5" x1="-366.97" y1="451.89" x2="-354.73" y2="470.74" gradientTransform="scale(-1 1) rotate(-40.5 -309.88 248.666)" xlink:href="#Sfumatura_senza_nome_3"/><linearGradient id="Sfumatura_senza_nome_3-6" x1="-139.09" y1="155.39" x2="-127.78" y2="172.8" gradientTransform="matrix(-.62 -.78 -.78 .62 246.79 257.99)" xlink:href="#Sfumatura_senza_nome_3"/><linearGradient id="Sfumatura_senza_nome_3-7" x1="-142.29" y1="174.74" x2="-130.98" y2="192.15" gradientTransform="matrix(-.62 -.78 -.78 .62 246.79 257.99)" xlink:href="#Sfumatura_senza_nome_3"/><linearGradient id="Sfumatura_senza_nome_3-8" x1="400.89" y1="-240.23" x2="412.17" y2="-222.87" gradientTransform="scale(-1 1) rotate(-70.8 623.63 534.66)" xlink:href="#Sfumatura_senza_nome_3"/><linearGradient id="Sfumatura_senza_nome_3-9" x1="395.07" y1="-222.77" x2="406.35" y2="-205.41" gradientTransform="scale(-1 1) rotate(-70.8 623.63 534.66)" xlink:href="#Sfumatura_senza_nome_3"/><linearGradient id="Sfumatura_senza_nome_3-10" x1="805.84" y1="-377.1" x2="818.04" y2="-358.31" gradientTransform="scale(-1 1) rotate(-83 835.736 608.531)" xlink:href="#Sfumatura_senza_nome_3"/><linearGradient id="Sfumatura_senza_nome_3-11" x1="798.61" y1="-361.19" x2="810.81" y2="-342.4" gradientTransform="scale(-1 1) rotate(-83 835.736 608.531)" xlink:href="#Sfumatura_senza_nome_3"/><linearGradient id="Sfumatura_senza_nome_3-12" x1="795.65" y1="-345.68" x2="807.85" y2="-326.89" gradientTransform="scale(-1 1) rotate(-83 835.736 608.531)" xlink:href="#Sfumatura_senza_nome_3"/><linearGradient id="Sfumatura_senza_nome_3-13" x1="789.73" y1="-328.8" x2="801.93" y2="-310.01" gradientTransform="scale(-1 1) rotate(-83 835.736 608.531)" xlink:href="#Sfumatura_senza_nome_3"/><linearGradient id="Sfumatura_senza_nome_3-14" x1="1932.77" y1="-332.45" x2="1948.95" y2="-307.53" gradientTransform="scale(1 -1) rotate(65.2 1172.686 -1878.3)" xlink:href="#Sfumatura_senza_nome_3"/><linearGradient id="Sfumatura_senza_nome_3-15" x1="2651.21" y1="26.39" x2="2669.58" y2="54.68" gradientTransform="scale(1 -1) rotate(43.8 2057.855 -3484.7)" xlink:href="#Sfumatura_senza_nome_3"/><linearGradient id="Sfumatura_senza_nome_3-16" x1="2650.56" y1="43.67" x2="2668.93" y2="71.96" gradientTransform="scale(1 -1) rotate(43.8 2057.855 -3484.7)" xlink:href="#Sfumatura_senza_nome_3"/><linearGradient id="Sfumatura_senza_nome_3-17" x1="2650.31" y1="60.47" x2="2668.68" y2="88.76" gradientTransform="scale(1 -1) rotate(43.8 2057.855 -3484.7)" xlink:href="#Sfumatura_senza_nome_3"/><linearGradient id="Sfumatura_senza_nome_3-18" x1="2650.07" y1="77.27" x2="2668.44" y2="105.55" gradientTransform="scale(1 -1) rotate(43.8 2057.855 -3484.7)" xlink:href="#Sfumatura_senza_nome_3"/><linearGradient id="Sfumatura_senza_nome_3-19" x1="2651.86" y1="94.94" x2="2670.23" y2="123.23" gradientTransform="scale(1 -1) rotate(43.8 2057.855 -3484.7)" xlink:href="#Sfumatura_senza_nome_3"/><linearGradient id="Sfumatura_senza_nome_3-20" x1="3500.14" y1="1522.1" x2="3517.16" y2="1548.3" gradientTransform="matrix(1 .02 .02 -1 -3529.82 1918.47)" xlink:href="#Sfumatura_senza_nome_3"/><linearGradient id="Sfumatura_senza_nome_3-21" x1="-443.93" y1="594.11" x2="-431" y2="614.03" gradientTransform="scale(-1 1) rotate(-34 -715.258 161.72)" xlink:href="#Sfumatura_senza_nome_3"/><linearGradient id="Sfumatura_senza_nome_3-22" x1="912.42" y1="3592.65" x2="933.62" y2="3625.3" gradientTransform="scale(-1 1) rotate(62.7 3056.388 978.181)" xlink:href="#Sfumatura_senza_nome_3"/><linearGradient id="Sfumatura_senza_nome_3-23" x1="1797.39" y1="3652.19" x2="1810.91" y2="3673.01" gradientTransform="matrix(-.08 1 1 .08 -3296.09 -1822.13)" xlink:href="#Sfumatura_senza_nome_3"/><linearGradient id="Sfumatura_senza_nome_3-24" x1="3566.96" y1="2628.07" x2="3579.02" y2="2646.65" gradientTransform="matrix(.74 .67 .67 -.74 -4231.37 -124.16)" xlink:href="#Sfumatura_senza_nome_3"/><linearGradient id="Sfumatura_senza_nome_3-25" x1="3764.85" y1="2225.67" x2="3778.13" y2="2246.11" gradientTransform="matrix(.85 .52 .52 -.85 -4204.21 268.39)" xlink:href="#Sfumatura_senza_nome_3"/><linearGradient id="Sfumatura_senza_nome_3-26" x1="3406.67" y1="2763.28" x2="3418.04" y2="2780.79" gradientTransform="matrix(.64 .77 .77 -.64 -4143.2 -519.58)" xlink:href="#Sfumatura_senza_nome_3"/><linearGradient id="Sfumatura_senza_nome_3-27" x1="2986.02" y1="3116.86" x2="2997.11" y2="3133.95" gradientTransform="matrix(.41 .91 .91 -.41 -3920.49 -1102.66)" xlink:href="#Sfumatura_senza_nome_3"/><linearGradient id="Sfumatura_senza_nome_3-28" x1="2988.15" y1="3099.52" x2="2999.24" y2="3116.6" gradientTransform="matrix(.41 .91 .91 -.41 -3920.49 -1102.66)" xlink:href="#Sfumatura_senza_nome_3"/><linearGradient id="Sfumatura_senza_nome_3-29" x1="2337.72" y1="3370.17" x2="2350.13" y2="3389.28" gradientTransform="matrix(.08 1 1 -.08 -3433.58 -1695.58)" xlink:href="#Sfumatura_senza_nome_3"/><linearGradient id="Sfumatura_senza_nome_3-30" x1="1910.91" y1="3417.12" x2="1924.74" y2="3438.42" gradientTransform="scale(-1 1) rotate(82.5 2646.314 758.09)" xlink:href="#Sfumatura_senza_nome_3"/><linearGradient id="Sfumatura_senza_nome_3-31" x1="1914.35" y1="3401.51" x2="1928.18" y2="3422.81" gradientTransform="scale(-1 1) rotate(82.5 2646.314 758.09)" xlink:href="#Sfumatura_senza_nome_3"/><linearGradient id="Sfumatura_senza_nome_3-32" x1="1916.72" y1="3385.89" x2="1930.55" y2="3407.19" gradientTransform="scale(-1 1) rotate(82.5 2646.314 758.09)" xlink:href="#Sfumatura_senza_nome_3"/><linearGradient id="Sfumatura_senza_nome_3-33" x1="1919.11" y1="3369.65" x2="1932.94" y2="3390.95" gradientTransform="scale(-1 1) rotate(82.5 2646.314 758.09)" xlink:href="#Sfumatura_senza_nome_3"/><linearGradient id="Sfumatura_senza_nome_3-34" x1="3161.65" y1="2897.41" x2="3172.68" y2="2914.4" gradientTransform="matrix(.48 .88 .88 -.48 -4021.03 -1014.98)" xlink:href="#Sfumatura_senza_nome_3"/><linearGradient id="Sfumatura_senza_nome_3-35" x1="3612.13" y1="2408.75" x2="3623.96" y2="2426.97" gradientTransform="matrix(.72 .7 .7 -.72 -4246.2 -395.3)" xlink:href="#Sfumatura_senza_nome_3"/><linearGradient id="Sfumatura_senza_nome_3-36" x1="3616.53" y1="2390.61" x2="3628.37" y2="2408.84" gradientTransform="matrix(.72 .7 .7 -.72 -4246.2 -395.3)" xlink:href="#Sfumatura_senza_nome_3"/><linearGradient id="Sfumatura_senza_nome_3-37" x1="3622.07" y1="2372.02" x2="3633.91" y2="2390.24" gradientTransform="matrix(.72 .7 .7 -.72 -4246.2 -395.3)" xlink:href="#Sfumatura_senza_nome_3"/><linearGradient id="Sfumatura_senza_nome_3-38" x1="1504.63" y1="3572.36" x2="1528.98" y2="3609.86" gradientTransform="scale(-1 1) rotate(52.3 4013.505 142.564)" xlink:href="#Sfumatura_senza_nome_3"/><linearGradient id="Sfumatura_senza_nome_3-39" x1="1556.21" y1="3674.23" x2="1573.27" y2="3700.5" gradientTransform="scale(-1 1) rotate(79 2742.996 906.845)" xlink:href="#Sfumatura_senza_nome_3"/><linearGradient id="Sfumatura_senza_nome_44" data-name="Sfumatura senza nome 44" x1="14.38" y1="537.75" x2="14.38" y2="422.01" gradientTransform="translate(241.49)" gradientUnits="userSpaceOnUse"><stop offset="0" stop-color="#696969"/><stop offset=".2" stop-color="#5f5f5f"/><stop offset=".55" stop-color="#434343"/><stop offset=".85" stop-color="#262626"/></linearGradient><linearGradient id="Sfumatura_senza_nome_222" data-name="Sfumatura senza nome 222" x1="21.57" y1="345.87" x2="9.79" y2="458.02" gradientTransform="translate(241.49)" gradientUnits="userSpaceOnUse"><stop offset=".59" stop-color="#bda795"/><stop offset="1" stop-color="#6f5848"/></linearGradient><linearGradient id="Sfumatura_senza_nome_38" data-name="Sfumatura senza nome 38" x1="-10.13" y1="427.22" x2="55.96" y2="321.46" gradientTransform="translate(241.49)" gradientUnits="userSpaceOnUse"><stop offset="0" stop-color="#e8e8e8"/><stop offset=".55" stop-color="#7d7d7d"/></linearGradient><linearGradient id="Sfumatura_senza_nome_39" data-name="Sfumatura senza nome 39" x1="-74.36" y1="469.41" x2="63.77" y2="386.41" gradientTransform="translate(241.49)" gradientUnits="userSpaceOnUse"><stop offset="0" stop-color="#e8e8e8"/><stop offset=".31" stop-color="#b6b6b6"/><stop offset=".69" stop-color="#7d7d7d"/></linearGradient><linearGradient id="Sfumatura_senza_nome_223" data-name="Sfumatura senza nome 223" x1="259.25" y1="426.42" x2="298.69" y2="341.84" gradientUnits="userSpaceOnUse"><stop offset="0" stop-color="#b0b0b0"/><stop offset=".35" stop-color="#878787"/><stop offset=".78" stop-color="#595959"/><stop offset="1" stop-color="#474747"/></linearGradient><linearGradient id="Sfumatura_senza_nome_153" data-name="Sfumatura senza nome 153" x1="-227.09" y1="328.52" x2="-235.68" y2="205.77" gradientTransform="rotate(12.45 -33.415 2540.712)" gradientUnits="userSpaceOnUse"><stop offset="0" stop-color="#ffdddc"/><stop offset=".27" stop-color="#fddad8"/><stop offset=".56" stop-color="#f6d1cb"/><stop offset=".76" stop-color="#efc7bd"/></linearGradient><linearGradient id="Sfumatura_senza_nome_183" data-name="Sfumatura senza nome 183" x1="-164.25" y1="313.13" x2="-169.3" y2="240.88" gradientTransform="rotate(12.45 -33.415 2540.712)" gradientUnits="userSpaceOnUse"><stop offset="0" stop-color="#f2f2f2"/><stop offset="1" stop-color="#a6a6a6"/></linearGradient><linearGradient id="Sfumatura_senza_nome_183-2" x1="-177.01" y1="328.85" x2="-186.19" y2="197.61" xlink:href="#Sfumatura_senza_nome_183"/><linearGradient id="Sfumatura_senza_nome_183-3" x1="-279.88" y1="336.04" x2="-289.06" y2="204.8" xlink:href="#Sfumatura_senza_nome_183"/><linearGradient id="Sfumatura_senza_nome_183-4" x1="-230.11" y1="332.56" x2="-239.29" y2="201.32" xlink:href="#Sfumatura_senza_nome_183"/><linearGradient id="Sfumatura_senza_nome_33" data-name="Sfumatura senza nome 33" x1="-252.79" y1="5.99" x2="-227.61" y2="329.53" gradientTransform="rotate(12.45 -33.415 2540.712)" gradientUnits="userSpaceOnUse"><stop offset=".5" stop-color="#f2f2f2"/><stop offset=".57" stop-color="#dcdcdc"/><stop offset=".71" stop-color="#a2a2a2"/><stop offset=".81" stop-color="#787878"/></linearGradient><linearGradient id="Sfumatura_senza_nome_183-5" x1="-226.83" y1="332.34" x2="-236" y2="201.09" xlink:href="#Sfumatura_senza_nome_183"/><linearGradient id="Sfumatura_senza_nome_183-6" x1="-227.86" y1="317.58" x2="-232.91" y2="245.32" xlink:href="#Sfumatura_senza_nome_183"/><linearGradient id="Sfumatura_senza_nome_12" data-name="Sfumatura senza nome 12" x1="-231.38" y1="341.73" x2="-231.38" y2="204.47" gradientTransform="rotate(12.45 -33.415 2540.712)" gradientUnits="userSpaceOnUse"><stop offset="0" stop-color="#ffdddc"/><stop offset=".22" stop-color="#fddbda"/><stop offset=".32" stop-color="#f7d4d3"/><stop offset=".4" stop-color="#edc8c6"/><stop offset=".46" stop-color="#deb8b4"/><stop offset=".5" stop-color="#d4aca7"/></linearGradient><linearGradient id="Sfumatura_senza_nome_191" data-name="Sfumatura senza nome 191" x1="-288.05" y1="133.83" x2="-249.42" y2="301.16" gradientTransform="rotate(12.45 -33.415 2540.712)" gradientUnits="userSpaceOnUse"><stop offset=".24" stop-color="#e8e8e8"/><stop offset=".37" stop-color="#e3e3e3"/><stop offset=".55" stop-color="#d3d3d3"/><stop offset=".74" stop-color="#b9b9b9"/><stop offset=".95" stop-color="#959595"/><stop offset="1" stop-color="#8a8a8a"/></linearGradient><linearGradient id="Sfumatura_senza_nome_179" data-name="Sfumatura senza nome 179" x1="-254.02" y1="262.78" x2="-231.15" y2="253.54" gradientTransform="rotate(12.45 -33.415 2540.712)" gradientUnits="userSpaceOnUse"><stop offset="0" stop-color="#b0b0b0"/><stop offset=".68" stop-color="#696969"/><stop offset="1" stop-color="#474747"/></linearGradient><linearGradient id="Sfumatura_senza_nome_179-2" x1="-266.47" y1="263.09" x2="-247.61" y2="255.47" xlink:href="#Sfumatura_senza_nome_179"/><linearGradient id="Sfumatura_senza_nome_179-3" x1="-278.46" y1="262.63" x2="-264.39" y2="256.94" xlink:href="#Sfumatura_senza_nome_179"/><linearGradient id="Sfumatura_senza_nome_179-4" x1="-287.11" y1="262.46" x2="-276.95" y2="258.36" xlink:href="#Sfumatura_senza_nome_179"/><linearGradient id="Sfumatura_senza_nome_191-2" x1="-146.16" y1="387.32" x2="-195.43" y2="226.14" gradientTransform="scale(-1 1) rotate(-12.7 -159.59 737.58)" xlink:href="#Sfumatura_senza_nome_191"/><linearGradient id="Sfumatura_senza_nome_179-5" x1="-181.22" y1="262.78" x2="-158.36" y2="253.54" gradientTransform="scale(-1 1) rotate(-12.7 -159.59 737.58)" xlink:href="#Sfumatura_senza_nome_179"/><linearGradient id="Sfumatura_senza_nome_179-6" x1="-193.68" y1="263.09" x2="-174.82" y2="255.47" gradientTransform="scale(-1 1) rotate(-12.7 -159.59 737.58)" xlink:href="#Sfumatura_senza_nome_179"/><linearGradient id="Sfumatura_senza_nome_179-7" x1="-205.66" y1="262.63" x2="-191.59" y2="256.94" gradientTransform="scale(-1 1) rotate(-12.7 -159.59 737.58)" xlink:href="#Sfumatura_senza_nome_179"/><linearGradient id="Sfumatura_senza_nome_179-8" x1="-214.31" y1="262.46" x2="-204.16" y2="258.36" gradientTransform="scale(-1 1) rotate(-12.7 -159.59 737.58)" xlink:href="#Sfumatura_senza_nome_179"/><linearGradient id="Sfumatura_senza_nome_20" data-name="Sfumatura senza nome 20" x1="153.08" y1="346.71" x2="218.33" y2="348.88" gradientTransform="matrix(-.92 -.4 -.4 .92 509.4 -23.93)" gradientUnits="userSpaceOnUse"><stop offset="0" stop-color="#ffffdb"/><stop offset=".3" stop-color="#fbfbda"/><stop offset=".61" stop-color="#eeeed8"/><stop offset=".93" stop-color="#dadad5"/><stop offset="1" stop-color="#d4d4d4"/></linearGradient><linearGradient id="Sfumatura_senza_nome_23" data-name="Sfumatura senza nome 23" x1="595.69" y1="-488.6" x2="646.19" y2="-486.92" gradientTransform="matrix(-.77 -.64 -.64 .77 353.98 996.71)" gradientUnits="userSpaceOnUse"><stop offset="0" stop-color="#ffffdb"/><stop offset=".35" stop-color="#f4f4d9"/><stop offset=".96" stop-color="#d6d6d4"/><stop offset="1" stop-color="#d4d4d4"/></linearGradient><linearGradient id="Sfumatura_senza_nome_23-2" x1="340.53" y1="-56.02" x2="385.51" y2="-54.53" gradientTransform="matrix(-.85 -.52 -.52 .85 466.5 488.15)" xlink:href="#Sfumatura_senza_nome_23"/><linearGradient id="Sfumatura_senza_nome_2" data-name="Sfumatura senza nome 2" x1="-410.04" y1="-249.1" x2="-440.39" y2="-207.47" gradientTransform="rotate(91.38 -343.625 333.718)" gradientUnits="userSpaceOnUse"><stop offset="0" stop-color="#b5b5b5"/><stop offset="1" stop-color="#757575"/></linearGradient><linearGradient id="Sfumatura_senza_nome_20-2" x1="-6158.61" y1="-825.44" x2="-6093.36" y2="-823.27" gradientTransform="rotate(2.55 -27125.236 145073.843)" xlink:href="#Sfumatura_senza_nome_20"/><linearGradient id="Sfumatura_senza_nome_23-3" x1="-5128.79" y1="-3394.05" x2="-5078.29" y2="-3392.38" gradientTransform="rotate(-13.84 12686.432 -24050.952)" xlink:href="#Sfumatura_senza_nome_23"/><linearGradient id="Sfumatura_senza_nome_23-4" x1="-5739.02" y1="-2117.7" x2="-5694.03" y2="-2116.2" gradientTransform="rotate(-5.67 21597.046 -62114.82)" xlink:href="#Sfumatura_senza_nome_23"/><linearGradient id="Sfumatura_senza_nome_2-2" x1="6009.09" y1="-170.73" x2="5978.74" y2="-129.1" gradientTransform="matrix(-.02 -1 -1 .02 326.82 6270.56)" xlink:href="#Sfumatura_senza_nome_2"/><linearGradient id="Sfumatura_senza_nome_11" data-name="Sfumatura senza nome 11" x1="-70.11" y1="3007.07" x2="-67.37" y2="2999.94" gradientTransform="matrix(1 -.1 -.1 -1 541.95 3305.16)" gradientUnits="userSpaceOnUse"><stop offset="0" stop-color="#dedede"/><stop offset="1" stop-color="#b3b3b3"/></linearGradient><linearGradient id="Sfumatura_senza_nome_11-2" x1="-51.01" y1="3002.34" x2="-48.27" y2="2995.21" xlink:href="#Sfumatura_senza_nome_11"/><linearGradient id="Sfumatura_senza_nome_11-3" x1="-83.73" y1="3004.5" x2="-81" y2="2997.38" xlink:href="#Sfumatura_senza_nome_11"/><linearGradient id="Sfumatura_senza_nome_11-4" x1="-92.16" y1="2997.37" x2="-89.43" y2="2990.24" xlink:href="#Sfumatura_senza_nome_11"/><linearGradient id="Sfumatura_senza_nome_3-40" x1="-6273.3" y1="-205.84" x2="-6352.98" y2="-212.56" gradientTransform="matrix(.98 -.22 .22 .98 6398.56 -870.85)" xlink:href="#Sfumatura_senza_nome_3"/><linearGradient id="Sfumatura_senza_nome_200" data-name="Sfumatura senza nome 200" x1="-5865.19" y1="4323.19" x2="-5798.22" y2="4353.65" gradientTransform="rotate(68.8 100.804 6752.928)" gradientUnits="userSpaceOnUse"><stop offset="0" stop-color="#e8e8e8"/><stop offset="1" stop-color="#8a8a8a"/></linearGradient><linearGradient id="Sfumatura_senza_nome_336" data-name="Sfumatura senza nome 336" x1="149.15" y1="327.28" x2="228.46" y2="327.28" gradientUnits="userSpaceOnUse"><stop offset="0" stop-color="#b5b5b5"/><stop offset="1" stop-color="#5e5e5e"/></linearGradient><linearGradient id="Sfumatura_senza_nome_17" data-name="Sfumatura senza nome 17" x1="152.32" y1="325.29" x2="221.87" y2="367.08" gradientUnits="userSpaceOnUse"><stop offset="0" stop-color="#b0b0b0"/><stop offset=".11" stop-color="#9c9c9c"/><stop offset=".4" stop-color="#6f6f6f"/><stop offset=".65" stop-color="#4e4e4e"/><stop offset=".86" stop-color="#3a3a3a"/><stop offset="1" stop-color="#333"/></linearGradient><linearGradient id="Sfumatura_senza_nome_153-2" x1="-269.15" y1="-1907.74" x2="-202.94" y2="-1924.24" gradientTransform="matrix(-.99 .13 .13 .99 347.92 2319.79)" xlink:href="#Sfumatura_senza_nome_153"/><linearGradient id="Sfumatura_senza_nome_207" data-name="Sfumatura senza nome 207" x1="-223.47" y1="-1892.01" x2="-245.78" y2="-1908.82" gradientTransform="matrix(-.99 .13 .13 .99 347.92 2319.79)" gradientUnits="userSpaceOnUse"><stop offset="0" stop-color="#a6a6a6"/><stop offset=".03" stop-color="#a3a3a3"/><stop offset=".45" stop-color="#7c7c7c"/><stop offset=".79" stop-color="#656565"/><stop offset="1" stop-color="#5c5c5c"/></linearGradient><linearGradient id="Sfumatura_senza_nome_153-3" x1="-946.74" y1="588.16" x2="-869.35" y2="599.45" gradientTransform="matrix(.75 1 -.76 .56 1320.3 909.84)" xlink:href="#Sfumatura_senza_nome_153"/><linearGradient id="Sfumatura_senza_nome_207-2" x1="870.77" y1="1576.11" x2="848.49" y2="1559.32" gradientTransform="scale(1 -1) rotate(78 1674.4 198.236)" xlink:href="#Sfumatura_senza_nome_207"/><linearGradient id="Sfumatura_senza_nome_2-3" x1="-24.47" y1="535.03" x2="-24.47" y2="477.37" gradientTransform="translate(241.49)" xlink:href="#Sfumatura_senza_nome_2"/><linearGradient id="Sfumatura_senza_nome_200-2" x1="-41.27" y1="502.25" x2="-1.18" y2="510.77" gradientTransform="translate(241.49)" xlink:href="#Sfumatura_senza_nome_200"/><linearGradient id="Sfumatura_senza_nome_179-9" x1="-55.28" y1="526.43" x2="6.66" y2="539.6" gradientTransform="translate(241.49)" xlink:href="#Sfumatura_senza_nome_179"/><linearGradient id="Sfumatura_senza_nome_3-41" x1="-1431.78" y1="-446.34" x2="-1511.46" y2="-453.06" gradientTransform="matrix(-.94 .33 .33 .94 -932.74 1247.8)" xlink:href="#Sfumatura_senza_nome_3"/><linearGradient id="Sfumatura_senza_nome_200-3" x1="-1671.21" y1="-201.67" x2="-1604.24" y2="-171.21" gradientTransform="matrix(-.91 .41 .41 .91 -1093.55 1190.72)" xlink:href="#Sfumatura_senza_nome_200"/><linearGradient id="Sfumatura_senza_nome_200-4" x1="-1644.84" y1="-198.02" x2="-1608.47" y2="-181.48" gradientTransform="matrix(-.91 .41 .41 .91 -1093.55 1190.72)" xlink:href="#Sfumatura_senza_nome_200"/><linearGradient id="Sfumatura_senza_nome_336-2" x1="-1668.21" y1="-197.94" x2="-1605.13" y2="-169.25" gradientTransform="matrix(-.91 .41 .41 .91 -1093.55 1190.72)" xlink:href="#Sfumatura_senza_nome_336"/><linearGradient id="Sfumatura_senza_nome_18" data-name="Sfumatura senza nome 18" x1="187.18" y1="528.63" x2="222.55" y2="536.15" gradientUnits="userSpaceOnUse"><stop offset="0" stop-color="#e8e8e8"/><stop offset=".26" stop-color="#c9c9c9"/><stop offset=".76" stop-color="#929292"/><stop offset="1" stop-color="#7d7d7d"/></linearGradient><linearGradient id="Sfumatura_senza_nome_41" data-name="Sfumatura senza nome 41" x1="6068.94" y1="521.46" x2="6095.47" y2="555.41" gradientTransform="matrix(-1 0 0 1 6303.68 0)" gradientUnits="userSpaceOnUse"><stop offset="0" stop-color="#b0b0b0"/><stop offset=".16" stop-color="#959595"/><stop offset=".39" stop-color="#737373"/><stop offset=".62" stop-color="#5b5b5b"/><stop offset=".83" stop-color="#4c4c4c"/><stop offset="1" stop-color="#474747"/></linearGradient><linearGradient id="Sfumatura_senza_nome_2-4" x1="5887.74" y1="536.03" x2="5887.74" y2="478.37" gradientTransform="matrix(-1 0 0 1 6182.72 0)" xlink:href="#Sfumatura_senza_nome_2"/><linearGradient id="Sfumatura_senza_nome_200-5" x1="5907.35" y1="491.08" x2="5873.23" y2="528.98" gradientTransform="matrix(-1 0 0 1 6182.72 0)" xlink:href="#Sfumatura_senza_nome_200"/><linearGradient id="Sfumatura_senza_nome_179-10" x1="5912.07" y1="551.02" x2="5861.89" y2="518.43" gradientTransform="matrix(-1 0 0 1 6182.72 0)" xlink:href="#Sfumatura_senza_nome_179"/><linearGradient id="Sfumatura_senza_nome_41-2" x1="6112.28" y1="524.39" x2="6139.55" y2="553.64" gradientTransform="matrix(-1 0 0 1 6424.21 0)" xlink:href="#Sfumatura_senza_nome_41"/><linearGradient id="Sfumatura_senza_nome_18-2" x1="151.45" y1="523.9" x2="185.75" y2="544.51" gradientTransform="translate(120.53)" xlink:href="#Sfumatura_senza_nome_18"/><linearGradient id="Sfumatura_senza_nome_361" data-name="Sfumatura senza nome 361" x1="-78.16" y1="328.25" x2="-78.16" y2="267.94" gradientTransform="translate(241.49)" gradientUnits="userSpaceOnUse"><stop offset=".08" stop-color="#736357"/><stop offset=".36" stop-color="#897869"/><stop offset=".96" stop-color="#c3ae96"/><stop offset="1" stop-color="#c7b299"/></linearGradient><linearGradient id="Sfumatura_senza_nome_60" data-name="Sfumatura senza nome 60" x1="-73.39" y1="258.21" x2="-82.4" y2="86.34" gradientTransform="translate(241.49)" gradientUnits="userSpaceOnUse"><stop offset="0" stop-color="#e8e8e8"/><stop offset=".44" stop-color="#d4d4d4"/><stop offset="1" stop-color="#bfbfbf"/></linearGradient><linearGradient id="Sfumatura_senza_nome_97" data-name="Sfumatura senza nome 97" x1="-120.85" y1="127.35" x2="-27.8" y2="223.71" gradientTransform="translate(241.49)" gradientUnits="userSpaceOnUse"><stop offset="0" stop-color="#f0f0f0"/><stop offset=".21" stop-color="#e9e9e9"/><stop offset="1" stop-color="#d4d4d4"/></linearGradient><linearGradient id="Sfumatura_senza_nome_18-3" x1="-76.93" y1="281.38" x2="-78.25" y2="256.14" gradientTransform="translate(241.49)" xlink:href="#Sfumatura_senza_nome_18"/><linearGradient id="Sfumatura_senza_nome_4-2" x1="-84.12" y1="269.31" x2="-72.2" y2="269.31" gradientTransform="translate(241.49)" xlink:href="#Sfumatura_senza_nome_4"/><linearGradient id="Sfumatura_senza_nome_18-4" x1="-78.16" y1="334.8" x2="-78.16" y2="321.69" gradientTransform="translate(241.49)" xlink:href="#Sfumatura_senza_nome_18"/><linearGradient id="Sfumatura_senza_nome_212" data-name="Sfumatura senza nome 212" x1="-69.34" y1="296.26" x2="-30.21" y2="296.26" gradientTransform="matrix(.89 -.14 -.25 .91 329.74 85.75)" gradientUnits="userSpaceOnUse"><stop offset="0" stop-color="#b0b0b0"/><stop offset=".2" stop-color="#acacac"/><stop offset=".39" stop-color="#a0a0a0"/><stop offset=".59" stop-color="#8c8c8c"/><stop offset=".78" stop-color="#707070"/><stop offset=".98" stop-color="#4c4c4c"/><stop offset="1" stop-color="#474747"/></linearGradient><linearGradient id="Sfumatura_senza_nome_200-6" x1="239.12" y1="449.9" x2="274.77" y2="452.68" xlink:href="#Sfumatura_senza_nome_200"/><linearGradient id="Sfumatura_senza_nome_207-3" x1="240.04" y1="438.17" x2="275.08" y2="440.89" xlink:href="#Sfumatura_senza_nome_207"/><linearGradient id="Sfumatura_senza_nome_69" data-name="Sfumatura senza nome 69" x1="325.98" y1="530.89" x2="192.77" y2="638.77" gradientUnits="userSpaceOnUse"><stop offset="0" stop-color="#4f565c"/><stop offset=".93" stop-color="#608998"/></linearGradient><linearGradient id="Sfumatura_senza_nome_381" data-name="Sfumatura senza nome 381" x1="248.93" y1="513.07" x2="274.03" y2="585.97" gradientUnits="userSpaceOnUse"><stop offset="0" stop-color="#a9a6a9"/><stop offset=".53" stop-color="#97abb8"/><stop offset="1" stop-color="#8bafc2"/></linearGradient><linearGradient id="Sfumatura_senza_nome_135" data-name="Sfumatura senza nome 135" x1="169.17" y1="540.53" x2="192.3" y2="607.71" gradientUnits="userSpaceOnUse"><stop offset="0" stop-color="#60676b"/><stop offset=".52" stop-color="#758b96"/><stop offset="1" stop-color="#8bafc2"/></linearGradient><linearGradient id="Sfumatura_senza_nome_143" data-name="Sfumatura senza nome 143" x1="298.65" y1="548.82" x2="224.18" y2="548.82" gradientUnits="userSpaceOnUse"><stop offset="0" stop-color="#302927"/><stop offset=".19" stop-color="#353232"/><stop offset=".52" stop-color="#414a50"/><stop offset=".96" stop-color="#557181"/><stop offset="1" stop-color="#577586"/></linearGradient><linearGradient id="Sfumatura_senza_nome_135-2" x1="338.24" y1="590.12" x2="192" y2="590.12" xlink:href="#Sfumatura_senza_nome_135"/><linearGradient id="Sfumatura_senza_nome_143-2" x1="188.5" y1="572.62" x2="168" y2="572.62" xlink:href="#Sfumatura_senza_nome_143"/><linearGradient id="Sfumatura_senza_nome_135-3" x1="186.16" y1="572.62" x2="168" y2="572.62" xlink:href="#Sfumatura_senza_nome_135"/><linearGradient id="Sfumatura_senza_nome_143-3" x1="334.57" y1="586.51" x2="194.89" y2="586.51" xlink:href="#Sfumatura_senza_nome_143"/><linearGradient id="Sfumatura_senza_nome_125" data-name="Sfumatura senza nome 125" x1="198.36" y1="611.74" x2="149" y2="611.74" gradientUnits="userSpaceOnUse"><stop offset="0" stop-color="#53737e"/><stop offset=".65" stop-color="#7699a9"/><stop offset="1" stop-color="#8bafc2"/></linearGradient><linearGradient id="Sfumatura_senza_nome_125-2" x1="165" y1="619.36" x2="127" y2="619.36" xlink:href="#Sfumatura_senza_nome_125"/><radialGradient id="Sfumatura_senza_nome_683" data-name="Sfumatura senza nome 683" cx="-2563.39" cy="-8069.18" r="37.45" gradientTransform="matrix(-.77 .13 .05 .3 -1281.2 2977.8)" gradientUnits="userSpaceOnUse"><stop offset=".16" stop-color="#fff"/><stop offset=".29" stop-color="#fff" stop-opacity=".77"/><stop offset=".44" stop-color="#fff" stop-opacity=".5"/><stop offset=".58" stop-color="#fff" stop-opacity=".28"/><stop offset=".7" stop-color="#fff" stop-opacity=".13"/><stop offset=".8" stop-color="#fff" stop-opacity=".03"/><stop offset=".86" stop-color="#fff" stop-opacity="0"/></radialGradient><radialGradient id="Sfumatura_senza_nome_683-2" cx="-1033.49" cy="-4789.35" r="36.47" gradientTransform="matrix(0 -.6 -.38 0 -1488.63 -289.14)" xlink:href="#Sfumatura_senza_nome_683"/><style>@keyframes rotate{0%{transform:rotate(0)}to{transform:rotate(360deg)}}#slide2_luccichio_spada{transform-origin:50%;transform-box:fill-box;animation:2s linear infinite rotate}</style></defs><g id="Livello_2" data-name="Livello 2"><g id="Livello_24" data-name="Livello 24"><g id="slide2_cavaliere_spada"><path id="slide2_luccichio_spada" style="fill:url(#Sfumatura_senza_nome_100)" d="m85.8 148.1 76.14-47 71.96 54.38-47-76.14 54.38-71.96-76.14 47.01L93.18 0l47.01 76.14L85.8 148.1z"/><g id="slide2_cavaliere_mantello"><g id="mantelloblu"><path d="M246.55 313.49s-7.18 96.25-49.91 148c-46 55.66-118.21 69.76-118.21 69.76L6.7 456.67l45.72-79.18s94.65 37.71 142.76-80.63c0 0 2.82-23.86 51.37 16.63Z" style="fill:url(#Sfumatura_senza_nome_4)"/><g style="opacity:.54"><path d="M109.52 426.84c5.5 21.43-8.11 41.85-30.46 46.08l-2.21-8.62c17.32-3.42 27.84-19.32 23.56-36S78.62 400.23 61 402.43l-2.22-8.62c22.65-3 45.22 11.6 50.74 33.03Z" style="fill:#fff"/><path d="M88.69 430.18c2.69 10.48-3.8 20.47-14.56 22.82l-2.21-8.64a10.37 10.37 0 0 0 7.66-12.71c-1.47-5.72-7.28-9.7-13.32-9.34L64 413.67c11.11-1.16 22 6.04 24.69 16.51Z" style="fill:#fff"/></g><path d="m9.93 447 4.5-8.73c.22 1.23.47 2.47.79 3.71 7.18 28 37.12 46.93 66.72 42.17s47.86-31.41 40.67-59.43c-5-19.33-20.75-34.32-39.79-40.2l2.58-.95 9.83-2.82c17.38 8.45 31.12 23.74 36 42.6 8.33 32.49-12.83 63.4-47.17 68.91-33.8 5.44-67.9-15.69-76.96-47.26Z" style="fill:#fff;opacity:.54"/><path d="M238.07 361.58s4.12 3 8.5-1.9c0 0-.85-7-6.76-5.81-.11-.59 6.54 3.29 11.6-5.06-.14.35-2.29-11.19-10.93-6.86.15-.09 4.81-.12 8-9.1.24.63-4.51-7.22-9.42-1-.18.58-5.29 9.33-5.29 9.33l2.36 1.34-3.25 5.92 2.9 5-4 3.77s.8 2.32 6.29 4.37Z" style="fill:url(#Sfumatura_senza_nome_3)"/><path d="M242.87 341.08s4.35 2.16 8.45-3.38c0 0-1.31-6.71-7.2-4.48-.15-.56 6.81 2 11.38-7-.12.37-3-10.54-11.48-4.75.15-.12 4.85-1 7.44-10.34.29.57-5-6.26-9.57.66-.15.61-4.74 10.1-4.74 10.1l2.47.88-2.9 6.38 3.25 4.4-3.76 4.41s.98 2.1 6.66 3.12Z" style="fill:url(#Sfumatura_senza_nome_3-2)"/><path d="M222.45 402.92s2.16 6.49 7.1 6c0 0 1.67-7.19-3.23-11.5.11-.64 3.9 9 10.51 6-.22.18 1.95-12.34-6.07-16.29.15 0 3.7 4.28 9.06-1.05 0 .8-1.06-10.74-6.83-9.58-.34.37-7.12 3.7-7.12 3.7l1.36 3.38-4.43 2.45.56 7.25-4.28-.19s-.14 2.91 3.37 9.83Z" style="fill:url(#Sfumatura_senza_nome_3-3)"/><path d="M215.37 429.94s2.16 6.48 7.1 6c0 0 1.66-7.18-3.24-11.5.11-.64 3.9 9 10.52 6-.23.19 1.94-12.34-6.08-16.29.15.06 3.71 4.29 9.07-1 0 .79-1.06-10.74-6.84-9.59-.33.37-7.11 3.71-7.11 3.71l1.35 3.37-4.42 2.45.55 7.25-4.28-.18s-.14 2.84 3.38 9.78Z" style="fill:url(#Sfumatura_senza_nome_3-4)"/><path d="M205.56 453.44s2.16 6.48 7.1 6c0 0 1.67-7.19-3.23-11.5.11-.64 3.9 9 10.51 6-.22.19 1.95-12.33-6.07-16.29.15.06 3.7 4.29 9.06-1 0 .8-1.06-10.74-6.83-9.58-.34.36-7.12 3.7-7.12 3.7l1.36 3.38-4.43 2.44.56 7.26-4.28-.19s-.14 2.88 3.37 9.78Z" style="fill:url(#Sfumatura_senza_nome_3-5)"/><path d="M193.34 472s1.3 7.24 6.06 8.4c0 0 2.43-6.71-1.73-12.65.17-.61 2.66 10.33 9.33 9.45-.24.12 3.3-11.81-3.89-18.4.13.11 3 5.53 8.77 1.89-.12.8.25-11.17-5.4-11.88-.36.26-7.22 1.42-7.22 1.42l.9 3.85-4.51 1-.32 7.49-4.06-1.57s-.48 2.86 2.07 11Z" style="fill:url(#Sfumatura_senza_nome_3-6)"/><path d="M180.22 486.54s1.3 7.24 6.06 8.4c0 0 2.43-6.71-1.73-12.65.17-.61 2.66 10.33 9.32 9.45-.23.12 3.3-11.81-3.88-18.4.13.11 3 5.53 8.77 1.89-.12.8.25-11.17-5.4-11.88-.36.26-7.22 1.42-7.22 1.42l.9 3.85-4.51 1-.33 7.49-4-1.58s-.53 2.91 2.02 11.01Z" style="fill:url(#Sfumatura_senza_nome_3-7)"/><path d="M163.91 496.58s-.3 7.9 3.73 11.73c0 0 3.53-5.26 1-13.49.28-.51.29 11.72 6.43 14.61-.23 0 5.35-9.83.26-20.4.1.19 1.59 7.18 7.46 6.82-.26.72 2.49-10.91-2.42-14.8-.37.06-6.75-2.66-6.75-2.66v4.31l-4.24-1.52-1.81 7.23-3.31-3.85s-.98 2.58-.35 12.02Z" style="fill:url(#Sfumatura_senza_nome_3-8)"/><path d="M149.31 507.79s-.3 7.9 3.73 11.73c0 0 3.53-5.26 1-13.49.28-.51.29 11.72 6.43 14.6-.23 0 5.35-9.82.26-20.39.1.19 1.59 7.18 7.47 6.82-.27.72 2.49-10.92-2.43-14.8-.37.06-6.75-2.66-6.75-2.66v4.31l-4.24-1.52-1.78 7.23-3.31-3.85s-1.01 2.58-.38 12.02Z" style="fill:url(#Sfumatura_senza_nome_3-9)"/><path d="M131.89 511.91s-1.31 7.84 2 13.15c0 0 4-4 2.71-13.21.33-.41-1.25 11.9 4.19 17a24.84 24.84 0 0 0 2.89-20.44c.08.22.58 7.8 6.19 9.56-.35.63 3.77-10.09-.37-15.78-.36-.08-6-5.12-6-5.12l-.53 4.35-3.83-3.07-2.69 6.65-2.63-5.07s-1.29 2.24-1.93 11.98Z" style="fill:url(#Sfumatura_senza_nome_3-10)"/><path d="M116.93 520.94s-1.31 7.84 2 13.15c0 0 4-4 2.71-13.22.33-.4-1.25 11.91 4.19 17a24.81 24.81 0 0 0 2.89-20.44c.07.23.58 7.81 6.18 9.56-.34.64 3.78-10.09-.36-15.77-.37-.08-6.05-5.12-6.05-5.12l-.54 4.35-3.82-3.07-2.64 6.62-2.64-5s-1.29 2.2-1.92 11.94Z" style="fill:url(#Sfumatura_senza_nome_3-11)"/><path d="M101.87 525.68s-1.32 7.84 2 13.15c0 0 4-4 2.71-13.21.34-.41-1.25 11.9 4.19 17a24.82 24.82 0 0 0 2.9-20.43c.07.22.57 7.8 6.18 9.56-.35.63 3.77-10.09-.37-15.78-.36-.08-6-5.12-6-5.12l-.53 4.35-3.82-3.07-2.66 6.63-2.63-5.07s-1.34 2.25-1.97 11.99Z" style="fill:url(#Sfumatura_senza_nome_3-12)"/><path d="M85.79 533.52s-1.31 7.84 2 13.15c0 0 4-4 2.72-13.22.33-.41-1.25 11.91 4.19 17A24.83 24.83 0 0 0 97.59 530c.07.22.58 7.81 6.18 9.56-.34.63 3.78-10.09-.36-15.77-.37-.08-6-5.12-6-5.12l-.54 4.34L93 520l-2.65 6.63-2.64-5.07s-1.29 2.22-1.92 11.96Z" style="fill:url(#Sfumatura_senza_nome_3-13)"/><path d="M71.9 525.47a24.8 24.8 0 0 0-2.6 13.94s4.41-.18 6.29-9.86c.39-.08-4.74 9.93-2.12 19.45-.14-.28 7.47-1.8 8.72-16.39 0 .27-2 7.73 1.8 14.28-.47.28 6.14-6 4.71-14.93-.26-.39-3.1-10.05-3.1-10.05l-1.79 3.55-2-6.19-4.17 3.81-.45-7s-1.72.92-5.29 9.39Z" style="fill:url(#Sfumatura_senza_nome_3-14)"/><path d="M61.65 511.21s-4.44 3.83-5.39 12.07c0 0 3.92 2.56 7.73-5.77.36.16-6.38 6.8-6.21 17.77-.06-.36 7 2.86 11.32-10.67a23.27 23.27 0 0 0-1.61 15.13c-.48 0 6.73-2.12 7.46-11.74-.14-.55-.47-11.78-.47-11.78l-2.37 2.37-.38-7.32-4.51 1.15 1.17-7.15s-1.71-.15-6.74 5.94Z" style="fill:url(#Sfumatura_senza_nome_3-15)"/><path d="M49.28 499.14s-4.45 3.83-5.4 12.07c0 0 3.92 2.56 7.73-5.77.36.16-6.38 6.8-6.21 17.77-.06-.36 7 2.86 11.32-10.67a23.27 23.27 0 0 0-1.61 15.13c-.48 0 6.73-2.12 7.46-11.74-.14-.55-.47-11.78-.47-11.78l-2.37 2.37-.38-7.32-4.51 1.15L56 493.2s-1.7-.15-6.72 5.94Z" style="fill:url(#Sfumatura_senza_nome_3-16)"/><path d="M37.52 487.14s-4.45 3.83-5.4 12.07c0 0 3.92 2.56 7.73-5.77.36.16-6.38 6.8-6.21 17.77 0-.37 7 2.86 11.32-10.68a23.32 23.32 0 0 0-1.61 15.14c-.48 0 6.73-2.12 7.46-11.74-.13-.55-.46-11.79-.46-11.79L48 494.52l-.38-7.32-4.5 1.15 1.17-7.15s-1.74-.15-6.77 5.94Z" style="fill:url(#Sfumatura_senza_nome_3-17)"/><path d="M25.76 475.14s-4.44 3.82-5.4 12.07c0 0 3.92 2.56 7.73-5.77.36.16-6.38 6.8-6.2 17.77-.06-.37 7 2.86 11.32-10.68a23.19 23.19 0 0 0-1.62 15.13c-.47 0 6.74-2.11 7.47-11.73-.14-.55-.47-11.79-.47-11.79l-2.37 2.38-.38-7.32-4.51 1.15 1.17-7.16s-1.71-.14-6.74 5.95Z" style="fill:url(#Sfumatura_senza_nome_3-18)"/><path d="M14.88 461.1s-4.44 3.82-5.4 12.07c0 0 3.92 2.56 7.74-5.77.36.16-6.38 6.8-6.21 17.77-.06-.37 7 2.86 11.32-10.68a23.34 23.34 0 0 0-1.62 15.13c-.47 0 6.74-2.11 7.47-11.73-.14-.55-.47-11.79-.47-11.79l-2.37 2.38-.34-7.33-4.51 1.16 1.17-7.16s-1.75-.15-6.78 5.95Z" style="fill:url(#Sfumatura_senza_nome_3-19)"/><path d="M12.64 440.71s-4.35-2.17-8.45 3.37c0 0 1.31 6.71 7.19 4.48.15.56-6.8-2.05-11.38 7 .12-.37 3 10.55 11.48 4.77-.16.12-4.85 1-7.45 10.33-.28-.58 5 6.26 9.58-.66.14-.6 4.74-10.09 4.74-10.09l-2.47-.88 2.9-6.38-3.25-4.4 3.77-4.4s-.99-2.12-6.66-3.14Z" style="fill:url(#Sfumatura_senza_nome_3-20)"/><path d="M229 383.84s2.61 6 7.56 4.64c0 0 1.22-7.34-4-10.68.07-.65 4.52 8.1 11 4-.21.23 1.17-12.43-7.18-14.86.15 0 4 3.53 9.08-2.65 0 .79-1.76-10.33-7.52-8.16-.31.42-6.94 4.91-6.94 4.91l1.59 3.06-4.31 3.19 1 7-4.33.59s.05 2.83 4.05 8.96Z" style="fill:url(#Sfumatura_senza_nome_3-21)"/><path d="M249.22 312.92a31.25 31.25 0 0 0 3.85-17.69s-5.62-.24-8.39 12c-.5.07 6.41-12.29 3.45-24.84.17.38-9.55 1.52-11.72 20.19 0-.35 2.87-9.75-1.73-18.6.61-.32-8 7.11-6.56 18.74.31.53 3.55 13.29 3.55 13.29l2.42-4.39 2.31 8.2 5.44-4.47.3 9.09s2.22-1 7.08-11.52Z" style="fill:url(#Sfumatura_senza_nome_3-22)"/><path d="M209.06 287.51s2.2-7.46-.32-13.92c0 0-4.32 2.7-4.18 12.41-.36.3 2.63-11.58-1.93-18.57.2.17-7 5.89-5.22 19.63 0-.25.39-8.06-4.73-11.71.4-.52-4.82 8.9-1.56 16 .34.2 5.14 7.19 5.14 7.19l1-4.2 3.27 4.37 3.33-5.79 1.89 6s1.53-1.8 3.31-11.41Z" style="fill:url(#Sfumatura_senza_nome_3-23)"/><path d="M197.31 291s-2-6.62-7-6.42c0 0-1.78 7.13 3 11.71-.12.63-3.72-9.22-10.36-6.53.22-.18-2.16 12.28 5.76 16.65-.15-.07-3.62-4.49-9.05.6 0-.8.86 10.83 6.64 10 .33-.35 7.15-3.36 7.15-3.36l-1.3-3.46 4.45-2.24-.42-7.3 4.26.4s.25-2.93-3.13-10.05Z" style="fill:url(#Sfumatura_senza_nome_3-24)"/><path d="M187.1 309.37s-2.79-5.7-7.73-4c0 0-1 7.38 4.34 10.28-.05.64-4.78-7.68-11.18-3.06.21-.24-.81 12.43 7.66 14.17-.16 0-4.14-3.18-9.06 3.36 0-.78 2.08 10.1 7.8 7.48.31-.44 6.84-5.42 6.84-5.42l-1.68-2.91 4.24-3.52-1.24-6.86 4.33-.93s-.13-2.83-4.32-8.59Z" style="fill:url(#Sfumatura_senza_nome_3-25)"/><path d="M177.17 331s-1.39-7.18-6.17-8.19c0 0-2.37 6.76 1.88 12.56-.18.62-2.79-10.22-9.46-9.15.23-.12-3.18 11.88 4.1 18.24-.14-.1-3.1-5.42-8.82-1.63.11-.79-.12 11.15 5.55 11.69.35-.27 7.22-1.63 7.22-1.63l-.94-3.81 4.51-1.16.24-7.48 4.08 1.45s.44-2.89-2.19-10.89Z" style="fill:url(#Sfumatura_senza_nome_3-26)"/><path d="M163 347.42s-.11-7.82-4.38-11c0 0-3.29 5.7-.3 13.42-.26.54-.92-11.48-7.27-13.41.24 0-4.87 10.45.83 20.09-.11-.16-2-6.82-7.89-5.59.23-.75-1.93 11.1 3.23 14.19.38-.11 6.95 1.63 6.95 1.63l-.25-4.24 4.36.87 1.44-7.38 3.55 3.29s.9-2.68-.27-11.87Z" style="fill:url(#Sfumatura_senza_nome_3-27)"/><path d="M148.07 356.44s-.11-7.81-4.38-11c0 0-3.29 5.7-.3 13.42-.26.54-.92-11.48-7.27-13.41.24 0-4.87 10.45.83 20.09-.11-.16-2-6.82-7.89-5.6.23-.75-1.93 11.11 3.23 14.2.37-.11 7 1.63 7 1.63l-.25-4.24 4.36.87 1.44-7.38 3.54 3.29s.83-2.67-.31-11.87Z" style="fill:url(#Sfumatura_senza_nome_3-28)"/><path d="M132.48 368.84s1.47-7.8-1.71-13.33c0 0-4.1 3.8-3 13.12-.34.38 1.5-11.89-3.8-17.36.21.12-6.48 7.61-3.32 20.36-.07-.23-.4-7.88-5.94-10 .36-.62-4 9.9 0 15.86.36.1 5.9 5.51 5.9 5.51l.63-4.34L125 382l2.78-6.5 2.51 5.25s1.35-2.17 2.19-11.91Z" style="fill:url(#Sfumatura_senza_nome_3-29)"/><path d="M116.57 378s2.38-7.35 0-14c0 0-4.36 2.41-4.47 12.18-.37.27 2.91-11.45-1.44-18.8.19.19-7.1 5.42-5.69 19.35 0-.25.6-8.07-4.4-12.1.42-.5-5 8.6-2 16 .32.23 4.91 7.59 4.91 7.59l1.14-4.15 3.13 4.63 3.46-5.58 1.79 6.08s1.56-1.72 3.57-11.2Z" style="fill:url(#Sfumatura_senza_nome_3-30)"/><path d="M100.65 379.4s2.37-7.35 0-14c0 0-4.36 2.4-4.47 12.17-.37.28 2.91-11.45-1.44-18.8.19.19-7.1 5.43-5.69 19.36 0-.25.6-8.07-4.4-12.1.42-.5-5 8.6-2 16 .33.22 4.92 7.59 4.92 7.59l1.14-4.15 3.13 4.62 3.45-5.58 1.73 6.16s1.62-1.75 3.63-11.27Z" style="fill:url(#Sfumatura_senza_nome_3-31)"/><path d="M84.86 379.78s2.37-7.35 0-14c0 0-4.36 2.41-4.47 12.18-.37.27 2.91-11.45-1.44-18.8.19.19-7.1 5.42-5.69 19.35 0-.25.6-8.07-4.4-12.1.42-.5-5 8.6-2 16 .33.23 4.92 7.59 4.92 7.59l1.22-4.18 3.13 4.63 3.45-5.59 1.73 6.14s1.53-1.7 3.55-11.22Z" style="fill:url(#Sfumatura_senza_nome_3-32)"/><path d="M68.44 380.09s2.38-7.34 0-14c0 0-4.37 2.41-4.47 12.18-.38.27 2.9-11.45-1.44-18.8.19.19-7.11 5.42-5.7 19.36 0-.26.6-8.08-4.39-12.11.41-.49-5 8.61-2 16 .33.23 4.92 7.59 4.92 7.59l1.13-4.15 3.14 4.63 3.45-5.58 1.73 6.16s1.62-1.75 3.63-11.28Z" style="fill:url(#Sfumatura_senza_nome_3-33)"/><path d="M51.75 379.83s-.47-7.7-4.92-10.28a16.11 16.11 0 0 0 .32 13.28c-.24.57-1.46-11.21-7.94-12.31.23 0-4.44 10.94 1.76 19.72-.12-.14-2.32-6.48-8.22-4.51.2-.77-1.43 11.2 3.91 13.59.38-.15 7.08.71 7.08.71l-.45-4.14 4.44.3 1.11-7.47 3.72 2.8s.77-2.76-.81-11.69Z" style="fill:url(#Sfumatura_senza_nome_3-34)"/><path d="M39.69 394.49s-1.86-6.79-6.75-6.94c0 0-2 7 2.69 12-.13.63-3.46-9.52-10.12-7.3.23-.16-2.45 12.2 5.3 17.15-.15-.08-3.48-4.77-9 0 .06-.8.58 11 6.33 10.47.35-.33 7.19-2.87 7.19-2.87l-1.19-3.57 4.47-1.93-.23-7.37 4.21.7s.27-2.96-2.9-10.34Z" style="fill:url(#Sfumatura_senza_nome_3-35)"/><path d="M30.17 410.54s-1.86-6.79-6.75-6.94c0 0-2 7 2.69 12-.13.63-3.46-9.52-10.12-7.3.23-.16-2.45 12.2 5.29 17.15-.14-.08-3.47-4.77-9 0 .06-.8.59 10.95 6.34 10.47.34-.33 7.19-2.87 7.19-2.87l-1.2-3.56 4.48-1.94-.23-7.37 4.21.7s.27-2.96-2.9-10.34Z" style="fill:url(#Sfumatura_senza_nome_3-36)"/><path d="M21.14 427.72s-1.86-6.8-6.75-6.94c0 0-2 7 2.69 12-.13.64-3.46-9.52-10.12-7.29.23-.16-2.45 12.19 5.29 17.14-.14-.08-3.47-4.77-9 0 .06-.8.59 10.95 6.34 10.48.34-.33 7.19-2.88 7.19-2.88l-1.2-3.56 4.48-1.94-.23-7.37L24 438s.31-2.91-2.86-10.28Z" style="fill:url(#Sfumatura_senza_nome_3-37)"/></g><path d="M237.3 299.92a43.15 43.15 0 0 0 7.74-20s-5.67-.92-11.14 13c-.52 0 9.18-13.49 8.89-28.38.08.46-10.06.65-16.3 22 .1-.39 5-11 2.26-21.75.69-.29-9.71 7.31-10.72 20.95.2.65.73 15.81.73 15.81l3.41-4.81.58 9.77 6.5-4.54-1.65 10.56s2.47-.98 9.7-12.61Z" style="fill:url(#Sfumatura_senza_nome_3-38)"/><path d="M224.23 287.22s3.35-9.81 1.51-18.92c0 0-5 3.07-6.14 16.25-.44.35 4.36-15.33.39-25.43.19.27-8.3 7-8.22 25.89 0-.35 1.49-10.87-3.53-16.52.5-.65-6.36 11.4-3.8 21.5.33.32 4.56 10.44 4.56 10.44l1.68-5.55 2.93 6.37 4.34-7.39 1.24 8.38s1.81-2.24 5.04-15.02Z" style="fill:url(#Sfumatura_senza_nome_3-39)"/></g><path d="M323.89 521.27 316 429.12c-.69-5.53-8.68-3.4-14.21-2.71l-40.57 5.09a10.05 10.05 0 0 0-5.27 2.32 10 10 0 0 0-5.43-2.46L210 426.27c-5.53-.69-12.26-7.68-12.95-2.15l-9.15 97a10.16 10.16 0 0 0 8.8 11.32l40.57 5.08a10.18 10.18 0 0 0 11.32-8.8l7.32-58.45 7.34 58.59a10.16 10.16 0 0 0 11.32 8.8l40.57-5.08a10.16 10.16 0 0 0 8.75-11.31Z" style="fill:url(#Sfumatura_senza_nome_44)"/><path d="M277.49 455.93h-44.1a37.77 37.77 0 0 1-37.66-37.67A33.42 33.42 0 0 1 229 384.94h52.8a33.42 33.42 0 0 1 33.32 33.32 37.78 37.78 0 0 1-37.63 37.67Z" style="fill:url(#Sfumatura_senza_nome_222)"/><path d="M316.16 409.73v-31.06a45 45 0 0 0-44.91-44.91h-30.51a45 45 0 0 0-44.91 44.91l.17 26.45 59.87 24.69Z" style="fill:url(#Sfumatura_senza_nome_38)"/><path d="m256 424.92-60-19.8v-1.91a45 45 0 0 0 44.91 44.91h30.55a45 45 0 0 0 44.87-43.28Z" style="fill:url(#Sfumatura_senza_nome_39)"/><path d="m256 424.92-.6-91.16s56.6-7.87 60.6 40.75c0-.77.33 30.33.33 30.33Z" style="fill:url(#Sfumatura_senza_nome_223)"/><path d="M223.58 315.79V340c.92 8.47 15 15.21 32.24 15.21s31.32-6.74 32.24-15.21h.05v-24.21Z" style="fill:#4e4d4d"/><circle cx="263.42" cy="277.94" r="61.52" style="fill:url(#Sfumatura_senza_nome_153)"/><path d="M326.89 284.55a67.89 67.89 0 0 1-1.13 6.7l.81-3.65a14.44 14.44 0 0 0 .32-3.05Z" style="fill:url(#Sfumatura_senza_nome_183)"/><path d="M324.94 277.36a61.47 61.47 0 0 1-33.15 55.16l4.38 1a66.58 66.58 0 0 0 29.59-42.23 67.89 67.89 0 0 0 1.13-6.7 14.2 14.2 0 0 0-1.95-7.23Z" style="fill:url(#Sfumatura_senza_nome_183-2)"/><path d="M203.35 264.67a61.1 61.1 0 0 1 4.39-12.88 14.18 14.18 0 0 0-5.46 8.37l-1.88 8.53a66.41 66.41 0 0 0 9.93 45.84l4.38 1a61.36 61.36 0 0 1-11.36-50.86Z" style="fill:url(#Sfumatura_senza_nome_183-3)"/><path d="M250.16 338a61.27 61.27 0 0 0 41.63-5.49l-77.08-17A61.26 61.26 0 0 0 250.16 338Z" style="fill:url(#Sfumatura_senza_nome_183-4)"/><path d="M326.89 284.55c3.94-33.07-14.61-74.93-46.81-82-34.38-7.59-71 25.78-78.81 61.26-.36 1.64-.64 3.28-.87 4.92l-6.12 27.69a14.32 14.32 0 0 0 10.86 17l5.19 1.14 4.38 1a61.47 61.47 0 0 1-7-63.71 14.2 14.2 0 0 1 11.55-2.49l96.42 21.28a14.25 14.25 0 0 1 9.23 6.78 61.47 61.47 0 0 1-33.15 55.16l4.38 1 5.39 1.19a14.3 14.3 0 0 0 17-10.85l7.19-32.57a67.89 67.89 0 0 0 1.17-6.8Z" style="fill:url(#Sfumatura_senza_nome_33)"/><path d="m315.71 270.58-96.42-21.28a14.2 14.2 0 0 0-11.55 2.49 61.47 61.47 0 0 0 7 63.71l77.08 17a61.47 61.47 0 0 0 33.15-55.16 14.25 14.25 0 0 0-9.26-6.76Z" style="fill:url(#Sfumatura_senza_nome_183-5)"/><path d="m315.71 270.58-96.42-21.28a14.2 14.2 0 0 0-11.55 2.49 61.47 61.47 0 0 0 7 63.71l77.08 17a61.47 61.47 0 0 0 33.15-55.16 14.25 14.25 0 0 0-9.26-6.76Z" style="fill:url(#Sfumatura_senza_nome_183-6)"/><path d="M324.94 277.36a14.25 14.25 0 0 0-9.23-6.78l-96.42-21.28a14.2 14.2 0 0 0-11.55 2.49 61.52 61.52 0 1 0 117.2 25.57Z" style="fill:url(#Sfumatura_senza_nome_12)"/><path style="fill:url(#Sfumatura_senza_nome_191)" d="m208.19 246.98 65.15-13.95-15 67.92-55.81-32.54 5.66-21.43z"/><path style="fill:url(#Sfumatura_senza_nome_179)" d="m262.82 242.35-10.54 47.74-7.13-4.09 9.25-41.87 8.42-1.78z"/><path style="fill:url(#Sfumatura_senza_nome_179-2)" d="m239.36 282.28 7.93-35.92-8.65 1.17-6.69 30.29 7.41 4.46z"/><path style="fill:url(#Sfumatura_senza_nome_179-3)" d="m225.75 274.77 5.67-25.68-6.78.61-4.83 21.88 5.94 3.19z"/><path style="fill:url(#Sfumatura_senza_nome_179-4)" d="m215.21 269.5 4.13-18.75-5.25 1.5-3.18 14.4 4.3 2.85z"/><path style="fill:url(#Sfumatura_senza_nome_191-2)" d="m326.56 273.11-53.22-40.08-15 67.92 64.32-6.01 3.9-21.83z"/><path style="fill:url(#Sfumatura_senza_nome_179-5)" d="m278.95 245.91-10.54 47.75 8.19-.72 9.24-41.86-6.89-5.17z"/><path style="fill:url(#Sfumatura_senza_nome_179-6)" d="m283.42 292 7.93-35.91 7.35 4.7-6.68 30.29-8.6.92z"/><path style="fill:url(#Sfumatura_senza_nome_179-7)" d="m298.93 290.93 5.67-25.68 5.89 3.4-4.84 21.88-6.72.4z"/><path style="fill:url(#Sfumatura_senza_nome_179-8)" d="m310.71 290.58 4.14-18.74 4.13 3.56-3.18 14.41-5.09.77z"/><path d="M254.09 320.78a14.37 14.37 0 0 0 17.14-10.94l-28.08-6.2a14.36 14.36 0 0 0 10.94 17.14Z" style="fill:#b4636d"/><path d="M309 296.24c-9.55 28.72-34.53 47-58.72 41.68s-39.12-32.43-35.71-62.48l-11.94-7a61.63 61.63 0 0 0 120.09 26.61Z" style="fill:#4e4d4d"/><path d="M230.38 220c1.17 6.7 8.7 12.78 26.09 9.75s38-14.05 36.88-20.74-16.21-9.66-33.6-6.62-30.53 10.95-29.37 17.61Z" style="opacity:.5;fill:url(#Sfumatura_senza_nome_683)"/><path d="M215.26 272.49c1.37-1.62 12-18.66 2.82-39.39S188.65 164 188.65 164s-6.94 34.31 5 52.32c-.18.4-13.38 34.63-7.72 45.29s22.25 19.39 29.33 10.88Z" style="fill:url(#Sfumatura_senza_nome_20)"/><path d="M202.21 225.54 178 196.94s-3.77 33 20.57 55.18c-.18.1 14.43-11.7 3.64-26.58Z" style="fill:url(#Sfumatura_senza_nome_23)"/><path d="m200.63 247.2-27.55-18.72s-1.53 31.91 25.65 44.62c-.16.14 14.35-15.58 1.9-25.9Z" style="fill:url(#Sfumatura_senza_nome_23-2)"/><ellipse cx="209.27" cy="257.32" rx="11.77" ry="6.57" transform="rotate(-79.24 209.284 257.316)" style="fill:url(#Sfumatura_senza_nome_2)"/><path d="M309.36 294.18c-.51-2.06-2.65-22 14.68-36.67s56.66-49.28 56.66-49.28-8.75 33.89-27.4 44.85c0 .44-3.09 37-12.84 44.12s-28.46 7.7-31.1-3.02Z" style="fill:url(#Sfumatura_senza_nome_20-2)"/><path d="m341.62 257.65 34.3-15.14s-11 31.34-42.61 40.65c.09.16-7.92-16.85 8.31-25.51Z" style="fill:url(#Sfumatura_senza_nome_23-3)"/><path d="m333.58 277.82 33-4.8S354 302.39 324 302c.05.15-6.13-20.33 9.58-24.18Z" style="fill:url(#Sfumatura_senza_nome_23-4)"/><ellipse cx="321.39" cy="283.15" rx="11.77" ry="6.57" transform="matrix(.26 -.97 .97 .26 -35.9 519.39)" style="fill:url(#Sfumatura_senza_nome_2-2)"/><circle cx="202.69" cy="432.22" r="1.81" style="opacity:.29"/><circle cx="210.54" cy="441.64" r="1.81" style="opacity:.29"/><circle cx="222.37" cy="448.76" r="1.81" style="opacity:.29"/><circle cx="307.53" cy="436.41" r="1.81" style="opacity:.29"/><circle cx="298.65" cy="444.86" r="1.81" style="opacity:.29"/><circle cx="286.08" cy="450.57" r="1.81" style="opacity:.29"/><circle cx="187.9" cy="321.81" r="3.82" style="fill:url(#Sfumatura_senza_nome_11)"/><circle cx="207.36" cy="324.7" r="3.82" style="fill:url(#Sfumatura_senza_nome_11-2)"/><circle cx="174.57" cy="325.66" r="3.82" style="fill:url(#Sfumatura_senza_nome_11-3)"/><circle cx="166.86" cy="333.56" r="3.82" style="fill:url(#Sfumatura_senza_nome_11-4)"/><path d="M161.35 322.55s-4.95 1.13-6.75-6.79c0 0 6.7-2.56 10.12-1.26 0 0-4.15-4.46-1-11.32.05.19 7.13 1.6 9.25 6.32a8.58 8.58 0 0 1 3.71-9.66c.85.79 7.11 2.54 6.33 8.17.15.46-2.49-6.47 6-10.48 0 0 8.28 4.36 5.45 10.21 0 0 1.39-7.6 7.1-9.94 0 0 2.2 7.54.59 10.65.59.15.66-6 7.86-5.94-.12.28 2.67 2.18 1.84 8.06-.19 0 .65-5.9 10-5.94 0 0 2.79 7.69-.49 11.56a8 8 0 0 1 6.48-3.56s.23 2.46-3.32 6.69c.44.52 3-3.5 9.08.32 0 0 1 4.28-4.66 7-.08-.32 6.47-1.25 8.47 4.08.52 0-.43 3.81-5.61 3.94a5.11 5.11 0 0 1 5.52 3.58c.13.71-1.26 1.53-6.13.64.06.16 2.73 5-4.67 9.11s-59.17 28.35-65.17-25.44Z" style="fill:url(#Sfumatura_senza_nome_3-40)"/><path d="M224.8 329.05c11.89 33.8-5.63 47.52-17.79 52.24s-44.38-16.81-56.12-47 62.02-39.05 73.91-5.24Z" style="fill:url(#Sfumatura_senza_nome_200)"/><path d="M150.52 333.21s-5.52-9.76 5.48-17.42c0-.33 19-12.67 67 9.33.19.24 4.91 7.1 5.46 15.05s-77.94-6.96-77.94-6.96Z" style="fill:url(#Sfumatura_senza_nome_336)"/><path d="M150.52 333.21s-2.79-12.93 16.34-13.51S223 326.12 228 340.12c.75 2.11 0 38-27.1 41.67-31.78 4.3-50.38-48.58-50.38-48.58Z" style="fill:url(#Sfumatura_senza_nome_17)"/><path d="m324.58 388-17.17-12.13a17.32 17.32 0 0 1 20-28.3l31.14 22a16.56 16.56 0 0 1 1.52 1.22 17.38 17.38 0 0 1 2.8 23.09l-22 31.13a17.38 17.38 0 0 1-24.15 4.15 17.38 17.38 0 0 1-4.16-24.16Z" style="fill:url(#Sfumatura_senza_nome_153-2)"/><path d="M314.72 398a27.52 27.52 0 0 0 30.76 22.86l1.27-.2a21.52 21.52 0 1 1-32-22.66Z" style="fill:#828282"/><ellipse cx="314.72" cy="411.48" rx="9.76" ry="13.52" transform="rotate(-21.45 314.648 411.425)" style="fill:#666"/><path d="M355.73 409.42s-.08 7.49-10.2 12.51-31.27-8.36-32.68-22.65S323 386.7 323 386.7s6.88 22.54 32.73 22.72Z" style="fill:url(#Sfumatura_senza_nome_207)"/><path d="M303 334.19c-6.53 1-11.19 16.71-7.86 29.36s12.35 24 18.74 22.31-6.74-12.65-10.07-25.3 5.09-27.25-.81-26.37Z" style="fill:#666"/><path d="M184.15 293.32a8.78 8.78 0 0 0-12.26-1.8l-14.84 11a8.79 8.79 0 0 0-1.79 12.26s37.49 57.86 45.19 60.26c17.35 5.42 27.76-23.7 27.76-23.7-.21-.34-44.06-58.02-44.06-58.02Z" style="fill:url(#Sfumatura_senza_nome_153-3)"/><path d="M161.92 328.67s-7-2.62-8.28-13.83 18.5-26.53 32.4-23 8.37 13.79 8.37 13.79-23.52-1.17-32.49 23.04Z" style="fill:url(#Sfumatura_senza_nome_207-2)"/><path d="M187.66 293.15a28.35 28.35 0 0 0-32.94 21.78c-.09.43-.18.86-.25 1.3a22.17 22.17 0 1 1 33.19-23.08Z" style="fill:#828282"/><path d="M187 531.12s7.52-44.34 12.93-50.67 40.56-1.8 45 3.65 1.06 47.25-4.08 50.14-53.85-3.12-53.85-3.12Z" style="fill:url(#Sfumatura_senza_nome_2-3)"/><path d="M196 522.12s6.52-29.4 10.27-33.78 28.1-1.25 31.19 2.53 1.54 31.25-.46 34.25c-2.27 3.4-41-3-41-3Z" style="fill:url(#Sfumatura_senza_nome_200-2)"/><path d="M188.16 522.08s11.5-12 28.5-11c16 .94 30.33 11.31 32 18 2 8-1 23-30.42 24.13-34.3 1.36-37.07-16.89-30.08-31.13Z" style="fill:url(#Sfumatura_senza_nome_179-9)"/><path d="M335.79 315.66s4.79-1.68 2.11-9.34c0 0-7 1.38-9.25 4.3 0 0 1.15-6-5.14-10.12.05.18-5.2 5.14-4.48 10.26a8.61 8.61 0 0 0-8.28-6.22c-.3 1.13-4.68 5.94-1 10.29.12.47-1.32-6.8-10.61-5.71 0 0-4.7 8.09.8 11.54 0 0-5.21-5.7-11.3-4.65 0 0 2.15 7.56 5.17 9.34-.43.44-3.74-4.72-9.82-.86.25.18-1.1 3.26 2.73 7.81.15-.11-3.68-4.65-11.64.27 0 0 1.72 8 6.56 9.54 0 0-3.88-1.87-7.38.42 0 0 1.11 2.21 6.37 3.91-.1.67-4.41-1.37-7.52 5.1 0 0 1.44 4.14 7.64 3.42-.1-.32-6.15 2.38-5 8-.44.28 2.39 3 6.84.35a5.11 5.11 0 0 0-2.77 6c.27.68 1.88.63 5.54-2.71 0 .17.33 5.67 8.79 5.24s65.12-7.42 41.64-56.18Z" style="fill:url(#Sfumatura_senza_nome_3-41)"/><path d="M310.82 316.22c-32.22 15.66-29.41 37.74-24.09 49.65s43.37 19.26 73 6-16.67-71.33-48.91-55.65Z" style="fill:url(#Sfumatura_senza_nome_200-3)"/><path d="M347.08 365s-2.87-17.15-24.91-28.11-33.86-2.35-33.86-2.35-2.63 3.17-4.28 10.65c-.21-.27 7.19 41.49 63.05 19.81Z" style="fill:url(#Sfumatura_senza_nome_200-4)"/><path d="M284 345.21c1.51 5.09 3.44 8.56 9.39 14.23 13 12.41 46.14 9.76 62 2.69 11.61-5.19 11.95-12.93 10.4-17.68 5.44 11.29 5 22.51-6.09 27.45-29.6 13.23-67.65 5.88-73-6a34.65 34.65 0 0 1-2.7-20.69Z" style="fill:url(#Sfumatura_senza_nome_336-2)"/><path d="M364.71 354.7s-3.91-19.24-23.64-35.93c-.33-.32 16.87 8.07 24.72 25.68-.21-.57 2.48 5.49-1.08 10.25Z" style="fill:#f1f1f1"/><ellipse cx="327.33" cy="330.95" rx="15.33" ry="24.64" transform="rotate(-77.68 327.304 330.948)" style="opacity:.5;fill:url(#Sfumatura_senza_nome_683-2)"/><path d="M217 507.6c-8.67 16.56-31.05 29.58-31.66 29.67 8 22 31.66 25 31.66 25Z" style="fill:url(#Sfumatura_senza_nome_18)"/><path d="M217 507.6c8.67 16.56 31.05 29.58 31.66 29.67-8 22-31.66 25-31.66 25Z" style="fill:url(#Sfumatura_senza_nome_41)"/><path d="M325 532.12s-7.52-44.34-12.93-50.67-40.56-1.8-45 3.65-1.06 47.25 4.08 50.14 53.85-3.12 53.85-3.12Z" style="fill:url(#Sfumatura_senza_nome_2-4)"/><path d="M316 523.12s-6.52-29.4-10.27-33.78-28.1-1.25-31.19 2.53-1.54 31.25.46 34.25c2.27 3.4 41-3 41-3Z" style="fill:url(#Sfumatura_senza_nome_200-5)"/><path d="M323.84 523.08s-11.5-12-28.5-11c-16 .94-30.33 11.31-32 18-2 8 1 23 30.42 24.13 34.3 1.36 37.07-16.89 30.08-31.13Z" style="fill:url(#Sfumatura_senza_nome_179-10)"/><path d="M295 508.6c8.67 16.56 31.05 29.58 31.66 29.67-8 22-31.66 25-31.66 25Z" style="fill:url(#Sfumatura_senza_nome_41-2)"/><path d="M295 508.6c-8.67 16.56-31.05 29.58-31.66 29.67 8 22 31.66 25 31.66 25Z" style="fill:url(#Sfumatura_senza_nome_18-2)"/><rect x="153" y="267.94" width="20.65" height="60.31" rx="7" style="fill:url(#Sfumatura_senza_nome_361)"/><path d="M181.24 142.78s-11.56-56.66-17.91-56.66-17.15 56.66-17.15 56.66l2.7 114.88h29.66Z" style="fill:url(#Sfumatura_senza_nome_60)"/><path d="M163.33 86.12v171.54h15.21l2.7-114.88s-11.56-56.65-17.91-56.66Z" style="fill:url(#Sfumatura_senza_nome_97)"/><path d="M163.33 281.39c16 0 29-10.62 29-23.73H134.3c0 13.11 13 23.73 29.03 23.73Z" style="fill:url(#Sfumatura_senza_nome_18-3)"/><ellipse cx="163.33" cy="269.31" rx="5.96" ry="7.14" style="fill:url(#Sfumatura_senza_nome_4-2)"/><path d="M173.66 324.47a10.33 10.33 0 1 1-20.66 0c0-5.7 0-.88 10.33-.88s10.33-4.82 10.33.88Z" style="fill:url(#Sfumatura_senza_nome_18-4)"/><ellipse cx="174.54" cy="290.93" rx="13.51" ry="9.75" transform="rotate(-41.66 174.51 290.914)" style="fill:#666"/><path d="M230 340.12c5.53 4.43 1.34 21.53-8.58 31.45S197 387.13 192 382.12s13.08-8.08 23-18 10-28 15-24Z" style="fill:url(#Sfumatura_senza_nome_212)"/><path style="fill:url(#Sfumatura_senza_nome_200-6)" d="m256.01 466.03-16.39-10.1-.41-7.17 16.8-12.35 18.51 11.71v7.81l-18.51 10.1z"/><path style="fill:url(#Sfumatura_senza_nome_207-3)" d="m239.21 448.76.79-7.64 16.17-12.36 18.35 13.65v5.71l-18.51-11.71-16.8 12.35z"/><path style="fill:url(#Sfumatura_senza_nome_69)" d="m159.7 575.85 28.8-41.97 6.39 32.24 136.11.23-2.6-32.47 22.6 41.24 6 39-184 .23-13.3-38.5z"/><path style="fill:url(#Sfumatura_senza_nome_381)" d="m188.5 533.88 6.39 32.24 136.11.23-2.6-32.47H188.5z"/><path style="fill:url(#Sfumatura_senza_nome_135)" d="m173 614.35 21.89-48.23-6.39-32.24-28.8 41.97 13.3 38.5z"/><path style="fill:url(#Sfumatura_senza_nome_143)" d="m224.18 545.64 1.32 6.36h70.49l2.66-6.36h-74.47z"/><path style="fill:url(#Sfumatura_senza_nome_135-2)" d="m192 605.12 12-30 120 2 14.24 28H192z"/><path style="fill:url(#Sfumatura_senza_nome_143-2)" d="m175 599.12 13.5-31.46-3.5-21.54-17 28 7 25z"/><path style="fill:url(#Sfumatura_senza_nome_135-3)" d="m178.02 592.08-3.7-16.96 11.84-21.84-1.16-7.16-17 28 7 25 3.02-7.04z"/><path style="fill:url(#Sfumatura_senza_nome_143-3)" d="M194.89 597.89h139.67L324 575.12H204l-9.11 22.77z"/><path style="fill:url(#Sfumatura_senza_nome_125)" d="m149 622.12 20.83-20.77 28.53 19.9-49.36.87z"/><path style="fill:url(#Sfumatura_senza_nome_125-2)" d="m127 628.6 23.1-18.48 14.9 17.81-38 .67z"/></g></g></g><script>(()=&gt;{let e=document.getElementById(&quot;slide2_cavaliere_mantello&quot;);e.style.transformOrigin=&quot;274px 28px&quot;,e.style.transformBox=&quot;fill-box&quot;;let t=()=&gt;{e.animate([{transform:&quot;rotateX(0deg) rotateY(0) skew(0)&quot;},{transform:&quot;rotateX(16deg) rotateY(10deg) skew(-5deg)&quot;,offset:.3},{transform:&quot;rotateX(16deg) rotateY(0) skew(-5deg)&quot;},{transform:&quot;rotateX(16deg) rotateY(10deg) skew(-5deg)&quot;},{transform:&quot;rotateX(16deg) rotateY(0) skew(-5deg)&quot;},{transform:&quot;rotateX(16deg) rotateY(10deg) skew(-5deg)&quot;},{transform:&quot;rotateX(16deg) rotateY(-2deg) skew(-5deg)&quot;},{transform:&quot;rotateX(0deg) rotateY(0) skew(0)&quot;}],{duration:8e3,iterations:1,easing:&quot;ease-in-out&quot;}),setTimeout(t,8e3+parseInt(6e3*Math.random()))};t()})();</script></svg>