<svg xmlns="http://www.w3.org/2000/svg" viewBox="0 0 2557.9 1780.3" xml:space="preserve"><linearGradient id="a" gradientUnits="userSpaceOnUse" x1="5098.48" y1="1301.109" x2="5098.48" y2="221.109" gradientTransform="matrix(1 0 0 -1 -3966.528 1661.598)"><stop offset=".004" style="stop-color:#a6bacc"/><stop offset=".585" style="stop-color:#ddb0c5"/><stop offset="1" style="stop-color:#ffaac1"/></linearGradient><path fill="url('#a')" d="M172 360.5h1920v1080H172z"/><path fill="#FFF995" d="m866.1 770.8 10.3 10 14-2.7-6.4 12.8 7 12.5-14.2-2.1-9.7 10.5-2.4-14.1-13-6.1 12.7-6.6zM1638.5 663.2l10.2 10 14-2.8-6.3 12.8 6.9 12.5-14.1-2-9.8 10.4-2.4-14.1-12.9-6 12.7-6.6zM1916.4 847.4l6.5 6.4 9-1.7-4.1 8.2 4.4 7.9-9-1.3-6.2 6.7-1.5-9-8.3-3.9 8.1-4.2zM966.3 676.9l9 20.6 22.1 4.2-16.8 14.9 2.7 22.4-19.4-11.4-20.3 9.5 4.8-21.9-15.4-16.5 22.4-2.2zM1080.4 958.5l9.2 8.7 12.5-2.6-5.5 11.5 6.4 11-12.6-1.7-8.5 9.5-2.4-12.5-11.6-5.2 11.2-6zM600.1 860.4l.5 12.7 10.7 6.9-11.9 4.3-3.2 12.3-7.9-10-12.6.8 7.1-10.6-4.7-11.8 12.2 3.5zM1770.7 778.9l.8 23.1 19.4 12.4-21.6 7.9-5.8 22.3-14.2-18.2-23 1.4 12.9-19.1-8.5-21.4 22.2 6.3zM1247.3 642.7c-19.1 0-37 5.2-52.3 14.4 6.3-1.9 12.9-2.9 19.8-2.9 38.6 0 69.8 31.3 69.8 69.8 0 38.6-31.3 69.8-69.8 69.8-35.3 0-64.5-26.3-69.2-60.3-.4 3.8-.6 7.6-.6 11.5 0 56.5 45.8 102.4 102.4 102.4 56.5 0 102.4-45.8 102.4-102.4-.1-56.5-46-102.3-102.5-102.3z"/><path fill="#5C5973" d="m1663.9 1138 20-49.6 16-35 31-28 44-55 41-21 33 1 27 36 39 26 72.8-54.1 55.2-14.9 57-37 47 15 24 35 60.3 45.3 39.7 51.7 77-27 21-59 50-19v722l-755 10.6z"/><path fill="#5C5973" d="m1691.9 1076.9 39-33.5 18.9-23.6 25.9-15.4 27.3-8 15.9 11 6.8 29.2 11.2 10.8 12.8-10.8 7.2-27.2h7l18 20 7 26 11 10-6-17 1-13 5 15.2 12 21.8 39 20-20.1-21.2-5-26.8 18.1 24 29 18-18-30 7-38 30.1-22 33.8-11 21.2-5-21.7 16-32.4 15 43-3 39.4-17 25.3-21-10.6 26 6.9 19 32-35 77 2 25 19 188 236v474l-394 2h-244l10-246-109-264.2z"/><path fill="#A4A6C2" d="m1875.9 986.4-27-36-33-1-41 21-44 55-58 52.2 57-42.2 18-24 29.6-33-5 13 18.4-7.6 19-4.4-7-3-10-1 12.2-5h15.2l3.6-6-6-8 22-1 17 11zM1914.9 1012.4l11 13 13 7-10-13 4-14 44-29 28-12-25 18-17.5 26 35.5-30 33-16 24-6 16-20 28-11 22 13-10-15-12-6 10-3 25.1 2.9-34.1-10.9-57 37-55.2 14.9z"/><path fill="#7C7C92" d="m1059.2 1201.8 118.5-74.8 40.7-46.3 50.4-37.8 21.4-26.7 40.4-7.7 21.5 17.2 38.6 29.2 54.1-83.3 12-5.2 47.3-77.3 42.9-7.7 28.4 9.4 62.7 63.6 102.8 172 50 81.4-8.5 189.8-564.3 16.3z"/><path fill="#6D6A83" d="m498.9 1422.9 560.3-221.1 129.2-54.2 48.6-59.2-18.9 48.1 52.3-48.1 31-12 10.3-41.3 18.9-17.1 44 93.6-22.5-85.9 38.6 29.2 67.9 68.7 25.7 59.3-11.1-68.7-39.5-40.4 13.7-44.7 26.6-17.2 19.8 9.5 5.1-49.8 19.8-32.7h14l12.6-24h16.1l28.6 37.8 22.3 46.4-6-63.6-15.7-29.2 47.5 48.1 152.8 253.4-8.5 189.8-1283.5 313.8z"/><path fill="#5C5973" d="m1813.9 1711.4 180-198-271.3-422.9-82.1-132 23.3 93-16.3 20.6-7-49.9-8.4 31.8-40.4-54.9-37.8-18.1-12.9-10.3-21.5 1.7-6.8 31 6.8 53.2 13.8 24.1 43.8 11.1 22.3 30.1-35.2-24.9-34.4-1.7-17.1-13.6-19.8-26-24 5.2 12.9 30.9 16.3 17.2 6 80.7-8.6 30.1-11.2-36.9-25.7-59.3-76.1-74.9 24.5 154.8-75.5-128-19 54.1-82.4 24.1-28.3 56.6v-51.4l-31 28.3-111.9 15.2-560 220.5v288.5z"/><path fill="#7C7C92" d="m216.4 870.3 50 19 51 3 56 16 31 15 64 52 82 49 9 19 99.5 46.8-442.5 257.8z"/><path fill="#6D6A83" d="M216.4 1378.5V938.3l53.3 15.3 8-24.3 62.5 6 55.7 33.5h-55.7l97.8 36.3 42.2 38.2 21.1 41.9 5.1-47.9 20 25 53 13h61l148 207-357 182z"/><path fill="#A4A6C2" d="m216.4 870.3 50 19 51 3 56 16 31 15 64 52 82 49-73-32 17 23-40-32-42.5-29-20.7-24-54.5-22-30.9-8-38.4 5-51-1.7zM480.2 1185.4l86.8-78.1 85.8-52.4 78.2-41.2 85-8.6 79 71.3 74.8 30.9 100.4 32.6 33.5 1.7 18.9 24.1 65.5 19.7 35.9 39.6-87.6 102.2-593.5 8.5z"/><path fill="#6D6A83" d="m216.4 1335.3 350.6-228 85.8-52.4 78.2-41.2 85-8.6-42.9 16.3 19.7 4.3-18.9 24.9-39.5 3.4-86.3 41.3 102.7-29.2 41.2-.9 51.5 18 32.6 14.6-45.5 7.8-48.1 32.6 54.1-26.6 23.2-2.6-17.1 17.2-17.2 12 33.5-10.3 28.3-6 44.7 8.6 49.8 35.2 57.5-11.2 44.7 8.6-18.9 9.5-87.6 40.3-33.5 40.4 46.4-23.2 70.4-23.2 61.8 18.9 101.4-.8 912.4 408.3h-1920z"/><path fill="#5C5973" d="M216.4 1633.3v-590l44 8 41-19 48-13 34 10.2v28.5l21-9.1 26 10.4v43l-63 42-57.9 52.5 105.9-50.5 87 3-202 126-44 67 37.2-23.1 115.8-57.9 99.1-30.6 50.9 5.6-9 29.7-102.2 60.3-50.8 76-9.5 68.3 39.5-70.3 52.8-51.3 58.7-22.7 88.9-7.1 56.6-52.9 64-30 49.9-5.6 58-15.1h44.4l-39.8 15.1-47.5 39.6-25 48.9 63.7-13.4 69.3 1.1-77 54.6-63 44.8-43 48-67 53-29 88 57-68 84-49 96.8-14-63.8 55-17 67 61.5-17.9 110.5-53.4 64-35.3 112.2 5.7 110.8 69.9 99.3 78z"/><linearGradient id="b" gradientUnits="userSpaceOnUse" x1="-65.708" y1="100.383" x2="2623.603" y2="1653.058" gradientTransform="matrix(1 0 0 -1 0 1766.868)"><stop offset=".117" style="stop-color:#304053"/><stop offset=".43" style="stop-color:#364b5e"/><stop offset="1" style="stop-color:#446378"/></linearGradient><path fill="url('#b')" d="M0 0v1780.3h2557.9V0H0zm1727.4 1127.8c-92.7 54.1-74.2-67.3-94.7-70-20.5-2.7-3.7 93-42.3 99.8-38.6 6.8-24-178.4-55.2-180.5s-21.3 208.4-69.2 214.4-334.2 33.4-414 18.7c-79.8-14.7-47.6-153.6-71.5-152.5s-11.9 142.2-39.3 140.5c-27.5-1.7-9.1-72-39.7-78.8-30.7-6.8-4.9 82.8-54.9 83-238.3.9-142.8-208.7-183.6-211.8-38-2.9-75 209.5-119 201.4-44-8.2 32.5-200.9 11.3-206-21.2-5.1-72 208.8-92.4 210.2s-107.2-481.6 47.4-507c53.7-8.8 53.5-107 103.1-80.4 49.6 26.6 28.3 187.6 47.7 189.6 19.4 2 33.1-121 53.6-121s5 55.2 27.4 56.9c22.4 1.7 19.6-107.7 48.8-116.4 29.2-8.7 182.4-45.8 240-31.2 57.6 14.6 38.1 116.9 58.1 120.9s17.9-109.2 61.8-120.9c44-11.7 128.3-52.9 178.4-22.1 50 30.9 30.8 121.7 54.1 124.6s9.3-103.5 56.3-102.5 28.3 79.2 49.4 82c21 2.8 14.7-92.1 33-93.9 18.3-1.8 254.1 18.6 205.2 107.6-35.2 64 8.5 47.4 15.8 64s77.1 327.3-15.6 381.4zm234-108c-40.5 60.5-7.6 111-55.6 123.8S1849 1042.8 1838 922c-16.9-184.4 6.7-222 31.3-224.9 24.6-2.9 24.2-42.5 55.9-32.7 31.7 9.9 76.7 294.9 36.2 355.4z"/></svg>