<svg xmlns="http://www.w3.org/2000/svg" xmlns:xlink="http://www.w3.org/1999/xlink" viewBox="0 0 963.29 453.67"><defs><linearGradient id="a" data-name="Sfumatura senza nome 125" x1="467.69" y1="-7.26" x2="538.05" y2="436.94" gradientUnits="userSpaceOnUse"><stop offset="0" stop-color="#53737e"/><stop offset=".65" stop-color="#7699a9"/><stop offset="1" stop-color="#8bafc2"/></linearGradient><linearGradient id="b" x1="203.82" y1="364.65" x2="432.43" y2="364.65" xlink:href="#a"/><linearGradient id="c" x1="425.47" y1="374.17" x2="560.29" y2="374.17" xlink:href="#a"/><linearGradient id="d" x1="316.44" y1="206.73" x2="314.09" y2="341.82" xlink:href="#a"/><linearGradient id="e" x1="294.31" y1="289.54" x2="540.51" y2="289.54" xlink:href="#a"/><linearGradient id="f" x1="129.45" y1="154.72" x2="275.26" y2="154.72" xlink:href="#a"/><linearGradient id="g" x1="275.26" y1="221.95" x2="425.47" y2="221.95" xlink:href="#a"/><linearGradient id="h" x1="644.55" y1="305.86" x2="805.65" y2="305.86" xlink:href="#a"/><linearGradient id="i" x1="590.33" y1="305.86" x2="670.93" y2="305.86" xlink:href="#a"/><linearGradient id="j" x1="670.93" y1="198.32" x2="805.65" y2="198.32" xlink:href="#a"/><linearGradient id="k" x1="590.33" y1="203.81" x2="689.98" y2="203.81" xlink:href="#a"/><linearGradient id="l" x1="511.21" y1="82.7" x2="584.8" y2="401.45" xlink:href="#a"/><linearGradient id="m" x1="443.07" y1="246.82" x2="484.14" y2="424.69" xlink:href="#a"/><linearGradient id="n" x1="556.72" y1="283.03" x2="584.1" y2="401.62" xlink:href="#a"/><linearGradient id="o" x1="570.15" y1="162.94" x2="606.25" y2="319.32" xlink:href="#a"/><linearGradient id="p" x1="367.81" y1="115.8" x2="403.2" y2="269.09" xlink:href="#a"/><linearGradient id="q" data-name="Sfumatura senza nome 136" x1="475.3" y1="-10.32" x2="488.26" y2="175" gradientUnits="userSpaceOnUse"><stop offset="0" stop-color="#8bafc2"/><stop offset="1" stop-color="#8bafc2"/></linearGradient><linearGradient id="r" x1="565.93" y1="-.3" x2="580.9" y2="43.18" xlink:href="#a"/><linearGradient id="s" x1="551.7" y1="29.21" x2="557.25" y2="45.33" xlink:href="#a"/><linearGradient id="t" x1="605.57" y1="29.9" x2="613.32" y2="52.43" xlink:href="#a"/><linearGradient id="u" x1="343.27" y1="681.5" x2="348.47" y2="696.6" gradientTransform="rotate(12.32 3512.14 1183.755)" xlink:href="#a"/><linearGradient id="v" x1="338.93" y1="30.7" x2="353.9" y2="74.18" xlink:href="#a"/><linearGradient id="w" x1="324.7" y1="60.21" x2="330.25" y2="76.33" xlink:href="#a"/><linearGradient id="x" x1="378.57" y1="60.9" x2="386.32" y2="83.43" xlink:href="#a"/><linearGradient id="y" x1="128.11" y1="760.24" x2="133.31" y2="775.34" gradientTransform="rotate(12.32 3512.14 1183.755)" xlink:href="#a"/><linearGradient id="z" x1="816.93" y1="70.7" x2="831.9" y2="114.18" xlink:href="#a"/><linearGradient id="A" x1="802.7" y1="100.21" x2="808.25" y2="116.33" xlink:href="#a"/><linearGradient id="B" x1="856.57" y1="100.9" x2="864.32" y2="123.43" xlink:href="#a"/><linearGradient id="C" x1="603.64" y1="697.29" x2="608.84" y2="712.39" gradientTransform="rotate(12.32 3512.14 1183.755)" xlink:href="#a"/><linearGradient id="D" x1="102.81" y1="27.19" x2="120.88" y2="79.65" xlink:href="#a"/><linearGradient id="E" x1="85.38" y1="62.45" x2="92.07" y2="81.9" xlink:href="#a"/><linearGradient id="F" x1="151.15" y1="63.19" x2="160.52" y2="90.43" xlink:href="#a"/><linearGradient id="G" x1="-111.79" y1="812.76" x2="-105.6" y2="830.72" gradientTransform="rotate(12.32 3512.14 1183.755)" xlink:href="#a"/><linearGradient id="H" x1="619.82" y1="55.63" x2="635.46" y2="101.06" xlink:href="#a"/><linearGradient id="I" x1="605.44" y1="87.11" x2="611.25" y2="103.97" xlink:href="#a"/><linearGradient id="J" x1="660.31" y1="88.01" x2="668.38" y2="111.46" xlink:href="#a"/><linearGradient id="K" x1="407.36" y1="725.46" x2="412.95" y2="741.7" gradientTransform="rotate(12.32 3512.14 1183.755)" xlink:href="#a"/><linearGradient id="L" x1="696" y1="-173.7" x2="737.76" y2="-173.7" gradientTransform="rotate(-12.31 1975.563 990.715)" xlink:href="#a"/><linearGradient id="M" x1="497.64" y1="137.96" x2="558.04" y2="124.78" xlink:href="#a"/><linearGradient id="N" x1="667.74" y1="129.54" x2="712.32" y2="119.81" xlink:href="#a"/><linearGradient id="O" x1="690.62" y1="75.78" x2="719.76" y2="69.42" xlink:href="#a"/><linearGradient id="P" x1="665.62" y1="65.78" x2="694.76" y2="59.42" xlink:href="#a"/><linearGradient id="Q" x1="607.38" y1="120.82" x2="638.39" y2="114.06" xlink:href="#a"/><linearGradient id="R" x1="647.9" y1="136.85" x2="688" y2="128.1" xlink:href="#a"/><linearGradient id="S" x1="189.74" y1="31.54" x2="234.32" y2="21.81" xlink:href="#a"/><linearGradient id="T" x1="129.38" y1="22.82" x2="160.39" y2="16.06" xlink:href="#a"/><linearGradient id="U" x1="169.9" y1="38.85" x2="210" y2="30.1" xlink:href="#a"/><linearGradient id="V" x1="301.05" y1="131.48" x2="324.92" y2="126.27" xlink:href="#a"/><linearGradient id="W" x1="319.43" y1="136.72" x2="355.28" y2="128.9" xlink:href="#a"/><linearGradient id="X" x1="794.98" y1="50.35" x2="822.78" y2="44.28" xlink:href="#a"/><linearGradient id="Y" x1="788.03" y1="68.67" x2="804.55" y2="65.07" xlink:href="#a"/><linearGradient id="Z" x1="895.89" y1="100.89" x2="914.43" y2="96.85" xlink:href="#a"/><linearGradient id="aa" x1="884.19" y1="105.74" x2="908.84" y2="100.36" xlink:href="#a"/><linearGradient id="ab" x1="785.22" y1="111.96" x2="811.1" y2="106.31" xlink:href="#a"/><linearGradient id="ac" x1="88.76" y1="73.7" x2="111.84" y2="68.66" xlink:href="#a"/><linearGradient id="ad" x1="46.12" y1="56.45" x2="66.17" y2="52.08" xlink:href="#a"/><linearGradient id="ae" x1="252.14" y1="85" x2="268.23" y2="81.49" xlink:href="#a"/></defs><g data-name="Livello 2"><g data-name="Livello 24"><path style="fill:url(#a)" d="M432.43 453.67 203.82 275.62 4.58 66.09l956.13 42.09-316.16 265.26-45.06-40.67-167.06 120.9z"/><path style="fill:url(#b)" d="m203.82 275.62 221.65 68.14 6.96 109.91-228.61-178.05z"/><path style="fill:url(#c)" d="m540.51 294.67-115.04 49.09 6.96 109.91 127.86-92.32-19.78-66.68z"/><path style="fill:url(#d)" d="m294.31 261.7 131.16 82.06-221.65-68.14 71.44-69.61 19.05 55.69z"/><path style="fill:url(#e)" d="M425.47 235.32 294.31 261.7l131.16 82.06 115.04-49.09-115.04-59.35z"/><path style="fill:url(#f)" d="M275.26 206.01 129.45 33.82l74.37 241.8 71.44-69.61z"/><path style="fill:url(#g)" d="m425.47 235.32-58.62-53.12-91.59 23.81 19.05 55.69 131.16-26.38z"/><path style="fill:url(#h)" d="m644.55 373.44 26.38-97.82 134.72-37.34-161.1 135.16z"/><path style="fill:url(#i)" d="m590.33 323.25 54.22 50.19 26.38-97.82-67.41-37.34-13.19 84.97z"/><path style="fill:url(#j)" d="m805.65 238.28-26.28-117.26-89.39 72.54-19.05 82.06 134.72-37.34z"/><path style="fill:url(#k)" d="m603.52 238.28-13.19-106.27 99.65 61.55-19.05 82.06-67.41-37.34z"/><path style="fill:url(#l)" d="m275.26 137.17 257.92 276.2 239.8-273.32-497.72-2.88z"/><path style="fill:url(#m)" d="m492.88 235.32 40.3 178.05-138.31-148.12 98.01-29.93z"/><path style="fill:url(#n)" d="m618.1 316.58-111.79-21.91 26.87 118.7 84.92-96.79z"/><path style="fill:url(#o)" d="m682.83 242.8-77.11-88.08-112.84 80.6 13.43 59.35 111.79 21.91 64.73-73.78z"/><path style="fill:url(#p)" d="m275.26 137.17 99.65 138.45 117.97-40.3-60.45-97.24-157.17-.91z"/><path d="M852.5 74.77c12.62-5.39 19.41-11.13 19.41-17.07C871.91 25.83 676.73 0 436 0S0 25.83 0 57.7c0 26.76 137.64 49.3 324.34 55.78-31.5 5.71-50.17 12.8-50.17 20.49 0 18.86 112.55 34.16 251.39 34.16S777 152.83 777 134c102.9 0 186.33-13.85 186.33-30.93-.04-12.64-45.56-23.49-110.83-28.3Z" style="fill:url(#q)"/><path d="M548.54 27.45c-16-8.15-32.86-17-5.56-16.71s58 1.13 65.18 7.73 18.67 13.34.13 13.34-48.5 1.38-59.75-4.36Z" style="fill:url(#r)"/><path d="M550.56 32.56c20.89.32 26.87 3.93 21.8 7.2s-15.82 3.45-26.45 3.08-20.08-10.65 4.65-10.28Z" style="fill:url(#s)"/><path d="M587.39 36.2c8-2.37 30.15-.87 45-.67S648 47.76 607.65 48.48 574.49 40 587.39 36.2Z" style="fill:url(#t)"/><path d="M522.65 19.38c8.46 1.88 21.48 9 17.1 10.62a41.3 41.3 0 0 1-19.44 2.1c-8.31-1.04-24.11-18.62 2.34-12.72Z" style="fill:url(#u)"/><path d="M321.54 58.45c-16-8.15-32.86-17-5.56-16.71s58 1.13 65.18 7.73 18.67 13.34.13 13.34-48.5 1.38-59.75-4.36Z" style="fill:url(#v)"/><path d="M323.56 63.56c20.89.32 26.87 3.93 21.8 7.2s-15.82 3.45-26.45 3.08-20.08-10.65 4.65-10.28Z" style="fill:url(#w)"/><path d="M360.39 67.2c8-2.37 30.15-.87 45-.67s15.61 12.23-24.76 13S347.49 71 360.39 67.2Z" style="fill:url(#x)"/><path d="M295.65 50.38c8.46 1.88 21.48 9 17.1 10.62a41.3 41.3 0 0 1-19.44 2.1c-8.31-1.04-24.11-18.62 2.34-12.72Z" style="fill:url(#y)"/><path d="M799.54 98.45c-16-8.15-32.86-17-5.56-16.71s58 1.13 65.18 7.73 18.67 13.34.13 13.34-48.5 1.38-59.75-4.36Z" style="fill:url(#z)"/><path d="M801.56 103.56c20.89.32 26.87 3.93 21.8 7.2s-15.82 3.45-26.45 3.08-20.08-10.65 4.65-10.28Z" style="fill:url(#A)"/><path d="M838.39 107.2c8-2.37 30.15-.87 45-.67s15.61 12.23-24.76 13-33.14-8.53-20.24-12.33Z" style="fill:url(#B)"/><path d="M773.65 90.38c8.46 1.88 21.48 9 17.1 10.62a41.3 41.3 0 0 1-19.44 2.1c-8.31-1.04-24.11-18.62 2.34-12.72Z" style="fill:url(#C)"/><path d="M81.48 60.55C62 50.88 41.37 40.38 74.7 40.74s70.86 1.33 79.56 9.16 22.79 15.81.16 15.81-59.2 1.64-72.94-5.16Z" style="fill:url(#D)"/><path d="M84 66.6c25.5.38 32.8 4.66 26.61 8.54s-19.31 4.08-32.28 3.65S53.77 66.17 84 66.6Z" style="fill:url(#E)"/><path d="M128.91 70.92c9.73-2.81 36.8-1 55-.79s19 14.49-30.22 15.35-40.53-10.02-24.78-14.56Z" style="fill:url(#F)"/><path d="M49.88 51c10.33 2.23 26.23 10.66 20.88 12.59A52 52 0 0 1 47 66.06C36.93 64.83 17.6 44 49.88 51Z" style="fill:url(#G)"/><path d="M602.3 84.87C586 76 568.82 66.41 596.64 66.74s59.15 1.22 66.41 8.39 19 14.47.12 14.47-49.4 1.5-60.87-4.73Z" style="fill:url(#H)"/><path d="M604.36 90.42c21.28.34 27.38 4.26 22.21 7.81s-16.11 3.74-26.94 3.34-20.46-11.57 4.73-11.15Z" style="fill:url(#I)"/><path d="M641.88 94.37c8.13-2.57 30.72-1 45.88-.73s15.9 13.27-25.23 14-33.79-9.12-20.65-13.27Z" style="fill:url(#J)"/><path d="M575.93 76.11c8.62 2 21.88 9.76 17.42 11.53a39.91 39.91 0 0 1-19.81 2.28c-8.42-1.13-24.54-20.2 2.39-13.81Z" style="fill:url(#K)"/><path style="fill:url(#L)" d="m477.62 127.94 18.78-17.03 23.83 16.4-42.61.63z"/><path style="fill:url(#M)" d="M498.93 143.87 530 110.91l32.21 32.96h-63.28z"/><path style="fill:url(#N)" d="m667.39 127.94 7.69-8.52 23.08-3.03 15.94 11.55h-46.71z"/><path style="fill:url(#O)" d="m690.39 74.74 5.03-5.57 15.08-1.98 10.42 7.55h-30.53z"/><path style="fill:url(#P)" d="m665.39 64.74 5.03-5.57 15.08-1.98 10.42 7.55h-30.53z"/><path style="fill:url(#Q)" d="m607.67 122.17 6.23-11.26h15.39l10.87 11.26h-32.49z"/><path style="fill:url(#R)" d="m647.97 137.17 13.19-12.72h19.05l9.77 12.72h-42.01z"/><path style="fill:url(#S)" d="m189.39 29.94 7.69-8.52 23.08-3.03 15.94 11.55h-46.71z"/><path style="fill:url(#T)" d="m129.67 24.17 6.23-11.27h15.39l10.87 11.27h-32.49z"/><path style="fill:url(#U)" d="m169.97 39.17 13.19-12.72h19.05l9.77 12.72h-42.01z"/><path style="fill:url(#V)" d="m301.12 131.78 3.57-6.87h15.39l6.04 6.87h-25z"/><path d="m319.53 137.17 8.52-12.26h18.68s12.09 14 10.44 13.46-37.64-1.2-37.64-1.2Z" style="fill:url(#W)"/><path style="fill:url(#X)" d="m794.88 49.9 10.44-7.7h9.62l9.07 7.7h-29.13z"/><path style="fill:url(#Y)" d="m788.01 68.58 6.87-5.08h4.95l5.49 5.08h-17.31z"/><path style="fill:url(#Z)" d="m896 101.37 6.22-6.59h7.51l5.68 6.59H896z"/><path style="fill:url(#aa)" d="m884.27 106.13 3.12-7.14h15.93l6.78 7.14h-25.83z"/><path style="fill:url(#ab)" d="m784.99 110.91 9.89-5.88 17.22 5.88h-27.11z"/><path style="fill:url(#ac)" d="m88.72 73.53 7.7-6.6 16.48 6.6H88.72z"/><path d="m46.13 56.49 4.95-5.77h6.32s10.71 5 9.62 5.77-20.89 0-20.89 0Z" style="fill:url(#ad)"/><path style="fill:url(#ae)" d="m251.94 84.06 5.12-2.84 11.73 2.84h-16.85z"/></g></g></svg>