<svg xmlns="http://www.w3.org/2000/svg" viewBox="0 0 2214 1245.37"><defs><linearGradient id="a" data-name="Sfumatura senza nome 263" x1="-69.12" y1="436.41" x2="2283.12" y2="808.97" gradientUnits="userSpaceOnUse"><stop offset="0" stop-color="#425f72"/><stop offset=".21" stop-color="#4c6a7d"/><stop offset=".59" stop-color="#68889b"/><stop offset="1" stop-color="#8bafc2"/></linearGradient></defs><g data-name="Livello 2"><path d="M0 0v1245.37h2214V0Zm1763.64 1002c-72.48 13.4-69.61-94.47-97.5-91.89s-9.22 152.15-62.13 152.58-43.78-88.9-68.58-86.25-16.49 85.85-56.44 102.87-794.33 12.89-852.37-9.43-53.7-225.68-84.93-226.19-1.24 221.53-64.48 226.19-20.91-102.65-55-107.62-13.74 99.69-56.61 103.91-7.43-213-45.39-258-84-326.89 18.38-405.35c112.71-86.37 128.3-262.08 238.28-164.56s68.19 212.31 103.61 210.42 20.89-149.21 46.83-176.18 20.36 54.2 47.53 52.52 24.65-158.28 72.08-169.73 299.42-46.83 328 65.28 39.77-21.28 60.12-35 30.73 121.16 51.48 120.12 14.13-143.11 48.57-150.41 283.25 9.21 358.56 20.67 20.69 207.18 51.11 217.22 51.3-161.62 88.07-170.2 54.67 238.5 56.62 410.13-53.32 355.46-125.81 368.9Z" style="fill:url(#a)" data-name="Livello 24"/></g></svg>