<svg xmlns="http://www.w3.org/2000/svg" xmlns:xlink="http://www.w3.org/1999/xlink" viewBox="0 0 117.94 193.77"><defs><linearGradient id="d" data-name="Sfumatura senza nome 733" x1="91.02" y1="89.66" x2="42.56" y2="22.96" gradientUnits="userSpaceOnUse"><stop offset="0" stop-color="#7b9dad"/><stop offset=".33" stop-color="#81a4b5"/><stop offset="1" stop-color="#8bafc2"/></linearGradient><linearGradient id="b" data-name="Sfumatura senza nome 877" x1="122.33" y1="74.49" x2="45.63" y2="151.19" gradientUnits="userSpaceOnUse"><stop offset=".19" stop-color="#53737e"/><stop offset=".37" stop-color="#577783"/><stop offset=".59" stop-color="#638492"/><stop offset=".82" stop-color="#7799a9"/><stop offset="1" stop-color="#8bafc2"/></linearGradient><linearGradient id="e" data-name="Sfumatura senza nome 136" x1="27.99" y1="127.13" x2="63.62" y2="97.24" gradientUnits="userSpaceOnUse"><stop offset="0" stop-color="#8bafc2"/><stop offset="1" stop-color="#8bafc2"/></linearGradient><linearGradient id="f" data-name="Sfumatura senza nome 125" x1="105.66" y1="15.36" x2="65.32" y2="98.07" gradientUnits="userSpaceOnUse"><stop offset="0" stop-color="#53737e"/><stop offset=".65" stop-color="#7699a9"/><stop offset="1" stop-color="#8bafc2"/></linearGradient><linearGradient id="c" data-name="Sfumatura senza nome 866" x1="82.65" y1="157.24" x2="49.6" y2="106.34" gradientUnits="userSpaceOnUse"><stop offset="0" stop-color="#507182"/><stop offset=".02" stop-color="#507182"/><stop offset="1" stop-color="#507182"/></linearGradient><linearGradient id="a" data-name="Sfumatura senza nome 140" x1="11.44" y1="188.47" x2="11.44" y2="93.97" gradientUnits="userSpaceOnUse"><stop offset="0" stop-color="#53737e"/><stop offset=".18" stop-color="#5f808c"/><stop offset=".72" stop-color="#7fa2b3"/><stop offset="1" stop-color="#8bafc2"/></linearGradient><linearGradient id="g" x1="41.4" y1="193.77" x2="41.4" y2="154.21" xlink:href="#a"/><linearGradient id="h" x1="37.28" y1="116.86" x2="-11.44" y2="165.58" xlink:href="#b"/><linearGradient id="i" x1="31.15" y1="110.72" x2="2.71" y2="139.16" xlink:href="#c"/><linearGradient id="j" x1="45.41" y1="193.77" x2="45.41" y2="154.21" xlink:href="#b"/></defs><g data-name="Livello 2"><g data-name="Livello 24"><path style="fill:url(#d)" d="M21.4 60.3 74.17 0l43.77 70.1-54.32 27.14L21.4 60.3z"/><path style="fill:url(#b)" d="M63.62 169.17V97.24l54.32-27.14-24.68 61.81-29.64 37.26z"/><path style="fill:url(#e)" d="m21.4 60.3 42.22 109.3V97.24L21.4 60.3z"/><path style="fill:url(#f)" d="M74.17 0 63.62 97.24l54.32-27.14L74.17 0z"/><path style="fill:url(#c)" d="m63.62 169.6 29.64-37.69-29.64-34.67v72.36z"/><path style="fill:url(#a)" d="m11.45 188.47 11.44-35.97-8.5-58.53L0 150.76l11.45 37.71z"/><path style="fill:url(#g)" d="m39.93 192.46-6.54-16.67 9.12-21.58 6.9 21.25-8.01 18.31-1.47-1.31z"/><path style="fill:url(#h)" d="m14.39 93.97-2.94 94.5 11.44-35.97-8.5-58.53z"/><path style="fill:url(#i)" d="m22.89 152.5-10.22-3.37 1.72-55.16 8.5 58.53z"/><path style="fill:url(#j)" d="m41.4 193.77 1.11-39.56 6.9 21.25-8.01 18.31z"/></g></g></svg>