<svg data-name="Livello 2" xmlns="http://www.w3.org/2000/svg" viewBox="0 0 2648.95 1429.8"><defs><linearGradient id="a" data-name="Sfumatura senza nome" x1="3029.3" y1="117.89" x2="3029.3" y2="1305.72" gradientTransform="rotate(-180 2177.465 773.845)" gradientUnits="userSpaceOnUse"><stop offset="0" stop-color="#ffd98b"/><stop offset=".34" stop-color="#ffc79e"/><stop offset="1" stop-color="#ffaac1"/></linearGradient><linearGradient id="b" data-name="Sfumatura senza nome 2" x1="1469.45" y1="682.79" x2="2705.45" y2="682.79" gradientTransform="rotate(-180 1987.465 713.845)" gradientUnits="userSpaceOnUse"><stop offset="0" stop-color="#970553"/><stop offset=".5" stop-color="#a20151"/><stop offset="1" stop-color="#a90050"/></linearGradient><linearGradient id="c" data-name="Sfumatura senza nome 3" x1="1534.23" y1="682.79" x2="2640.67" y2="682.79" gradientTransform="rotate(-180 1987.465 713.845)" gradientUnits="userSpaceOnUse"><stop offset=".23" stop-color="#b4145a"/><stop offset=".37" stop-color="#bd145a"/><stop offset=".73" stop-color="#cd145a"/><stop offset="1" stop-color="#d4145a"/></linearGradient><linearGradient id="d" data-name="Sfumatura senza nome 4" x1="1595.5" y1="682.79" x2="2579.4" y2="682.79" gradientTransform="rotate(-180 1987.465 713.845)" gradientUnits="userSpaceOnUse"><stop offset="0" stop-color="#ff7093"/><stop offset=".21" stop-color="#fd6b91"/><stop offset=".43" stop-color="#fa5f8b"/><stop offset=".65" stop-color="#f54a83"/><stop offset=".88" stop-color="#ee2d76"/><stop offset="1" stop-color="#ea1b6f"/></linearGradient><linearGradient id="e" data-name="Sfumatura senza nome 5" x1="1653.27" y1="682.79" x2="2521.63" y2="682.79" gradientTransform="rotate(-180 1987.465 713.845)" gradientUnits="userSpaceOnUse"><stop offset=".12" stop-color="#ff93aa"/><stop offset=".38" stop-color="#ffa3a8"/><stop offset=".71" stop-color="#ffb1a6"/><stop offset="1" stop-color="#ffb6a6"/></linearGradient><linearGradient id="f" data-name="Sfumatura senza nome 6" x1="1716.3" y1="682.79" x2="2458.6" y2="682.79" gradientTransform="rotate(-180 1987.465 713.845)" gradientUnits="userSpaceOnUse"><stop offset=".12" stop-color="#fad0cd"/><stop offset=".25" stop-color="#fad0c6"/><stop offset=".65" stop-color="#fad0b8"/><stop offset="1" stop-color="#fbd0b4"/></linearGradient><radialGradient id="g" data-name="Sfumatura senza nome 7" cx="2057.95" cy="946.29" fx="2057.95" fy="946.29" r="333.5" gradientTransform="rotate(-180 1987.465 713.845)" gradientUnits="userSpaceOnUse"><stop offset="0" stop-color="#fff"/><stop offset="1" stop-color="#fff" stop-opacity="0"/></radialGradient></defs><g data-name="Livello 1"><g data-name="Livello 2"><path style="fill:url(#a)" d="M2.3 0h2646.65v1429.8H2.3z" data-name="Livello 3"/></g><g style="opacity:.7"><circle cx="1887.47" cy="744.9" r="618" style="fill:url(#b)"/><circle cx="1887.47" cy="744.9" r="553.22" style="fill:url(#c)"/><circle cx="1887.47" cy="744.9" r="491.95" style="fill:url(#d)"/><circle cx="1887.47" cy="744.9" r="434.18" style="fill:url(#e)"/><circle cx="1887.47" cy="744.9" r="371.15" style="fill:url(#f)"/></g><circle cx="1916.97" cy="481.4" r="333.5" style="fill:url(#g);isolation:isolate;opacity:.75"/><circle cx="1916.97" cy="479.86" r="75.6" style="fill:#fff;isolation:isolate;opacity:.83"/><path d="M664.25 688.26c-1.78 0-3.53.15-5.24.42.24-2.1.37-4.23.37-6.4 0-31.17-25.27-56.44-56.44-56.44-5.03 0-9.9.67-14.54 1.9-8.62-41.28-45.21-72.28-89.04-72.28-50.24 0-90.97 40.73-90.97 90.97 0 5.22.45 10.34 1.29 15.32-.65-.03-1.3-.05-1.96-.05-25.3 0-45.82 20.51-45.82 45.82s20.51 45.82 45.82 45.82h251.17c1.74.29 3.53.44 5.35.44 18.09 0 32.76-14.67 32.76-32.76s-14.67-32.76-32.76-32.76ZM1275.7 309.71c-1.25 0-2.47.1-3.66.3.17-1.47.26-2.96.26-4.47 0-21.78-17.65-39.43-39.43-39.43-3.51 0-6.92.47-10.16 1.33-6.02-28.84-31.58-50.5-62.21-50.5-35.1 0-63.55 28.45-63.55 63.55 0 3.65.31 7.22.9 10.7-.45-.02-.91-.03-1.37-.03-17.68 0-32.01 14.33-32.01 32.01s14.33 32.01 32.01 32.01h175.47c1.22.2 2.47.31 3.74.31 12.64 0 22.89-10.25 22.89-22.89s-10.25-22.89-22.89-22.89ZM762.49 307.47c-.85 0-1.67.07-2.48.2.11-1 .18-2.01.18-3.03 0-14.76-11.97-26.73-26.73-26.73-2.38 0-4.69.32-6.89.9-4.08-19.55-21.41-34.24-42.17-34.24-23.8 0-43.09 19.29-43.09 43.09 0 2.47.21 4.9.61 7.26-.31-.01-.62-.02-.93-.02-11.98 0-21.7 9.72-21.7 21.7s9.72 21.7 21.7 21.7h118.96c.83.14 1.67.21 2.54.21 8.57 0 15.51-6.95 15.51-15.51s-6.95-15.51-15.51-15.51ZM496.83 198.08c-2.66 0-5.27.22-7.82.63.35-3.13.55-6.31.55-9.54 0-46.49-37.69-84.18-84.18-84.18-7.5 0-14.77.99-21.69 2.83C370.84 46.25 316.26 0 250.88 0 175.94 0 115.2 60.75 115.2 135.68c0 7.79.67 15.42 1.93 22.85-.97-.04-1.94-.07-2.92-.07-37.74 0-68.34 30.6-68.34 68.34s30.6 68.34 68.34 68.34h374.63c2.6.43 5.26.66 7.99.66 26.98 0 48.86-21.87 48.86-48.86s-21.87-48.86-48.86-48.86Z" style="fill:#fff"/><path d="M925.98 351.87c.54-4.38.83-8.84.83-13.37 0-59.34-48.1-107.44-107.44-107.44-33.88 0-64.09 15.69-83.79 40.19a50.036 50.036 0 0 0-28.94-9.17c-26.68 0-48.5 20.79-50.16 47.04h-.11c-37.78 0-68.42 30.63-68.42 68.42 0 3.46.26 6.86.76 10.19-9.85 5.16-16.58 15.47-16.58 27.36 0 17.05 13.82 30.87 30.87 30.87h316.01c26.12 0 47.29-21.17 47.29-47.29 0-23.75-17.51-43.4-40.32-46.78ZM1140.86 604.73c.29-2.32.44-4.69.44-7.09 0-31.47-25.51-56.98-56.98-56.98-17.97 0-33.99 8.32-44.43 21.31a26.545 26.545 0 0 0-15.35-4.87c-14.15 0-25.72 11.02-26.6 24.95h-.06c-20.04 0-36.28 16.24-36.28 36.28 0 1.84.14 3.64.4 5.4-5.22 2.73-8.79 8.2-8.79 14.51 0 9.04 7.33 16.37 16.37 16.37h167.58c13.85 0 25.08-11.23 25.08-25.08 0-12.59-9.28-23.02-21.38-24.81ZM1358.81 244.02c.36-2.94.55-5.93.55-8.96 0-39.77-32.24-72-72-72-22.71 0-42.95 10.51-56.15 26.93a33.505 33.505 0 0 0-19.39-6.15c-17.88 0-32.5 13.93-33.62 31.53h-.08c-25.32 0-45.85 20.53-45.85 45.85 0 2.32.18 4.6.51 6.83-6.6 3.46-11.11 10.37-11.11 18.33 0 11.42 9.26 20.69 20.69 20.69h211.77c17.5 0 31.69-14.19 31.69-31.69 0-15.91-11.73-29.09-27.02-31.35Z" style="fill:#fff;opacity:.31"/><path d="M1050.42 444.53c.27-1.9.42-3.85.42-5.82 0-22.76-18.45-41.21-41.21-41.21-3.64 0-7.16.48-10.52 1.36-8.13-24.56-31.26-42.29-58.55-42.29-34.06 0-61.67 27.61-61.67 61.67 0 .67.03 1.33.05 1.99h-.05c-16.48 0-29.84 13.36-29.84 29.84s13.36 29.84 29.84 29.84h167.68c9.89 0 17.91-8.02 17.91-17.91 0-8.57-6.02-15.72-14.06-17.48Z" style="fill:#fff"/></g></svg>