<svg xmlns="http://www.w3.org/2000/svg" viewBox="0 0 1307.66 457.8"><defs><linearGradient id="Sfumatura_senza_nome_708" data-name="Sfumatura senza nome 708" x1="612.32" y1="228.9" x2="1919.98" y2="228.9" gradientTransform="matrix(-1 0 0 1 1919.98 0)" gradientUnits="userSpaceOnUse"><stop offset="0" stop-color="#ff7093"/><stop offset=".21" stop-color="#fd6b91"/><stop offset=".43" stop-color="#fa5f8b"/><stop offset=".65" stop-color="#f54a83"/><stop offset=".88" stop-color="#ee2d76"/><stop offset="1" stop-color="#ea1b6f"/></linearGradient><linearGradient id="Sfumatura_senza_nome_210" data-name="Sfumatura senza nome 210" x1="1409.36" y1="1.8" x2="1409.36" y2="158.8" gradientTransform="matrix(-1 0 0 1 1919.98 0)" gradientUnits="userSpaceOnUse"><stop offset="0" stop-color="#eb6f93"/><stop offset=".11" stop-color="#e77e9c"/><stop offset=".33" stop-color="#dea7b6"/><stop offset=".5" stop-color="#d6cdcf"/></linearGradient><style>.cls-1{fill:url(#Sfumatura_senza_nome_708)}.cls-2{fill:url(#Sfumatura_senza_nome_210)}</style></defs><g id="Livello_2" data-name="Livello 2"><g id="Livello_9" data-name="Livello 9"><path d="M1139 22.8S447.98-32.29 0 28.8c.05 2.19 0 429 0 429l1307.66-20.46L1139 22.8Z" style="fill:url(#Sfumatura_senza_nome_708)"/><path d="M619 158.8s42.26-74.83-45-82c-87.26-7.17-139-5-95-24 55.75-24.08 20-26-31-31-48.78-4.78-20-20-20-20s-45.71 16.06 13 28-49 21.88-49 38c0 17 48 39 133 43 34 2 14 48 14 48h80Z" style="fill:url(#Sfumatura_senza_nome_210)"/></g></g></svg>