<svg xmlns="http://www.w3.org/2000/svg" viewBox="0 0 1920.02 763"><defs><linearGradient id="a" data-name="Sfumatura senza nome 262" x1="2011.38" y1="158.28" x2="1584.32" y2="404.85" gradientUnits="userSpaceOnUse"><stop offset="0" stop-color="#e83967"/><stop offset=".83" stop-color="#ea216e"/><stop offset="1" stop-color="#ea1b6f"/></linearGradient><linearGradient id="b" data-name="Sfumatura senza nome 710" x1="325.09" y1="540.3" x2="76.53" y2="30.67" gradientTransform="matrix(-1 0 0 1 1920.02 0)" gradientUnits="userSpaceOnUse"><stop offset=".51" stop-color="#b4145a"/><stop offset=".7" stop-color="#bd145a"/><stop offset="1" stop-color="#d4145a"/><stop offset="1" stop-color="#d4145a"/></linearGradient><linearGradient id="c" data-name="Sfumatura senza nome 708" x1="222.86" y1="208.21" x2="98" y2="-47.8" gradientTransform="matrix(-1 0 0 1 1920.02 0)" gradientUnits="userSpaceOnUse"><stop offset="0" stop-color="#ff7093"/><stop offset=".21" stop-color="#fe6c91"/><stop offset=".43" stop-color="#fb5f8c"/><stop offset=".65" stop-color="#f64b83"/><stop offset=".88" stop-color="#ef2e77"/><stop offset="1" stop-color="#ea1b6f"/></linearGradient><linearGradient id="d" data-name="Sfumatura senza nome 133" x1="263.83" y1="300.17" x2="1007.61" y2="300.17" gradientTransform="matrix(-1 0 0 1 1920.02 0)" gradientUnits="userSpaceOnUse"><stop offset="0" stop-color="#ff7093"/><stop offset=".33" stop-color="#f95889"/><stop offset="1" stop-color="#ea1b6f"/></linearGradient><linearGradient id="e" data-name="Sfumatura senza nome 64" y1="448.92" x2="1920.02" y2="448.92" gradientTransform="matrix(-1 0 0 1 1920.02 0)" gradientUnits="userSpaceOnUse"><stop offset=".23" stop-color="#b4145a"/><stop offset=".37" stop-color="#bd145a"/><stop offset=".73" stop-color="#ce145a"/><stop offset="1" stop-color="#d4145a"/></linearGradient><linearGradient id="f" data-name="Sfumatura senza nome 406" x1="680.31" y1="987.84" x2="228.52" y2="61.54" gradientTransform="matrix(-1 0 0 1 1920.02 0)" gradientUnits="userSpaceOnUse"><stop offset="0" stop-color="#970553"/><stop offset=".5" stop-color="#a30251"/><stop offset="1" stop-color="#a90050"/></linearGradient></defs><g data-name="Livello 2"><g data-name="1"><g data-name="Livello 2"><path style="fill:url(#a)" d="m1920 0-49.98 19-51 3-56 16-31 15-64 52-82 49-9 19-99.49 46.88 442.49 257.72L1920 0z"/><path style="fill:url(#b)" d="M1920.02 508.3V68l-53.33 15.32-7.96-24.32-62.53 6.08-55.7 33.5h55.7l-97.77 36.25-42.24 38.17-21.1 41.99-5.07-47.99-20 25-53 13h-61l-148 207 357 182 215-85.7z"/><path style="fill:url(#c)" d="m1920.02 0-50 19-51 3-56 16-31 15-64 52-82 49 73-32-17 23 40-32 42.43-29 20.72-24 54.57-22 30.82-8 38.46 5 51-1.65V0z"/><path style="fill:url(#d)" d="m1656.19 315.19-86.74-78.15-85.89-52.39-78.16-41.23-85.02-8.59-79.02 71.29-74.72 30.92-100.49 32.64-33.49 1.71-18.9 24.05-65.51 19.75-35.84 39.51 87.61 102.21 593.48 8.59 62.69-150.31z"/><path style="fill:url(#e)" d="m1920.02 465-350.57-227.96-85.89-52.39-78.16-41.23-85.02-8.59 42.94 16.32-19.75 4.3 18.89 24.9 39.51 3.44 86.32 41.22-102.64-29.2-41.23-.86-51.53 18.04-32.63 14.6 45.52 7.73 48.09 32.64-54.11-26.63-23.19-2.57 17.18 17.17 17.18 12.03-33.5-10.31-28.34-6.01-44.66 8.59-49.81 35.21-57.55-11.16-44.66 8.59 18.9 9.44 87.6 40.37 33.49 40.37-46.37-23.19-70.43-23.19-61.84 18.89-101.35-.86L0 763h1920.02V465z"/><path style="fill:url(#f)" d="M1920.02 763V173l-44 8-41-19-48-13-34 10.28v28.43l-21-9.1-26 10.39v43.04l63 41.96 57.88 52.5-105.88-50.5-87 3.03 202 125.97 44 67-37.21-23.08L1727.02 391l-99.07-30.56-50.93 5.56 9 29.75L1688.2 456l50.82 76 9.5 68.38-39.5-70.38-52.83-51.26-58.73-22.74-88.88-7.08-56.56-52.92-64-30-49.97-5.56-57.97-15.14h-44.34l39.78 15.14 47.5 39.56 25 48.92-63.72-13.38-69.28 1.13 77.01 54.57 62.99 44.76 43 48 67 53 29 88-57-68-84-49-96.82-14 63.82 55 17 67-61.5-17.85-110.5-53.43-64-35.25-112.26 5.69L878.02 685l-99.29 78h1141.29z"/></g></g></g></svg>