<svg xmlns="http://www.w3.org/2000/svg" xmlns:xlink="http://www.w3.org/1999/xlink" viewBox="0 0 1920.02 832"><defs><linearGradient id="a" data-name="Sfumatura senza nome 406" x1="755" y1="412.3" x2="0" y2="412.3" gradientTransform="matrix(-1 0 0 1 1920.02 0)" gradientUnits="userSpaceOnUse"><stop offset="0" stop-color="#970553"/><stop offset=".5" stop-color="#a30251"/><stop offset="1" stop-color="#a90050"/></linearGradient><linearGradient id="b" x1="220.81" y1="98.31" x2="490.89" y2="882.66" xlink:href="#a"/><linearGradient id="c" data-name="Sfumatura senza nome 707" x1="672.79" y1="117.79" x2="614.29" y2="176.29" gradientTransform="matrix(-1 0 0 1 1920.02 0)" gradientUnits="userSpaceOnUse"><stop offset="0" stop-color="#ff7093"/><stop offset=".65" stop-color="#f1367a"/><stop offset="1" stop-color="#ea1b6f"/></linearGradient><linearGradient id="d" data-name="Sfumatura senza nome 708" x1="425.95" y1="52.95" x2="359.95" y2="118.95" gradientTransform="matrix(-1 0 0 1 1920.02 0)" gradientUnits="userSpaceOnUse"><stop offset="0" stop-color="#ff7093"/><stop offset=".21" stop-color="#fe6c91"/><stop offset=".43" stop-color="#fb5f8c"/><stop offset=".65" stop-color="#f64b83"/><stop offset=".88" stop-color="#ef2e77"/><stop offset="1" stop-color="#ea1b6f"/></linearGradient><linearGradient id="e" data-name="Sfumatura senza nome 131" x1="1172.19" y1="126.14" x2="700.14" y2="581.99" gradientTransform="matrix(-1 0 0 1 1920.02 0)" gradientUnits="userSpaceOnUse"><stop offset="0" stop-color="#ff7093"/><stop offset=".19" stop-color="#f95889"/><stop offset=".59" stop-color="#ea1b6f"/></linearGradient><linearGradient id="f" data-name="Sfumatura senza nome 64" x1="814.84" y1="790.68" x2="1706" y2="211.95" gradientTransform="matrix(-1 0 0 1 1920.02 0)" gradientUnits="userSpaceOnUse"><stop offset=".23" stop-color="#b4145a"/><stop offset=".37" stop-color="#bd145a"/><stop offset=".73" stop-color="#ce145a"/><stop offset="1" stop-color="#d4145a"/></linearGradient><linearGradient id="g" x1="1081.9" y1="994.2" x2="1340.57" y2="242.95" xlink:href="#a"/></defs><g data-name="Livello 2"><g data-name="1"><g data-name="Livello 2"><path style="fill:url(#a)" d="m1165.02 256.6 20-49.6 16-35 31-28 44-55 41-21 33 1 27 36 39 26 72.81-54.07L1544.02 62l57-37 47 15 24 35 60.28 45.25L1772 172l77-27 21.02-59 50-19v722l-755 10.6v-543z"/><path style="fill:url(#b)" d="m1193.02 195.46 39-33.46 18.87-23.59 25.9-15.41 27.29-8 15.94 11 6.79 29.23 11.21 10.77 12.79-10.77 7.21-27.23h7l18 20 7 26 11 10-6-17 1-13 5 15.19 12 21.81 39 20-20.11-21.17-5.06-26.83 18.17 24 29 18-18-30 7-38 30.02-22 33.86-11 21.22-5-21.73 16-32.37 15 43-3 39.39-17 25.27-21-10.61 26 6.95 19 31.95-35 77.05 2 25 19L1920 356v474l-394 2h-244l10-246-108.98-264.22 10-126.32z"/><path style="fill:url(#c)" d="m1377.02 105-27-36-33-1-41 21-44 55-58 52.16 57-42.16 18-24 29.54-33-4.93 13 18.4-7.63 18.99-4.37-7-3-10-1 12.2-5h15.16l3.64-6-6-8 22-1 17 11 19 20z"/><path style="fill:url(#d)" d="m1416.02 131 11 13 13 7-10-13 4-14 44-29 28-12-25 18-17.53 26 35.53-30 33-16 24-6 16-20 28-11 22 13-10-15-12-6 10-3 25.07 2.87L1601.02 25l-57 37-55.19 14.93-72.81 54.07z"/><path style="fill:url(#e)" d="m560.28 320.36 118.52-74.72 40.69-46.38 50.35-37.79 21.48-26.63 40.36-7.73 21.47 17.18 38.65 29.2 54.11-83.31 12.02-5.15 47.24-77.3L1048.12 0l28.34 9.45 62.7 63.55 102.86 172 50.01 81.37-8.59 189.81-564.27 16.32-158.89-212.14z"/><path style="fill:url(#f)" d="m0 541.52 560.28-221.16 129.2-54.11 48.59-59.26-18.9 48.09 52.33-48.09 30.98-12.03 10.31-41.22 18.89-17.18 43.97 93.62-22.5-85.89 38.65 29.2 67.85 68.71 25.77 59.26-11.17-68.71-39.5-40.36 13.74-44.67 26.62-17.17 19.76 9.45 5.15-49.82 19.75-32.64h14.05l12.58-24.04h16.06l28.6 37.79 22.33 46.38-6.01-63.56-15.7-29.23L1139.16 73l152.87 253.37-8.59 189.81L0 830V541.52z"/><path style="fill:url(#g)" d="m1315 830 180-198-271.32-422.89-82.05-132 23.29 92.95-16.32 20.61-6.97-49.91-8.49 31.87-40.36-54.96-37.79-18.04-12.89-10.31-21.47 1.72-6.87 30.92 6.87 53.25 13.74 24.05 43.81 11.16 22.33 30.06-35.22-24.91-34.35-1.71-17.18-13.54-19.75-25.97-24.05 5.15 12.88 30.92 16.32 17.18 6.01 80.73-8.59 30.06-11.16-36.93-25.77-59.26-76.1-74.94 24.57 154.81-75.58-127.97-18.95 54.11-82.4 24.05-28.34 56.69v-51.49l-30.92 28.3L560.02 321 0 541.52V830h1315z"/></g></g></g></svg>