<svg xmlns="http://www.w3.org/2000/svg" viewBox="0 0 2206 377.46"><g id="Livello_2" data-name="Livello 2"><g id="nuvole_sotto"><g style="opacity:.4"><circle cx="1421.49" cy="332.92" r="44.54" style="fill:#fff"/><circle cx="1486.59" cy="350.05" r="27.41" style="fill:#fff"/><circle cx="1346.11" cy="312.36" r="65.1" style="fill:#fff"/><circle cx="1284.44" cy="260.97" r="30.84" style="fill:#fff"/><circle cx="1126.84" cy="346.62" r="30.84" style="fill:#fff"/><circle cx="1205.64" cy="295.23" r="82.23" style="fill:#fff"/><path style="fill:#fff" d="M1126.84 377.46h359.75v-27.41l-212.43-75.38-66.81 4.55-80.51 98.24z"/></g><g style="opacity:.4"><circle cx="1718.17" cy="97.4" r="33.14" style="fill:#fff"/><circle cx="1766.61" cy="110.15" r="20.39" style="fill:#fff"/><circle cx="1662.09" cy="82.11" r="48.43" style="fill:#fff"/><circle cx="1616.2" cy="43.87" r="22.94" style="fill:#fff"/><circle cx="1498.94" cy="107.6" r="22.94" style="fill:#fff"/><circle cx="1557.57" cy="69.36" r="61.18" style="fill:#fff"/><path style="fill:#fff" d="M1498.94 130.54h267.67v-20.39l-158.05-56.08-49.71 3.38-59.91 73.09z"/></g><g style="opacity:.4"><circle cx="1880.51" cy="271.92" r="44.54" style="fill:#fff"/><circle cx="1815.41" cy="289.05" r="27.41" style="fill:#fff"/><path d="M2020.98 251.36c0 35.95-29.15 65.1-65.1 65.1-35.95 0-65.1-29.15-65.1-65.1s29.15-65.1 65.1-65.1c35.95 0 65.1 29.15 65.1 65.1Z" style="fill:#fff"/><circle cx="2017.56" cy="199.97" r="30.84" style="fill:#fff"/><circle cx="2175.16" cy="285.62" r="30.84" style="fill:#fff"/><circle cx="2096.36" cy="234.23" r="82.23" style="fill:#fff"/><path style="fill:#fff" d="M2175.16 316.46h-359.75v-27.41l212.43-75.38 66.81 4.55 80.51 98.24z"/></g><g style="opacity:.4"><path d="M264.17 231.15c0 47.42-38.44 85.85-85.85 85.85-47.42 0-85.85-38.44-85.85-85.85 0-47.42 38.44-85.85 85.85-85.85 47.42 0 85.85 38.44 85.85 85.85Z" style="fill:#fff"/><path d="M105.67 264.17c0 29.18-23.65 52.83-52.83 52.83S.01 293.35.01 264.17s23.65-52.83 52.83-52.83 52.83 23.65 52.83 52.83Z" style="fill:#fff"/><circle cx="323.6" cy="191.52" r="125.48" style="fill:#fff"/><path d="M501.92 92.46c0 32.83-26.61 59.44-59.44 59.44s-59.44-26.61-59.44-59.44 26.61-59.44 59.44-59.44 59.44 26.61 59.44 59.44ZM805.71 257.56c0 32.83-26.61 59.44-59.44 59.44s-59.44-26.61-59.44-59.44 26.61-59.44 59.44-59.44 59.44 26.61 59.44 59.44Z" style="fill:#fff"/><circle cx="594.38" cy="158.5" r="158.5" style="fill:#fff"/><path style="fill:#fff" d="M746.27 317H52.83v-52.83l409.46-145.3 128.78 8.76L746.27 317z"/></g></g></g><script>document.querySelectorAll(&quot;#nuvole_sotto&gt;g&quot;).forEach((t,e)=&gt;{t.style.transformOrigin=&quot;center&quot;,t.style.transformBox=&quot;fill-box&quot;;let a=()=&gt;{let e=1e4+parseInt(1e4*Math.random()),r=-300+parseInt(600*Math.random());t.animate([{transform:`translateX(${r}px)`}],{duration:e,iterations:1,easing:&quot;ease-in-out&quot;,fill:&quot;forwards&quot;}),setTimeout(a,e+parseInt(1e3*Math.random()))};a()});</script></svg>