<svg xmlns="http://www.w3.org/2000/svg" xmlns:xlink="http://www.w3.org/1999/xlink" viewBox="0 0 352.29 331.04"><defs><linearGradient id="Sfumatura_senza_nome_roccia02_354" data-name="Sfumatura senza nome 354" x1="-893.5" y1="37.53" x2="-893.5" y2="331.04" gradientTransform="matrix(-1 0 0 1 -724.71 0)" gradientUnits="userSpaceOnUse"><stop offset="0" stop-color="#917d64"/><stop offset=".16" stop-color="#99776a"/><stop offset=".79" stop-color="#b86383"/></linearGradient><linearGradient id="Sfumatura_senza_nome_roccia02_464" data-name="Sfumatura senza nome 464" x1="-904.21" y1="183.72" x2="-972.99" y2="223.43" gradientTransform="matrix(-1 0 0 1 -724.71 0)" gradientUnits="userSpaceOnUse"><stop offset="0" stop-color="#9e537b"/><stop offset=".49" stop-color="#c28a95"/><stop offset=".79" stop-color="#d7a9a4"/></linearGradient><linearGradient id="Sfumatura_senza_nome_roccia02_467" data-name="Sfumatura senza nome 467" x1="-926.38" y1="176.01" x2="-944.8" y2="186.64" gradientTransform="matrix(-1 0 0 1 -724.71 0)" gradientUnits="userSpaceOnUse"><stop offset="0" stop-color="#d7a9a4"/><stop offset=".79" stop-color="#d7a9a4"/></linearGradient><linearGradient id="Sfumatura_senza_nome_roccia02_366" data-name="Sfumatura senza nome 366" x1="-892.47" y1="66" x2="-892.47" y2="307.59" gradientTransform="matrix(-1 0 0 1 -724.71 0)" gradientUnits="userSpaceOnUse"><stop offset="0"/><stop offset="1" stop-opacity="0"/></linearGradient><linearGradient id="Sfumatura_senza_nome_roccia02_841" data-name="Sfumatura senza nome 841" x1="-893.88" y1="23.64" x2="-893.88" y2="133" gradientTransform="matrix(-1 0 0 1 -724.71 0)" gradientUnits="userSpaceOnUse"><stop offset=".12" stop-color="#ff93aa"/><stop offset=".38" stop-color="#ffa3a8"/><stop offset=".71" stop-color="#ffb1a6"/><stop offset="1" stop-color="#ffb6a6"/></linearGradient><linearGradient id="Sfumatura_senza_nome_roccia02_881" data-name="Sfumatura senza nome 881" x1="-962.62" y1="43.15" x2="-962.62" y2="7.23" gradientTransform="matrix(-1 0 0 1 -724.71 0)" gradientUnits="userSpaceOnUse"><stop offset="0" stop-color="#ff93aa"/><stop offset=".01" stop-color="#fe95a9"/><stop offset=".21" stop-color="#f3b5a8"/><stop offset=".39" stop-color="#ebcda6"/><stop offset=".57" stop-color="#e6dba6"/><stop offset=".72" stop-color="#e5e0a6"/></linearGradient><linearGradient id="Sfumatura_senza_nome_roccia02_881-2" data-name="Sfumatura senza nome 881" x1="-826.62" y1="49.15" x2="-826.62" y2="13.23" xlink:href="#Sfumatura_senza_nome_roccia02_881"/><linearGradient id="Sfumatura_senza_nome_roccia02_881-3" data-name="Sfumatura senza nome 881" x1="-933.23" y1="-133.74" x2="-933.23" y2="-176.98" gradientTransform="scale(-1 1) rotate(-17.02 57.764 -2298.488)" xlink:href="#Sfumatura_senza_nome_roccia02_881"/><linearGradient id="Sfumatura_senza_nome_roccia02_354-2" data-name="Sfumatura senza nome 354" x1="-1057.85" y1="249" x2="-1057.85" y2="132" xlink:href="#Sfumatura_senza_nome_roccia02_354"/><linearGradient id="Sfumatura_senza_nome_roccia02_366-2" data-name="Sfumatura senza nome 366" x1="-1049.71" y1="249" x2="-1049.71" y2="132" xlink:href="#Sfumatura_senza_nome_roccia02_366"/><linearGradient id="Sfumatura_senza_nome_roccia02_468" data-name="Sfumatura senza nome 468" x1="-1064.58" y1="132" x2="-1064.58" y2="228" gradientTransform="matrix(-1 0 0 1 -724.71 0)" gradientUnits="userSpaceOnUse"><stop offset="0" stop-color="#9e537b"/><stop offset=".32" stop-color="#b87b8e"/><stop offset=".62" stop-color="#ce9c9e"/><stop offset=".79" stop-color="#d7a9a4"/></linearGradient><linearGradient id="Sfumatura_senza_nome_roccia02_354-3" data-name="Sfumatura senza nome 354" x1="-759.88" y1="28.72" x2="-722.58" y2="52.94" xlink:href="#Sfumatura_senza_nome_roccia02_354"/><linearGradient id="Sfumatura_senza_nome_roccia02_468-2" data-name="Sfumatura senza nome 468" x1="-751.68" y1="16.09" x2="-730.47" y2="29.86" xlink:href="#Sfumatura_senza_nome_roccia02_468"/><linearGradient id="Sfumatura_senza_nome_roccia02_366-3" data-name="Sfumatura senza nome 366" x1="-759.88" y1="28.72" x2="-722.58" y2="52.94" xlink:href="#Sfumatura_senza_nome_roccia02_366"/><style>.cls-1{fill:url(#Sfumatura_senza_nome_roccia02_467);opacity:.44}.cls-2{fill:url(#Sfumatura_senza_nome_roccia02_366-3)}.cls-2,.cls-3,.cls-4{opacity:.29}.cls-5{fill:url(#Sfumatura_senza_nome_roccia02_468)}.cls-5,.cls-6,.cls-7{opacity:.75}.cls-8{fill:url(#Sfumatura_senza_nome_roccia02_881-2)}.cls-3{fill:url(#Sfumatura_senza_nome_roccia02_366)}.cls-6{fill:url(#Sfumatura_senza_nome_roccia02_464)}.cls-9{fill:#e6e6e6}.cls-4{fill:url(#Sfumatura_senza_nome_roccia02_366-2)}.cls-10{fill:url(#Sfumatura_senza_nome_roccia02_354-2)}.cls-11{fill:url(#Sfumatura_senza_nome_roccia02_354)}.cls-12{fill:url(#Sfumatura_senza_nome_roccia02_881)}.cls-13{fill:url(#Sfumatura_senza_nome_roccia02_841)}.cls-14{fill:#999}.cls-15{fill:url(#Sfumatura_senza_nome_roccia02_354-3)}.cls-16{fill:#b3b3b3}.cls-17{fill:url(#Sfumatura_senza_nome_roccia02_881-3)}.cls-7{fill:url(#Sfumatura_senza_nome_roccia02_468-2)}</style></defs><g id="Livello_2" data-name="Livello 2"><g id="_1" data-name="1"><g id="Livello_15" data-name="Livello 15"><path d="m162.82 331.04-14.25-36.01-16.67 12.57-53.05-97.5-6.49-37.2-14.73-9.74-9.09-54.35s-9.18 2.27-9.85-8.27C38.02 90 37.18 60.27 78.1 49.13c40.92-11.14 135.92-21.24 187.42 4.81 51.5 26.05 30.54 52.65 22.52 58.35-8.02 5.7-15.16 38.49-15.16 38.49l-11.37 13.46-12.96 58.75-85.71 108.04Z" style="fill:url(#Sfumatura_senza_nome_roccia02_354)"/><path style="fill:url(#Sfumatura_senza_nome_roccia02_464);opacity:.75" d="M247.46 66 243 146l4.46 33.83L239 220l-48 62 4-57-29 59-3.18 47.04L248.53 223l12.96-58.75 11.37-13.46L290 94l-42.54-28z"/><path style="fill:url(#Sfumatura_senza_nome_roccia02_467);opacity:.44" d="M199.4 214.7 217 192l2-46-20.86 56.16 1.26 12.54z"/><path d="M148.57 295.03 140 272l-7.81 6.08-32.91-58.92 7.73-53.56 16.91 6.06L132 207l14 5 21-67s-1 25 11 25 16.34-25 16.34-25-.34 25 20.66 21 16-25.16 16-25.16-3 24.16 9 23.16 18-25 18-25-.15 18.37 6.93 21.19c.15-.37 7.94-9.4 7.94-9.4l2.99-11.79 4.5-13.13L287 92l-85-26-137.64 4-15.83 38.82 9.09 54.35L72 173.01l6.84 37.1 53.05 97.5 16.67-12.57Z" style="fill:url(#Sfumatura_senza_nome_roccia02_366);opacity:.29"/><path d="M300.08 112.19S317 29.44 185 24.12C53 18.8 50.12 58.96 44.56 68.16 39 77.36 34 117.28 41 122.6s24-15.97 24-15.97-4.44 22.51 7.28 25.23S86 117.28 86 117.28s7.68 17.77 21.84 14.87C122 129.25 115 105.3 115 105.3s3 14.64 15 13.31 12-14.64 12-14.64-4.13 25.06 10.94 28.5C168 135.91 174 107.96 174 107.96s.36 24.32 14.18 24.8c13.82.48 14.82-22.14 14.82-22.14s3.08 23 20.04 22.15C240 131.92 239 110.62 239 110.62s-2.41 20.39 8.29 22.17C258 134.57 267 114.61 267 114.61s-4.87 16.62 6.06 18.29C284 134.57 287 113.28 287 113.28s9.17 21.77 13.08-1.09Z" style="fill:url(#Sfumatura_senza_nome_roccia02_841)"/><path d="M248.86 42.33s10.13-6.53 7.53-23.68c0 0-11.43 7.79-14.03 17.14 0 0 6.35-19.74-.46-28.57-.12 0-9.76 9.54-9.84 27.89-.17.33.43-16.46-9.96-22.69 0 0-6.23 17.14-1.04 25.46 5.06 8.1 3.78 4.46 3.78 4.46" style="fill:url(#Sfumatura_senza_nome_roccia02_881)"/><path d="M112.86 48.33s10.13-6.53 7.53-23.68c0 0-11.43 7.79-14.03 17.14 0 0 6.35-19.74-.46-28.57-.12 0-9.76 9.54-9.84 27.89-.17.33.43-16.46-9.96-22.69 0 0-6.23 17.14-1.04 25.46 5.06 8.1 3.78 4.46 3.78 4.46" style="fill:url(#Sfumatura_senza_nome_roccia02_881-2)"/><path d="M269.09 64.41s13.96-3.95 17.01-24.6c0 0-15.9 4.94-22.18 14.79 0 0 14.27-20.48 9.54-33.05-.14-.04-14.59 7.55-21.15 28.63-.32.32 6.3-18.79-3.47-29.63 0 0-13.22 17.54-10.16 28.93 2.97 11.11 2.78 6.46 2.78 6.46" style="fill:url(#Sfumatura_senza_nome_roccia02_881-3)"/><path style="fill:#999" d="M250.09 62.41 254 57l-3-8-14.59-7.85L222 45l-4 10 4.52 9L246 66l4.09-3.59z"/><path style="fill:#b3b3b3" d="m251 49-11 7-14 2-8-3 4-10 14.41-3.85L251 49z"/><path style="fill:#e6e6e6" d="m240 56-18-11-3.85 9.62L226 58l14-2z"/><path style="fill:url(#Sfumatura_senza_nome_roccia02_354-2)" d="m326 143-12 42 6 40.61 9 23.39 20-21 3.29-47.65L336 132l-10 11z"/><path style="fill:url(#Sfumatura_senza_nome_roccia02_366-2);opacity:.29" d="m336 132-4 24-7 43 4 50-9-23.39-6-40.61 12-42 10-11z"/><path style="fill:url(#Sfumatura_senza_nome_roccia02_468);opacity:.75" d="m349 228-21.54-44.08L336 132l16.29 48.35L349 228z"/><path style="fill:url(#Sfumatura_senza_nome_roccia02_354-3)" d="M16.53 81.65 30 37 16.53 0 0 46l16.53 35.65z"/><path style="fill:url(#Sfumatura_senza_nome_roccia02_468-2);opacity:.75" d="m16.53 0-3.65 40.83L30 37 16.53 0z"/><path style="fill:url(#Sfumatura_senza_nome_roccia02_366-3);opacity:.29" d="m16.53 81.65-3.65-40.82L16.53 0 0 46l16.53 35.65z"/></g></g></g></svg>