<svg xmlns="http://www.w3.org/2000/svg" xmlns:xlink="http://www.w3.org/1999/xlink" viewBox="0 0 502.29 471.99"><defs><linearGradient id="Sfumatura_senza_nome_roccia04_354" data-name="Sfumatura senza nome 354" x1="-2679.36" y1="53.51" x2="-2679.36" y2="471.99" gradientTransform="matrix(-1 0 0 1 -2438.71 0)" gradientUnits="userSpaceOnUse"><stop offset="0" stop-color="#917d64"/><stop offset=".16" stop-color="#99776a"/><stop offset=".79" stop-color="#b86383"/></linearGradient><linearGradient id="Sfumatura_senza_nome_roccia04_464" data-name="Sfumatura senza nome 464" x1="-2694.63" y1="261.94" x2="-2792.7" y2="318.56" gradientTransform="matrix(-1 0 0 1 -2438.71 0)" gradientUnits="userSpaceOnUse"><stop offset="0" stop-color="#9e537b"/><stop offset=".49" stop-color="#c28a95"/><stop offset=".79" stop-color="#d7a9a4"/></linearGradient><linearGradient id="Sfumatura_senza_nome_roccia04_467" data-name="Sfumatura senza nome 467" x1="-2726.25" y1="250.95" x2="-2752.51" y2="266.11" gradientTransform="matrix(-1 0 0 1 -2438.71 0)" gradientUnits="userSpaceOnUse"><stop offset="0" stop-color="#d7a9a4"/><stop offset=".79" stop-color="#d7a9a4"/></linearGradient><linearGradient id="Sfumatura_senza_nome_roccia04_366" data-name="Sfumatura senza nome 366" x1="-2677.9" y1="94.1" x2="-2677.9" y2="438.56" gradientTransform="matrix(-1 0 0 1 -2438.71 0)" gradientUnits="userSpaceOnUse"><stop offset="0"/><stop offset="1" stop-opacity="0"/></linearGradient><linearGradient id="Sfumatura_senza_nome_roccia04_841" data-name="Sfumatura senza nome 841" x1="-2679.92" y1="33.7" x2="-2679.92" y2="189.63" gradientTransform="matrix(-1 0 0 1 -2438.71 0)" gradientUnits="userSpaceOnUse"><stop offset=".12" stop-color="#ff93aa"/><stop offset=".38" stop-color="#ffa3a8"/><stop offset=".71" stop-color="#ffb1a6"/><stop offset="1" stop-color="#ffb6a6"/></linearGradient><linearGradient id="Sfumatura_senza_nome_roccia04_881" data-name="Sfumatura senza nome 881" x1="-2777.91" y1="61.52" x2="-2777.91" y2="10.3" gradientTransform="matrix(-1 0 0 1 -2438.71 0)" gradientUnits="userSpaceOnUse"><stop offset="0" stop-color="#ff93aa"/><stop offset=".01" stop-color="#fe95a9"/><stop offset=".21" stop-color="#f3b5a8"/><stop offset=".39" stop-color="#ebcda6"/><stop offset=".57" stop-color="#e6dba6"/><stop offset=".72" stop-color="#e5e0a6"/></linearGradient><linearGradient id="Sfumatura_senza_nome_roccia04_881-2" data-name="Sfumatura senza nome 881" x1="-2584.01" y1="70.08" x2="-2584.01" y2="18.86" xlink:href="#Sfumatura_senza_nome_roccia04_881"/><linearGradient id="Sfumatura_senza_nome_roccia04_881-3" data-name="Sfumatura senza nome 881" x1="-2644.56" y1="-379.92" x2="-2644.56" y2="-441.58" gradientTransform="scale(-1 1) rotate(-17.02 57.835 -7762.536)" xlink:href="#Sfumatura_senza_nome_roccia04_881"/><linearGradient id="Sfumatura_senza_nome_roccia04_354-2" data-name="Sfumatura senza nome 354" x1="-2913.7" y1="355.02" x2="-2913.7" y2="188.2" xlink:href="#Sfumatura_senza_nome_roccia04_354"/><linearGradient id="Sfumatura_senza_nome_roccia04_366-2" data-name="Sfumatura senza nome 366" x1="-2902.08" y1="355.02" x2="-2902.08" y2="188.2" xlink:href="#Sfumatura_senza_nome_roccia04_366"/><linearGradient id="Sfumatura_senza_nome_roccia04_468" data-name="Sfumatura senza nome 468" x1="-2923.29" y1="188.2" x2="-2923.29" y2="325.08" gradientTransform="matrix(-1 0 0 1 -2438.71 0)" gradientUnits="userSpaceOnUse"><stop offset="0" stop-color="#9e537b"/><stop offset=".32" stop-color="#b87b8e"/><stop offset=".62" stop-color="#ce9c9e"/><stop offset=".79" stop-color="#d7a9a4"/></linearGradient><linearGradient id="Sfumatura_senza_nome_roccia04_354-3" data-name="Sfumatura senza nome 354" x1="-2488.86" y1="40.94" x2="-2435.68" y2="75.48" xlink:href="#Sfumatura_senza_nome_roccia04_354"/><linearGradient id="Sfumatura_senza_nome_roccia04_468-2" data-name="Sfumatura senza nome 468" x1="-2477.17" y1="22.94" x2="-2446.92" y2="42.58" xlink:href="#Sfumatura_senza_nome_roccia04_468"/><linearGradient id="Sfumatura_senza_nome_roccia04_366-3" data-name="Sfumatura senza nome 366" x1="-2488.86" y1="40.94" x2="-2435.68" y2="75.48" xlink:href="#Sfumatura_senza_nome_roccia04_366"/><style>.cls-1{fill:url(#Sfumatura_senza_nome_roccia04_467);opacity:.44}.cls-2{fill:url(#Sfumatura_senza_nome_roccia04_366-3)}.cls-2,.cls-3,.cls-4{opacity:.29}.cls-5{fill:url(#Sfumatura_senza_nome_roccia04_468)}.cls-5,.cls-6,.cls-7{opacity:.75}.cls-8{fill:url(#Sfumatura_senza_nome_roccia04_881-2)}.cls-3{fill:url(#Sfumatura_senza_nome_roccia04_366)}.cls-6{fill:url(#Sfumatura_senza_nome_roccia04_464)}.cls-9{fill:#e6e6e6}.cls-4{fill:url(#Sfumatura_senza_nome_roccia04_366-2)}.cls-10{fill:url(#Sfumatura_senza_nome_roccia04_354-2)}.cls-11{fill:url(#Sfumatura_senza_nome_roccia04_354)}.cls-12{fill:url(#Sfumatura_senza_nome_roccia04_881)}.cls-13{fill:url(#Sfumatura_senza_nome_roccia04_841)}.cls-14{fill:#999}.cls-15{fill:url(#Sfumatura_senza_nome_roccia04_354-3)}.cls-16{fill:#b3b3b3}.cls-17{fill:url(#Sfumatura_senza_nome_roccia04_881-3)}.cls-7{fill:url(#Sfumatura_senza_nome_roccia04_468-2)}</style></defs><g id="Livello_2" data-name="Livello 2"><g id="_1" data-name="1"><g id="Livello_15" data-name="Livello 15"><path d="m232.15 471.99-20.32-51.34-23.77 17.92-75.64-139.01-9.25-53.04-21-13.89-12.97-77.49s-13.09 3.24-14.05-11.79c-.96-15.03-2.15-57.42 56.19-73.3 58.34-15.88 193.79-30.28 267.21 6.86 73.43 37.14 43.55 75.07 32.11 83.19-11.44 8.13-21.61 54.88-21.61 54.88l-16.21 19.19-18.48 83.77-122.21 154.04Z" style="fill:url(#Sfumatura_senza_nome_roccia04_354)"/><path style="fill:url(#Sfumatura_senza_nome_roccia04_464);opacity:.75" d="m352.83 94.1-6.37 114.06 6.37 48.24-12.07 57.27-68.44 88.4 5.71-81.27-41.35 84.12-4.53 67.07 122.2-154.04 18.48-83.77 16.21-19.19 24.44-80.97-60.65-39.92z"/><path style="fill:url(#Sfumatura_senza_nome_roccia04_467);opacity:.44" d="m284.3 306.11 25.09-32.36 2.86-65.59-29.74 80.08 1.79 17.87z"/><path d="m211.83 420.64-12.22-32.83-11.14 8.66-46.92-84.01 11.02-76.36 24.12 8.64 11.51 50.38 19.96 7.13 29.94-95.53s-1.43 35.64 15.68 35.64 23.29-35.64 23.29-35.64-.48 35.64 29.46 29.94c29.94-5.7 22.81-35.87 22.81-35.87s-4.28 34.44 12.83 33.02c17.11-1.43 25.66-35.64 25.66-35.64s-.21 26.2 9.87 30.21c.21-.53 11.32-13.4 11.32-13.4l4.27-16.81 6.42-18.72 9.47-48.3-121.19-37.07-196.25 5.7-22.57 55.34 12.97 77.49 20.5 14.03 9.76 52.9 75.64 139.01 23.77-17.92Z" style="fill:url(#Sfumatura_senza_nome_roccia04_366);opacity:.29"/><path d="M427.85 159.96S451.97 41.98 263.76 34.39C75.57 26.8 71.45 84.06 63.53 97.18c-7.92 13.11-15.05 70.04-5.07 77.63 9.98 7.59 34.22-22.77 34.22-22.77s-6.33 32.1 10.38 35.97c16.71 3.87 19.56-20.79 19.56-20.79s10.96 25.33 31.14 21.21c20.19-4.13 10.21-38.28 10.21-38.28s4.28 20.87 21.39 18.97c17.11-1.9 17.11-20.87 17.11-20.87s-5.88 35.73 15.59 40.63c21.48 4.9 30.03-34.94 30.03-34.94s.51 34.67 20.22 35.36c19.71.69 21.13-31.57 21.13-31.57s4.4 32.79 28.58 31.58c24.18-1.22 22.75-31.58 22.75-31.58s-3.44 29.06 11.83 31.61c15.26 2.54 28.1-25.92 28.1-25.92s-6.95 23.69 8.64 26.08c15.59 2.38 19.87-27.98 19.87-27.98s13.07 31.04 18.66-1.56Z" style="fill:url(#Sfumatura_senza_nome_roccia04_841)"/><path d="M354.83 60.36s14.44-9.32 10.74-33.76c0 0-16.3 11.11-20 24.44 0 0 9.06-28.15-.65-40.74-.17 0-13.91 13.61-14.03 39.76-.25.47.62-23.47-14.2-32.36 0 0-8.89 24.44-1.48 36.29 7.22 11.55 5.39 6.35 5.39 6.35" style="fill:url(#Sfumatura_senza_nome_roccia04_881)"/><path d="M160.92 68.91s14.44-9.32 10.74-33.76c0 0-16.3 11.11-20 24.44 0 0 9.06-28.15-.65-40.74-.17 0-13.91 13.61-14.03 39.76-.25.47.62-23.47-14.2-32.36 0 0-8.89 24.44-1.48 36.29 7.22 11.55 5.39 6.35 5.39 6.35" style="fill:url(#Sfumatura_senza_nome_roccia04_881-2)"/><path d="M383.66 91.83s19.9-5.64 24.25-35.08c0 0-22.67 7.05-31.63 21.09 0 0 20.34-29.21 13.6-47.12-.2-.06-20.8 10.76-30.16 40.82-.45.45 8.98-26.8-4.94-42.24 0 0-18.84 25-14.49 41.25 4.24 15.83 3.96 9.21 3.96 9.21" style="fill:url(#Sfumatura_senza_nome_roccia04_881-3)"/><path style="fill:#999" d="m356.58 88.98 5.57-7.71-4.28-11.41-20.8-11.19-20.55 5.49-5.7 14.26 6.44 12.83 33.48 2.85 5.84-5.12z"/><path style="fill:#b3b3b3" d="m357.87 69.86-15.68 9.98-19.96 2.86-11.41-4.28 5.7-14.26 20.55-5.49 20.8 11.19z"/><path style="fill:#e6e6e6" d="m342.19 79.84-25.67-15.68-5.48 13.71 11.19 4.83 19.96-2.86z"/><path style="fill:url(#Sfumatura_senza_nome_roccia04_354-2)" d="m464.8 203.89-17.11 59.88 8.56 57.9 12.83 33.35 28.52-29.94 4.69-67.94-23.23-68.94-14.26 15.69z"/><path style="fill:url(#Sfumatura_senza_nome_roccia04_366-2);opacity:.29" d="m479.06 188.2-5.7 34.22-9.98 61.31 5.7 71.29-12.83-33.35-8.56-57.9 17.11-59.88 14.26-15.69z"/><path style="fill:url(#Sfumatura_senza_nome_roccia04_468);opacity:.75" d="m497.6 325.08-30.72-62.86 12.18-74.02 23.23 68.94-4.69 67.94z"/><path style="fill:url(#Sfumatura_senza_nome_roccia04_354-3)" d="m23.56 116.42 19.21-63.67L23.56 0 0 65.59l23.56 50.83z"/><path style="fill:url(#Sfumatura_senza_nome_roccia04_468-2);opacity:.75" d="m23.56 0-5.19 58.21 24.4-5.46L23.56 0z"/><path style="fill:url(#Sfumatura_senza_nome_roccia04_366-3);opacity:.29" d="m23.56 116.42-5.19-58.21L23.56 0 0 65.59l23.56 50.83z"/></g></g></g></svg>