<svg xmlns="http://www.w3.org/2000/svg" xmlns:xlink="http://www.w3.org/1999/xlink" viewBox="0 0 445.43 650.2"><defs><linearGradient id="Sfumatura_senza_nome_roccia03_354" data-name="Sfumatura senza nome 354" x1="-2303.5" y1="296.68" x2="-2303.5" y2="650.2" gradientTransform="matrix(-1 0 0 1 -2017.06 0)" gradientUnits="userSpaceOnUse"><stop offset="0" stop-color="#917d64"/><stop offset=".16" stop-color="#99776a"/><stop offset=".79" stop-color="#b86383"/></linearGradient><linearGradient id="Sfumatura_senza_nome_roccia03_464" data-name="Sfumatura senza nome 464" x1="-2316.4" y1="472.76" x2="-2399.25" y2="520.59" gradientTransform="matrix(-1 0 0 1 -2017.06 0)" gradientUnits="userSpaceOnUse"><stop offset="0" stop-color="#9e537b"/><stop offset=".49" stop-color="#c28a95"/><stop offset=".79" stop-color="#d7a9a4"/></linearGradient><linearGradient id="Sfumatura_senza_nome_roccia03_467" data-name="Sfumatura senza nome 467" x1="-2343.11" y1="463.47" x2="-2365.3" y2="476.28" gradientTransform="matrix(-1 0 0 1 -2017.06 0)" gradientUnits="userSpaceOnUse"><stop offset="0" stop-color="#d7a9a4"/><stop offset=".79" stop-color="#d7a9a4"/></linearGradient><linearGradient id="Sfumatura_senza_nome_roccia03_366" data-name="Sfumatura senza nome 366" x1="-2302.27" y1="330.97" x2="-2302.27" y2="621.96" gradientTransform="matrix(-1 0 0 1 -2017.06 0)" gradientUnits="userSpaceOnUse"><stop offset="0"/><stop offset="1" stop-opacity="0"/></linearGradient><linearGradient id="Sfumatura_senza_nome_roccia03_841" data-name="Sfumatura senza nome 841" x1="-2303.97" y1="279.95" x2="-2303.97" y2="411.67" gradientTransform="matrix(-1 0 0 1 -2017.06 0)" gradientUnits="userSpaceOnUse"><stop offset=".12" stop-color="#ff93aa"/><stop offset=".38" stop-color="#ffa3a8"/><stop offset=".71" stop-color="#ffb1a6"/><stop offset="1" stop-color="#ffb6a6"/></linearGradient><linearGradient id="Sfumatura_senza_nome_roccia03_881" data-name="Sfumatura senza nome 881" x1="-2107.11" y1="811.82" x2="-2107.11" y2="768.55" gradientTransform="scale(-1 1) rotate(23.58 23.08 4932.748)" gradientUnits="userSpaceOnUse"><stop offset="0" stop-color="#ff93aa"/><stop offset=".01" stop-color="#fe95a9"/><stop offset=".21" stop-color="#f3b5a8"/><stop offset=".39" stop-color="#ebcda6"/><stop offset=".57" stop-color="#e6dba6"/><stop offset=".72" stop-color="#e5e0a6"/></linearGradient><linearGradient id="Sfumatura_senza_nome_roccia03_881-2" data-name="Sfumatura senza nome 881" x1="-2400.16" y1="-133.44" x2="-2400.16" y2="-176.71" gradientTransform="scale(-1 1) rotate(-19.38 -62.123 -5795.043)" xlink:href="#Sfumatura_senza_nome_roccia03_881"/><linearGradient id="Sfumatura_senza_nome_roccia03_881-3" data-name="Sfumatura senza nome 881" x1="-2356.62" y1="447.28" x2="-2356.62" y2="395.19" gradientTransform="scale(-1 1) rotate(6.56 -181.483 18239.253)" xlink:href="#Sfumatura_senza_nome_roccia03_881"/><linearGradient id="Sfumatura_senza_nome_roccia03_881-4" data-name="Sfumatura senza nome 881" x1="-1999.9" y1="880.46" x2="-1999.9" y2="838.9" gradientTransform="scale(-1 1) rotate(28.36 34.258 4206.919)" xlink:href="#Sfumatura_senza_nome_roccia03_881"/><linearGradient id="Sfumatura_senza_nome_roccia03_354-2" data-name="Sfumatura senza nome 354" x1="-2205.21" y1="232.75" x2="-2205.21" y2="115.75" xlink:href="#Sfumatura_senza_nome_roccia03_354"/><linearGradient id="Sfumatura_senza_nome_roccia03_366-2" data-name="Sfumatura senza nome 366" x1="-2197.06" y1="232.75" x2="-2197.06" y2="115.75" xlink:href="#Sfumatura_senza_nome_roccia03_366"/><linearGradient id="Sfumatura_senza_nome_roccia03_468" data-name="Sfumatura senza nome 468" x1="-2211.94" y1="115.75" x2="-2211.94" y2="211.75" gradientTransform="matrix(-1 0 0 1 -2017.06 0)" gradientUnits="userSpaceOnUse"><stop offset="0" stop-color="#9e537b"/><stop offset=".32" stop-color="#b87b8e"/><stop offset=".62" stop-color="#ce9c9e"/><stop offset=".79" stop-color="#d7a9a4"/></linearGradient><linearGradient id="Sfumatura_senza_nome_roccia03_354-3" data-name="Sfumatura senza nome 354" x1="-2036.21" y1="421.75" x2="-2036.21" y2="304.75" xlink:href="#Sfumatura_senza_nome_roccia03_354"/><linearGradient id="Sfumatura_senza_nome_roccia03_366-3" data-name="Sfumatura senza nome 366" x1="-2028.06" y1="421.75" x2="-2028.06" y2="304.75" xlink:href="#Sfumatura_senza_nome_roccia03_366"/><linearGradient id="Sfumatura_senza_nome_roccia03_468-2" data-name="Sfumatura senza nome 468" x1="-2042.94" y1="304.75" x2="-2042.94" y2="400.75" xlink:href="#Sfumatura_senza_nome_roccia03_468"/><linearGradient id="Sfumatura_senza_nome_roccia03_354-4" data-name="Sfumatura senza nome 354" x1="-2364.32" y1="28.72" x2="-2327.03" y2="52.94" xlink:href="#Sfumatura_senza_nome_roccia03_354"/><linearGradient id="Sfumatura_senza_nome_roccia03_468-3" data-name="Sfumatura senza nome 468" x1="-2356.12" y1="16.09" x2="-2334.91" y2="29.86" xlink:href="#Sfumatura_senza_nome_roccia03_468"/><linearGradient id="Sfumatura_senza_nome_roccia03_366-4" data-name="Sfumatura senza nome 366" x1="-2364.32" y1="28.72" x2="-2327.03" y2="52.94" xlink:href="#Sfumatura_senza_nome_roccia03_366"/><style>.cls-1{fill:url(#Sfumatura_senza_nome_roccia03_467);opacity:.44}.cls-2{fill:url(#Sfumatura_senza_nome_roccia03_366-3)}.cls-2,.cls-3,.cls-4,.cls-5{opacity:.29}.cls-6{fill:url(#Sfumatura_senza_nome_roccia03_468)}.cls-6,.cls-7,.cls-8,.cls-9{opacity:.75}.cls-10{fill:url(#Sfumatura_senza_nome_roccia03_881-2)}.cls-3{fill:url(#Sfumatura_senza_nome_roccia03_366)}.cls-7{fill:url(#Sfumatura_senza_nome_roccia03_464)}.cls-4{fill:url(#Sfumatura_senza_nome_roccia03_366-4)}.cls-5{fill:url(#Sfumatura_senza_nome_roccia03_366-2)}.cls-11{fill:url(#Sfumatura_senza_nome_roccia03_354-2)}.cls-12{fill:url(#Sfumatura_senza_nome_roccia03_354)}.cls-8{fill:url(#Sfumatura_senza_nome_roccia03_468-3)}.cls-13{fill:url(#Sfumatura_senza_nome_roccia03_354-4)}.cls-14{fill:url(#Sfumatura_senza_nome_roccia03_881)}.cls-15{fill:url(#Sfumatura_senza_nome_roccia03_841)}.cls-16{fill:url(#Sfumatura_senza_nome_roccia03_354-3)}.cls-17{fill:url(#Sfumatura_senza_nome_roccia03_881-4)}.cls-18{fill:url(#Sfumatura_senza_nome_roccia03_881-3)}.cls-9{fill:url(#Sfumatura_senza_nome_roccia03_468-2)}</style></defs><g id="Livello_2" data-name="Livello 2"><g id="_1" data-name="1"><g id="Livello_15" data-name="Livello 15"><path d="m279.25 650.2-17.17-43.37L242 621.97l-63.9-117.43-7.82-44.8-17.74-11.73-10.95-65.46s-11.06 2.74-11.87-9.96c-.81-12.7-1.81-48.51 47.47-61.92 49.28-13.41 163.71-25.58 225.73 5.8 62.03 31.38 36.79 63.41 27.13 70.28-9.66 6.87-18.26 46.36-18.26 46.36l-13.69 16.21-15.61 70.76-103.24 130.13Z" style="fill:url(#Sfumatura_senza_nome_roccia03_354)"/><path style="fill:url(#Sfumatura_senza_nome_roccia03_464);opacity:.75" d="m381.2 330.97-5.38 96.36 5.38 40.75-10.19 48.38-57.82 74.68 4.82-68.66-34.93 71.07-3.83 56.65 103.24-130.13 15.61-70.76 13.69-16.21 20.64-68.4-51.23-33.73z"/><path style="fill:url(#Sfumatura_senza_nome_roccia03_467);opacity:.44" d="m323.31 510.08 21.2-27.34 2.41-55.41-25.13 67.65 1.52 15.1z"/><path d="m262.08 606.83-10.32-27.74-9.41 7.32-39.64-70.97 9.31-64.51 20.37 7.3 9.73 42.56 16.86 6.02 25.29-80.7s-1.2 30.11 13.25 30.11 19.68-30.11 19.68-30.11-.41 30.11 24.89 25.29c25.29-4.82 19.27-30.3 19.27-30.3s-3.61 29.1 10.84 27.89 21.68-30.11 21.68-30.11-.18 22.13 8.34 25.52c.18-.45 9.56-11.32 9.56-11.32l3.6-14.2 5.42-15.81 8-40.8-102.38-31.32-165.78 4.82-19.07 46.75 10.95 65.46 17.32 11.85 8.24 44.68 63.9 117.43 20.08-15.14Z" style="fill:url(#Sfumatura_senza_nome_roccia03_366);opacity:.29"/><path d="M444.58 386.61s20.37-99.67-138.62-106.08c-158.99-6.41-162.46 41.96-169.16 53.04s-12.72 59.16-4.29 65.58c8.43 6.41 28.91-19.24 28.91-19.24s-5.35 27.11 8.77 30.39c14.12 3.27 16.52-17.56 16.52-17.56s9.26 21.4 26.31 17.91c17.05-3.49 8.62-32.34 8.62-32.34s3.61 17.63 18.07 16.03c14.45-1.6 14.45-17.63 14.45-17.63s-4.97 30.18 13.17 34.33c18.14 4.14 25.37-29.52 25.37-29.52s.43 29.29 17.08 29.87c16.65.58 17.85-26.67 17.85-26.67s3.71 27.7 24.14 26.67c20.43-1.03 19.22-26.67 19.22-26.67s-2.9 24.55 9.99 26.7c12.89 2.15 23.73-21.89 23.73-21.89s-5.87 20.02 7.3 22.03c13.17 2.01 16.79-23.63 16.79-23.63s11.04 26.22 15.76-1.32Z" style="fill:url(#Sfumatura_senza_nome_roccia03_841)"/><path d="M292.45 297.57s8.03-12.09-3.1-29.77c0 0-8.86 14.11-7.22 25.68 0 0-2.5-24.85-14.27-31.32-.13.06-6.17 15.23 2.57 35.53-.04.45-7.45-18.38-21.93-20.25 0 0 1.38 21.93 11.12 28.6 9.49 6.5 6.32 3.1 6.32 3.1" style="fill:url(#Sfumatura_senza_nome_roccia03_881)"/><path d="M401.79 324.95s14.12-3.38 18.02-23.9c0 0-16.1 4.29-22.79 13.87 0 0 15.11-19.89 10.9-32.65-.14-.05-14.9 6.94-22.33 27.76-.33.3 7.07-18.53-2.25-29.77 0 0-13.93 16.99-11.35 28.51 2.51 11.23 2.51 6.57 2.51 6.57" style="fill:url(#Sfumatura_senza_nome_roccia03_881-2)"/><path d="M325.41 312.19s13.5-11.09 6.92-35.35c0 0-15.17 13.12-17.36 27.02 0 0 5.88-29.49-5.4-41.08-.17.02-12.47 15.36-9.56 41.8-.2.5-2.11-23.78-18.1-31.04 0 0-6.14 25.73 2.72 36.84 8.63 10.83 6.18 5.79 6.18 5.79" style="fill:url(#Sfumatura_senza_nome_roccia03_881-3)"/><path d="M186.37 306.6s6.72-12.22-5.35-28.25c0 0-7.35 14.22-4.86 25.16 0 0-4.38-23.59-16.17-28.84-.12.07-4.69 15.08 5.31 33.81 0 .43-8.61-17-22.61-17.63 0 0 3.08 20.88 12.93 26.49 9.61 5.46 6.3 2.46 6.3 2.46" style="fill:url(#Sfumatura_senza_nome_roccia03_881-4)"/><path style="fill:url(#Sfumatura_senza_nome_roccia03_354-2)" d="m181 126.75-12 42 6 40.61 9 23.39 20-21 3.29-47.65L191 115.75l-10 11z"/><path style="fill:url(#Sfumatura_senza_nome_roccia03_366-2);opacity:.29" d="m191 115.75-4 24-7 43 4 50-9-23.39-6-40.61 12-42 10-11z"/><path style="fill:url(#Sfumatura_senza_nome_roccia03_468);opacity:.75" d="m204 211.75-21.54-44.09 8.54-51.91 16.29 48.35-3.29 47.65z"/><path style="fill:url(#Sfumatura_senza_nome_roccia03_354-3)" d="m12 315.75-12 42 6 40.61 9 23.39 20-21 3.29-47.65L22 304.75l-10 11z"/><path style="fill:url(#Sfumatura_senza_nome_roccia03_366-3);opacity:.29" d="m22 304.75-4 24-7 43 4 50-9-23.39-6-40.61 12-42 10-11z"/><path style="fill:url(#Sfumatura_senza_nome_roccia03_468-2);opacity:.75" d="m35 400.75-21.54-44.09L22 304.75l16.29 48.35L35 400.75z"/><path style="fill:url(#Sfumatura_senza_nome_roccia03_354-4)" d="M328.61 81.65 342.08 37 328.61 0l-16.53 46 16.53 35.65z"/><path style="fill:url(#Sfumatura_senza_nome_roccia03_468-3);opacity:.75" d="m328.61 0-3.64 40.83L342.08 37 328.61 0z"/><path style="fill:url(#Sfumatura_senza_nome_roccia03_366-4);opacity:.29" d="m328.61 81.65-3.64-40.82L328.61 0l-16.53 46 16.53 35.65z"/></g></g></g></svg>