<svg xmlns="http://www.w3.org/2000/svg" xmlns:xlink="http://www.w3.org/1999/xlink" viewBox="0 0 246.3 355.29"><defs><linearGradient id="Sfumatura_senza_nome_roccia00_354" data-name="Sfumatura senza nome 354" x1="-1579.85" y1="61.65" x2="-1579.85" y2="295.92" gradientTransform="matrix(-1 0 0 1 -1475.11 0)" gradientUnits="userSpaceOnUse"><stop offset="0" stop-color="#917d64"/><stop offset=".16" stop-color="#99776a"/><stop offset=".79" stop-color="#b86383"/></linearGradient><linearGradient id="Sfumatura_senza_nome_roccia00_464" data-name="Sfumatura senza nome 464" x1="-1588.4" y1="178.33" x2="-1643.3" y2="210.03" gradientTransform="matrix(-1 0 0 1 -1475.11 0)" gradientUnits="userSpaceOnUse"><stop offset="0" stop-color="#9e537b"/><stop offset=".49" stop-color="#c28a95"/><stop offset=".79" stop-color="#d7a9a4"/></linearGradient><linearGradient id="Sfumatura_senza_nome_roccia00_467" data-name="Sfumatura senza nome 467" x1="-1606.1" y1="172.18" x2="-1620.8" y2="180.67" gradientTransform="matrix(-1 0 0 1 -1475.11 0)" gradientUnits="userSpaceOnUse"><stop offset="0" stop-color="#d7a9a4"/><stop offset=".79" stop-color="#d7a9a4"/></linearGradient><linearGradient id="Sfumatura_senza_nome_roccia00_366" data-name="Sfumatura senza nome 366" x1="-1579.03" y1="84.38" x2="-1579.03" y2="277.21" gradientTransform="matrix(-1 0 0 1 -1475.11 0)" gradientUnits="userSpaceOnUse"><stop offset="0"/><stop offset="1" stop-opacity="0"/></linearGradient><linearGradient id="Sfumatura_senza_nome_roccia00_841" data-name="Sfumatura senza nome 841" x1="-1580.16" y1="50.57" x2="-1580.16" y2="137.86" gradientTransform="matrix(-1 0 0 1 -1475.11 0)" gradientUnits="userSpaceOnUse"><stop offset=".12" stop-color="#ff93aa"/><stop offset=".38" stop-color="#ffa3a8"/><stop offset=".71" stop-color="#ffb1a6"/><stop offset="1" stop-color="#ffb6a6"/></linearGradient><linearGradient id="Sfumatura_senza_nome_roccia00_881" data-name="Sfumatura senza nome 881" x1="-1734.02" y1="459" x2="-1734.02" y2="430.33" gradientTransform="scale(-1 1) rotate(23.58 23.072 4174.605)" gradientUnits="userSpaceOnUse"><stop offset="0" stop-color="#ff93aa"/><stop offset=".01" stop-color="#fe95a9"/><stop offset=".21" stop-color="#f3b5a8"/><stop offset=".39" stop-color="#ebcda6"/><stop offset=".57" stop-color="#e6dba6"/><stop offset=".72" stop-color="#e5e0a6"/></linearGradient><linearGradient id="Sfumatura_senza_nome_roccia00_881-2" data-name="Sfumatura senza nome 881" x1="-1409.57" y1="-170.78" x2="-1409.57" y2="-199.46" gradientTransform="scale(-1 1) rotate(-19.38 -62.165 -3668.13)" xlink:href="#Sfumatura_senza_nome_roccia00_881"/><linearGradient id="Sfumatura_senza_nome_roccia00_881-3" data-name="Sfumatura senza nome 881" x1="-1717.4" y1="158.49" x2="-1717.4" y2="123.98" gradientTransform="scale(-1 1) rotate(6.56 -181.486 14051.185)" xlink:href="#Sfumatura_senza_nome_roccia00_881"/><linearGradient id="Sfumatura_senza_nome_roccia00_881-4" data-name="Sfumatura senza nome 881" x1="-1734.31" y1="536.2" x2="-1734.31" y2="508.66" gradientTransform="scale(-1 1) rotate(28.36 34.258 3674.509)" xlink:href="#Sfumatura_senza_nome_roccia00_881"/><linearGradient id="Sfumatura_senza_nome_roccia00_354-2" data-name="Sfumatura senza nome 354" x1="-1616.71" y1="355.29" x2="-1616.71" y2="277.76" xlink:href="#Sfumatura_senza_nome_roccia00_354"/><linearGradient id="Sfumatura_senza_nome_roccia00_366-2" data-name="Sfumatura senza nome 366" x1="-1611.31" y1="355.29" x2="-1611.31" y2="277.76" xlink:href="#Sfumatura_senza_nome_roccia00_366"/><linearGradient id="Sfumatura_senza_nome_roccia00_468" data-name="Sfumatura senza nome 468" x1="-1621.17" y1="277.76" x2="-1621.17" y2="341.37" gradientTransform="matrix(-1 0 0 1 -1475.11 0)" gradientUnits="userSpaceOnUse"><stop offset="0" stop-color="#9e537b"/><stop offset=".32" stop-color="#b87b8e"/><stop offset=".62" stop-color="#ce9c9e"/><stop offset=".79" stop-color="#d7a9a4"/></linearGradient><linearGradient id="Sfumatura_senza_nome_roccia00_354-3" data-name="Sfumatura senza nome 354" x1="-1708.72" y1="77.53" x2="-1708.72" y2="0" xlink:href="#Sfumatura_senza_nome_roccia00_354"/><linearGradient id="Sfumatura_senza_nome_roccia00_366-3" data-name="Sfumatura senza nome 366" x1="-1703.32" y1="77.53" x2="-1703.32" y2="0" xlink:href="#Sfumatura_senza_nome_roccia00_366"/><linearGradient id="Sfumatura_senza_nome_roccia00_468-2" data-name="Sfumatura senza nome 468" x1="-1713.18" y1="0" x2="-1713.18" y2="63.62" xlink:href="#Sfumatura_senza_nome_roccia00_468"/><linearGradient id="Sfumatura_senza_nome_roccia00_354-4" data-name="Sfumatura senza nome 354" x1="-1524.15" y1="125.08" x2="-1499.43" y2="141.13" xlink:href="#Sfumatura_senza_nome_roccia00_354"/><linearGradient id="Sfumatura_senza_nome_roccia00_468-3" data-name="Sfumatura senza nome 468" x1="-1518.72" y1="116.72" x2="-1504.66" y2="125.84" xlink:href="#Sfumatura_senza_nome_roccia00_468"/><linearGradient id="Sfumatura_senza_nome_roccia00_366-4" data-name="Sfumatura senza nome 366" x1="-1524.15" y1="125.08" x2="-1499.43" y2="141.13" xlink:href="#Sfumatura_senza_nome_roccia00_366"/><style>.cls-1{fill:url(#Sfumatura_senza_nome_roccia00_467);opacity:.44}.cls-2{fill:url(#Sfumatura_senza_nome_roccia00_366-3)}.cls-2,.cls-3,.cls-4,.cls-5{opacity:.29}.cls-6{fill:url(#Sfumatura_senza_nome_roccia00_468)}.cls-6,.cls-7,.cls-8,.cls-9{opacity:.75}.cls-10{fill:url(#Sfumatura_senza_nome_roccia00_881-2)}.cls-3{fill:url(#Sfumatura_senza_nome_roccia00_366)}.cls-7{fill:url(#Sfumatura_senza_nome_roccia00_464)}.cls-4{fill:url(#Sfumatura_senza_nome_roccia00_366-4)}.cls-5{fill:url(#Sfumatura_senza_nome_roccia00_366-2)}.cls-11{fill:url(#Sfumatura_senza_nome_roccia00_354-2)}.cls-12{fill:url(#Sfumatura_senza_nome_roccia00_354)}.cls-8{fill:url(#Sfumatura_senza_nome_roccia00_468-3)}.cls-13{fill:url(#Sfumatura_senza_nome_roccia00_354-4)}.cls-14{fill:url(#Sfumatura_senza_nome_roccia00_881)}.cls-15{fill:url(#Sfumatura_senza_nome_roccia00_841)}.cls-16{fill:url(#Sfumatura_senza_nome_roccia00_354-3)}.cls-17{fill:url(#Sfumatura_senza_nome_roccia00_881-4)}.cls-18{fill:url(#Sfumatura_senza_nome_roccia00_881-3)}.cls-9{fill:url(#Sfumatura_senza_nome_roccia00_468-2)}</style></defs><g id="Livello_2" data-name="Livello 2"><g id="_1" data-name="1"><g id="Livello_18" data-name="Livello 18"><path d="M99.97 295.92 88.6 267.18l-13.31 10.03-42.34-77.82-5.18-29.69-11.76-7.77-7.26-43.38s-7.33 1.81-7.86-6.6-1.2-32.14 31.46-41.03c32.66-8.89 108.48-16.95 149.59 3.84s24.38 42.02 17.98 46.57-12.1 30.72-12.1 30.72l-9.07 10.74-10.35 46.89-68.41 86.23Z" style="fill:url(#Sfumatura_senza_nome_roccia00_354)"/><path style="fill:url(#Sfumatura_senza_nome_roccia00_464);opacity:.75" d="m167.53 84.38-3.56 63.85 3.56 27-6.76 32.07-38.31 49.48 3.19-45.49-23.14 47.09-2.54 37.54 68.41-86.23 10.35-46.89 9.07-10.75 13.68-45.32-33.95-22.35z"/><path style="fill:url(#Sfumatura_senza_nome_roccia00_467);opacity:.44" d="m129.16 203.06 14.05-18.11 1.6-36.72-16.65 44.83 1 10z"/><path d="m88.59 267.18-6.84-18.38-6.23 4.85-26.27-47.03 6.17-42.75 13.5 4.84 6.45 28.2 11.17 3.99 16.76-53.48s-.8 19.95 8.78 19.95 13.04-19.95 13.04-19.95-.27 19.95 16.49 16.76 12.77-20.08 12.77-20.08-2.39 19.28 7.18 18.48 14.37-19.95 14.37-19.95-.12 14.67 5.53 16.91c.12-.3 6.34-7.5 6.34-7.5l2.39-9.41 3.59-10.48 5.3-27.04-67.84-20.75-109.86 3.19-12.64 30.98L16 161.91l11.48 7.85 5.46 29.61 42.34 77.82 13.31-10.03Z" style="fill:url(#Sfumatura_senza_nome_roccia00_366);opacity:.29"/><path d="M209.53 121.25s13.5-66.05-91.86-70.3C12.32 46.7 10.01 78.76 5.58 86.1c-4.44 7.34-8.43 39.21-2.84 43.46s19.16-12.75 19.16-12.75-3.54 17.97 5.81 20.14 10.95-11.64 10.95-11.64 6.13 14.18 17.43 11.87c11.3-2.31 5.71-21.43 5.71-21.43s2.39 11.68 11.97 10.62c9.58-1.06 9.58-11.68 9.58-11.68s-3.29 20 8.73 22.75 16.81-19.56 16.81-19.56.29 19.41 11.32 19.79c11.03.39 11.83-17.67 11.83-17.67s2.46 18.36 16 17.68S160.78 120 160.78 120s-1.92 16.27 6.62 17.7c8.54 1.42 15.73-14.51 15.73-14.51s-3.89 13.26 4.84 14.6c8.73 1.33 11.12-15.66 11.12-15.66s7.32 17.38 10.44-.87Z" style="fill:url(#Sfumatura_senza_nome_roccia00_841)"/><path d="M108.72 62.24s5.32-8.01-2.05-19.73c0 0-5.87 9.35-4.79 17.02 0 0-1.65-16.47-9.46-20.75-.09.04-4.09 10.1 1.7 23.54-.02.3-4.94-12.18-14.53-13.42 0 0 .91 14.53 7.37 18.95 6.29 4.31 4.19 2.05 4.19 2.05" style="fill:url(#Sfumatura_senza_nome_roccia00_881)"/><path d="M181.17 80.39s9.36-2.24 11.94-15.83c0 0-10.67 2.84-15.1 9.19 0 0 10.01-13.18 7.22-21.64-.09-.03-9.87 4.6-14.8 18.39-.22.2 4.68-12.28-1.49-19.72 0 0-9.23 11.26-7.52 18.89 1.67 7.44 1.66 4.36 1.66 4.36" style="fill:url(#Sfumatura_senza_nome_roccia00_881-2)"/><path d="M130.56 71.93s8.95-7.35 4.59-23.43c0 0-10.05 8.69-11.51 17.9 0 0 3.9-19.54-3.58-27.22-.11.01-8.26 10.18-6.33 27.7-.13.33-1.39-15.76-12-20.57 0 0-4.07 17.05 1.8 24.41 5.72 7.17 4.1 3.84 4.1 3.84" style="fill:url(#Sfumatura_senza_nome_roccia00_881-3)"/><path d="M38.42 68.23s4.45-8.1-3.54-18.72c0 0-4.87 9.42-3.22 16.68 0 0-2.9-15.63-10.72-19.11-.08.04-3.11 9.99 3.52 22.4 0 .29-5.7-11.26-14.98-11.69 0 0 2.04 13.84 8.57 17.55 6.37 3.62 4.17 1.63 4.17 1.63" style="fill:url(#Sfumatura_senza_nome_roccia00_881-4)"/><path style="fill:url(#Sfumatura_senza_nome_roccia00_354-2)" d="m136.86 285.04-7.95 27.84 3.98 26.91 5.96 15.5 13.25-13.92 2.19-31.57-10.8-32.04-6.63 7.28z"/><path style="fill:url(#Sfumatura_senza_nome_roccia00_366-2);opacity:.29" d="m143.49 277.76-2.65 15.9-4.64 28.49 2.65 33.14-5.96-15.5-3.98-26.91 7.95-27.84 6.63-7.28z"/><path style="fill:url(#Sfumatura_senza_nome_roccia00_468);opacity:.75" d="m152.1 341.37-14.27-29.21 5.66-34.4 10.8 32.04-2.19 31.57z"/><path style="fill:url(#Sfumatura_senza_nome_roccia00_354-3)" d="m228.87 7.29-7.95 27.83 3.98 26.91 5.96 15.5 13.25-13.91 2.19-31.58L235.5 0l-6.63 7.29z"/><path style="fill:url(#Sfumatura_senza_nome_roccia00_366-3);opacity:.29" d="m235.5 0-2.65 15.9-4.64 28.5 2.65 33.13-5.96-15.5-3.98-26.91 7.95-27.83L235.5 0z"/><path style="fill:url(#Sfumatura_senza_nome_roccia00_468-2);opacity:.75" d="M244.11 63.62 229.84 34.4 235.5 0l10.8 32.04-2.19 31.58z"/><path style="fill:url(#Sfumatura_senza_nome_roccia00_354-4)" d="m36.68 160.16 8.93-29.59-8.93-24.52-10.95 30.49 10.95 23.62z"/><path style="fill:url(#Sfumatura_senza_nome_roccia00_468-3);opacity:.75" d="m36.68 106.05-2.41 27.06 11.34-2.54-8.93-24.52z"/><path style="fill:url(#Sfumatura_senza_nome_roccia00_366-4);opacity:.29" d="m36.68 160.16-2.41-27.05 2.41-27.06-10.95 30.49 10.95 23.62z"/></g></g></g><script/></svg>