<svg xmlns="http://www.w3.org/2000/svg" xmlns:xlink="http://www.w3.org/1999/xlink" viewBox="0 0 771.64 956.32"><defs><linearGradient id="Sfumatura_senza_nome_354" data-name="Sfumatura senza nome 354" x1="-1721.48" y1="415.18" x2="-1721.48" y2="956.32" gradientTransform="matrix(-1 0 0 1 -1346.71 0)" gradientUnits="userSpaceOnUse"><stop offset="0" stop-color="#917d64"/><stop offset=".16" stop-color="#99776a"/><stop offset=".79" stop-color="#b86383"/></linearGradient><linearGradient id="Sfumatura_senza_nome_464" data-name="Sfumatura senza nome 464" x1="-1968.04" y1="544.13" x2="-1968.04" y2="879.85" gradientTransform="matrix(-1 0 0 1 -1346.71 0)" gradientUnits="userSpaceOnUse"><stop offset="0" stop-color="#9e537b"/><stop offset=".49" stop-color="#c28a95"/><stop offset=".79" stop-color="#d7a9a4"/></linearGradient><linearGradient id="Sfumatura_senza_nome_464-2" data-name="Sfumatura senza nome 464" x1="-1787.08" y1="741.23" x2="-1787.08" y2="956.32" xlink:href="#Sfumatura_senza_nome_464"/><linearGradient id="Sfumatura_senza_nome_464-3" data-name="Sfumatura senza nome 464" x1="-1542.92" y1="692.98" x2="-1542.92" y2="789.83" xlink:href="#Sfumatura_senza_nome_464"/><linearGradient id="Sfumatura_senza_nome_464-4" data-name="Sfumatura senza nome 464" x1="-1474.28" y1="671.8" x2="-1474.28" y2="713.5" xlink:href="#Sfumatura_senza_nome_464"/><linearGradient id="Sfumatura_senza_nome_366" data-name="Sfumatura senza nome 366" x1="-1716.36" y1="474.27" x2="-1716.36" y2="782.88" gradientTransform="matrix(-1 0 0 1 -1346.71 0)" gradientUnits="userSpaceOnUse"><stop offset="0"/><stop offset="1" stop-opacity="0"/></linearGradient><linearGradient id="Sfumatura_senza_nome_735" data-name="Sfumatura senza nome 735" x1="34.95" y1="671.95" x2="737.16" y2="522.69" gradientUnits="userSpaceOnUse"><stop offset="0" stop-color="#eb8892"/><stop offset=".08" stop-color="#ec8a92"/><stop offset="1" stop-color="#ffaa95"/></linearGradient><linearGradient id="Sfumatura_senza_nome_669" data-name="Sfumatura senza nome 669" x1="-1593.16" y1="13.3" x2="-1593.16" y2="629.14" gradientTransform="matrix(-1 0 0 1 -1346.71 0)" gradientUnits="userSpaceOnUse"><stop offset="0" stop-color="#ff93aa"/><stop offset=".1" stop-color="#ff96a9"/><stop offset="1" stop-color="#ffb6a6"/></linearGradient><linearGradient id="Sfumatura_senza_nome_669-2" data-name="Sfumatura senza nome 669" x1="-1541.2" x2="-1541.2" xlink:href="#Sfumatura_senza_nome_669"/><linearGradient id="Sfumatura_senza_nome_669-3" data-name="Sfumatura senza nome 669" x1="-1620.04" x2="-1620.04" xlink:href="#Sfumatura_senza_nome_669"/><linearGradient id="Sfumatura_senza_nome_669-4" data-name="Sfumatura senza nome 669" x1="-1718.94" x2="-1718.94" xlink:href="#Sfumatura_senza_nome_669"/><linearGradient id="Sfumatura_senza_nome_669-5" data-name="Sfumatura senza nome 669" x1="-1670.24" x2="-1670.24" xlink:href="#Sfumatura_senza_nome_669"/><linearGradient id="Sfumatura_senza_nome_669-6" data-name="Sfumatura senza nome 669" x1="-1447.1" x2="-1447.1" xlink:href="#Sfumatura_senza_nome_669"/><linearGradient id="Sfumatura_senza_nome_669-7" data-name="Sfumatura senza nome 669" x1="-1387.91" x2="-1387.91" xlink:href="#Sfumatura_senza_nome_669"/><linearGradient id="Sfumatura_senza_nome_669-8" data-name="Sfumatura senza nome 669" x1="-1512.03" x2="-1512.03" xlink:href="#Sfumatura_senza_nome_669"/><linearGradient id="Sfumatura_senza_nome_669-9" data-name="Sfumatura senza nome 669" x1="-1488.03" x2="-1488.03" xlink:href="#Sfumatura_senza_nome_669"/><linearGradient id="Sfumatura_senza_nome_669-10" data-name="Sfumatura senza nome 669" x1="-1565.39" x2="-1565.39" xlink:href="#Sfumatura_senza_nome_669"/><linearGradient id="Sfumatura_senza_nome_669-11" data-name="Sfumatura senza nome 669" x1="-1744.23" x2="-1744.23" xlink:href="#Sfumatura_senza_nome_669"/><linearGradient id="Sfumatura_senza_nome_669-12" data-name="Sfumatura senza nome 669" x1="-1861.55" x2="-1861.55" xlink:href="#Sfumatura_senza_nome_669"/><linearGradient id="Sfumatura_senza_nome_669-13" data-name="Sfumatura senza nome 669" x1="-1675.64" x2="-1675.64" xlink:href="#Sfumatura_senza_nome_669"/><linearGradient id="Sfumatura_senza_nome_669-14" data-name="Sfumatura senza nome 669" x1="-1971.24" x2="-1971.24" xlink:href="#Sfumatura_senza_nome_669"/><linearGradient id="Sfumatura_senza_nome_669-15" data-name="Sfumatura senza nome 669" x1="-1782.49" x2="-1782.49" xlink:href="#Sfumatura_senza_nome_669"/><linearGradient id="Sfumatura_senza_nome_669-16" data-name="Sfumatura senza nome 669" x1="-1843.54" x2="-1843.54" xlink:href="#Sfumatura_senza_nome_669"/><linearGradient id="Sfumatura_senza_nome_669-17" data-name="Sfumatura senza nome 669" x1="-1804.02" x2="-1804.02" xlink:href="#Sfumatura_senza_nome_669"/><linearGradient id="Sfumatura_senza_nome_669-18" data-name="Sfumatura senza nome 669" x1="-2046.86" x2="-2046.86" xlink:href="#Sfumatura_senza_nome_669"/><linearGradient id="Sfumatura_senza_nome_669-19" data-name="Sfumatura senza nome 669" x1="-1842.77" x2="-1842.77" xlink:href="#Sfumatura_senza_nome_669"/><linearGradient id="Sfumatura_senza_nome_669-20" data-name="Sfumatura senza nome 669" x1="-1883.03" y1="13.3" x2="-1883.03" y2="629.14" xlink:href="#Sfumatura_senza_nome_669"/><linearGradient id="Sfumatura_senza_nome_881" data-name="Sfumatura senza nome 881" x1="-1712.61" y1="-251.23" x2="-1712.61" y2="-309.2" gradientTransform="scale(-1 1) rotate(-17.02 57.808 -4191.135)" gradientUnits="userSpaceOnUse"><stop offset="0" stop-color="#ff93aa"/><stop offset=".01" stop-color="#fe95a9"/><stop offset=".21" stop-color="#f3b5a8"/><stop offset=".39" stop-color="#ebcda6"/><stop offset=".57" stop-color="#e6dba6"/><stop offset=".72" stop-color="#e5e0a6"/></linearGradient><linearGradient id="Sfumatura_senza_nome_881-2" data-name="Sfumatura senza nome 881" x1="-1652.95" y1="-260.06" x2="-1652.95" y2="-297.74" gradientTransform="scale(-1 1) rotate(-8.05 1271.958 -8762.288)" xlink:href="#Sfumatura_senza_nome_881"/><linearGradient id="Sfumatura_senza_nome_881-3" data-name="Sfumatura senza nome 881" x1="-1658.13" y1="-224.05" x2="-1658.13" y2="-271.25" gradientTransform="scale(-1 1) rotate(17.21 -2153.494 3928.584)" xlink:href="#Sfumatura_senza_nome_881"/><linearGradient id="Sfumatura_senza_nome_881-4" data-name="Sfumatura senza nome 881" x1="-1562.12" y1="-297.72" x2="-1562.12" y2="-337.92" gradientTransform="scale(-1 1) rotate(2.9 -7630.406 23960.89)" xlink:href="#Sfumatura_senza_nome_881"/><linearGradient id="Sfumatura_senza_nome_881-5" data-name="Sfumatura senza nome 881" x1="-1343.17" y1="-196.81" x2="-1343.17" y2="-231.11" gradientTransform="scale(-1 1) rotate(37.52 -1270.466 1738.852)" xlink:href="#Sfumatura_senza_nome_881"/><linearGradient id="Sfumatura_senza_nome_881-6" data-name="Sfumatura senza nome 881" x1="-1435.95" y1="-249.46" x2="-1435.95" y2="-296.65" gradientTransform="scale(-1 1) rotate(24.64 -1603.181 2685.406)" xlink:href="#Sfumatura_senza_nome_881"/><linearGradient id="Sfumatura_senza_nome_881-7" data-name="Sfumatura senza nome 881" x1="-1411.61" y1="-219.31" x2="-1411.61" y2="-278.13" gradientTransform="scale(-1 1) rotate(24.64 -1603.181 2685.406)" xlink:href="#Sfumatura_senza_nome_881"/><linearGradient id="Sfumatura_senza_nome_881-8" data-name="Sfumatura senza nome 881" x1="-1829.75" y1="-51.41" x2="-1829.75" y2="-96.54" gradientTransform="scale(-1 1) rotate(-40.88 -751.73 -1529.94)" xlink:href="#Sfumatura_senza_nome_881"/><linearGradient id="Sfumatura_senza_nome_881-9" data-name="Sfumatura senza nome 881" x1="-1765.99" y1="-48.71" x2="-1765.99" y2="-100.8" gradientTransform="scale(-1 1) rotate(-26.08 -505.247 -2502.092)" xlink:href="#Sfumatura_senza_nome_881"/><linearGradient id="Sfumatura_senza_nome_881-10" data-name="Sfumatura senza nome 881" x1="-1795.68" y1="-25" x2="-1795.68" y2="-70.13" gradientTransform="scale(-1 1) rotate(-29.18 -569.631 -2233.226)" xlink:href="#Sfumatura_senza_nome_881"/><linearGradient id="Sfumatura_senza_nome_366-2" data-name="Sfumatura senza nome 366" x1="431.48" y1="110.5" x2="431.48" y2="200.84" xlink:href="#Sfumatura_senza_nome_366"/><linearGradient id="Sfumatura_senza_nome_366-3" data-name="Sfumatura senza nome 366" x1="487.78" y1="145.65" x2="415.14" y2="145.65" xlink:href="#Sfumatura_senza_nome_366"/><linearGradient id="Sfumatura_senza_nome_366-4" data-name="Sfumatura senza nome 366" x1="-1570.18" y1="173.33" x2="-1682.69" y2="519.61" xlink:href="#Sfumatura_senza_nome_366"/><linearGradient id="Sfumatura_senza_nome_366-5" data-name="Sfumatura senza nome 366" x1="-1654" y1="541.84" x2="-1591.64" y2="188.19" xlink:href="#Sfumatura_senza_nome_366"/><linearGradient id="Sfumatura_senza_nome_366-6" data-name="Sfumatura senza nome 366" x1="-1746.7" y1="525.49" x2="-1684.35" y2="171.84" xlink:href="#Sfumatura_senza_nome_366"/><linearGradient id="Sfumatura_senza_nome_366-7" data-name="Sfumatura senza nome 366" x1="-1797.29" y1="332.87" x2="-1661.75" y2="42.2" gradientTransform="scale(-1 1) rotate(-9.32 81.62 -8028.196)" xlink:href="#Sfumatura_senza_nome_366"/><style>.cls-1{fill:url(#Sfumatura_senza_nome_669-13)}.cls-2{fill:url(#Sfumatura_senza_nome_669-8)}.cls-3{fill:url(#Sfumatura_senza_nome_669-17)}.cls-4{fill:url(#Sfumatura_senza_nome_735)}.cls-5{fill:url(#Sfumatura_senza_nome_366-2)}.cls-6{fill:url(#Sfumatura_senza_nome_669-15)}.cls-7{fill:url(#Sfumatura_senza_nome_669-10)}.cls-8{fill:url(#Sfumatura_senza_nome_881-6)}.cls-9{fill:url(#Sfumatura_senza_nome_669-16)}.cls-10{fill:url(#Sfumatura_senza_nome_881-5)}.cls-11{fill:url(#Sfumatura_senza_nome_881-2)}.cls-12{fill:url(#Sfumatura_senza_nome_669-6)}.cls-13{fill:url(#Sfumatura_senza_nome_366);opacity:.29}.cls-14{fill:url(#Sfumatura_senza_nome_366-3)}.cls-15{fill:url(#Sfumatura_senza_nome_464)}.cls-15,.cls-16,.cls-17,.cls-18{opacity:.75}.cls-19{fill:url(#Sfumatura_senza_nome_669-7)}.cls-20{fill:url(#Sfumatura_senza_nome_669-5)}.cls-21{fill:url(#Sfumatura_senza_nome_366-4)}.cls-16{fill:url(#Sfumatura_senza_nome_464-3)}.cls-22{fill:url(#Sfumatura_senza_nome_669)}.cls-23{fill:url(#Sfumatura_senza_nome_881-10)}.cls-24{fill:url(#Sfumatura_senza_nome_669-4)}.cls-25{fill:url(#Sfumatura_senza_nome_354)}.cls-26{fill:url(#Sfumatura_senza_nome_669-20)}.cls-27{fill:url(#Sfumatura_senza_nome_366-6)}.cls-28{fill:url(#Sfumatura_senza_nome_669-18)}.cls-29{fill:url(#Sfumatura_senza_nome_669-12)}.cls-30{fill:url(#Sfumatura_senza_nome_881)}.cls-31{fill:#fff;opacity:.2}.cls-32{fill:url(#Sfumatura_senza_nome_669-2)}.cls-33{fill:none}.cls-34{fill:url(#Sfumatura_senza_nome_881-4)}.cls-35{fill:url(#Sfumatura_senza_nome_669-3)}.cls-36{fill:url(#Sfumatura_senza_nome_669-11)}.cls-37{fill:url(#Sfumatura_senza_nome_881-7)}.cls-17{fill:url(#Sfumatura_senza_nome_464-4)}.cls-38{fill:url(#Sfumatura_senza_nome_366-5)}.cls-18{fill:url(#Sfumatura_senza_nome_464-2)}.cls-39{fill:url(#Sfumatura_senza_nome_669-9)}.cls-40{fill:url(#Sfumatura_senza_nome_669-14)}.cls-41{fill:url(#Sfumatura_senza_nome_366-7)}.cls-42{fill:url(#Sfumatura_senza_nome_881-9)}.cls-43{fill:url(#Sfumatura_senza_nome_881-8)}.cls-44{fill:url(#Sfumatura_senza_nome_881-3)}.cls-45{fill:url(#Sfumatura_senza_nome_669-19)}</style></defs><g id="Livello_2" data-name="Livello 2"><g id="_1" data-name="1"><g id="Livello_16" data-name="Livello 16"><path style="fill:url(#Sfumatura_senza_nome_354)" d="m25.49 496.03 15.67 103.06 35.6 20.62 7.44 45.64 33.48 48.15 19.79-28.03 13.79 61.83 49.46 42.53 40.44-96.85 13.39 66.17 43.89 23.73 55.99 138.87 65.28 34.57 67.68-115.09 32.5 38.62 156.64-186.87 47.53-144.93-85-132.87-592.45 28.01-21.12 52.84z"/><path style="fill:url(#Sfumatura_senza_nome_464);opacity:.75" d="m653.8 544.13-15.63 89.32 21.52 22.69-2.1 26.52-46.98 54.83V691.9l-3.4-16.25-27.83 24.7-19.31 78.21-40.18 101.29 156.64-186.87 46.24-141-68.97-7.85z"/><path style="fill:url(#Sfumatura_senza_nome_464-2);opacity:.75" d="m487.39 841.23-26.44-66.88-2.04-33.12-17.59 27.7 8.88 73.73-15.92 55.62-20.41-2.59-14.13-29.11-6.38 47.25 26.35 42.49 67.68-115.09z"/><path style="fill:url(#Sfumatura_senza_nome_464-3);opacity:.75" d="m241.16 692.98-26.65 15.58-31.27 45.27-31.98-6.53 49.46 42.53 40.44-96.85z"/><path style="fill:url(#Sfumatura_senza_nome_464-4);opacity:.75" d="m137.47 685.47-18.12-13.67-1.67 41.7 19.79-28.03z"/><path d="M695.02 636.59s-9.82 19.43-28.46 13.54c-18.65-5.89-32.39-35.33-32.39-35.33s-2.62 28.52-21.92 28c-19.3-.52-35.5-41.66-35.5-41.66s.49 22.49-21.1 23.47c-21.59.98-26.72-23.47-26.72-23.47s3.3 21.87-9.04 21.2c-12.34-.67-11.36-21.28-11.36-21.28s-6.13 29.58-29.07 25.09c-22.95-4.48-13.76-25.09-13.76-25.09l-59.24 38.28-28.91 84.03 4.37 44.06-51.03-44.66-35.35-2.94 2.9 63.06-43.89-23.73-13.39-66.17-36.42-50.18-16.27 35.23-5.81 22.16h-9.82l-21.59-44.05-9.11 50.27-4.67-20.94-18.13-13.67-1.67 41.7-33.48-48.15-7.44-45.64-35.61-20.61-17.5-105.02L695 474.29l20.62 69.86-9.67 59.09L695 636.62Z" style="fill:url(#Sfumatura_senza_nome_366);opacity:.29"/><path d="M23.66 518s-16.55 64.78-3.46 72.31c13.09 7.53 24.8-16.4 24.8-16.4s-3.54 14.87 3.88 16.4C56.3 591.84 66.82 572 66.82 572s-1.95 26.91 25.77 24.87c27.72-2.04 17.43-24.87 17.43-24.87s4.74 20.67 25.01 18.75c20.27-1.92 14.02-22.91 14.02-22.91s6.55 11.88 14.4 10.44c7.85-1.44 7.2-13.44 7.2-13.44s4.82 25.57 22.74 27.29c17.92 1.72 20.46-18.21 20.46-18.21s-6.08 24.5 5.68 25.71 10.61-21.35 10.61-21.35 9.59 28.02 23.87 25.79c14.28-2.23 2.29-30.15 2.29-30.15s11.17 16.87 21.58 16.4 15.54-12.03 15.54-12.03-8.08 16.14 1.89 21.35 18.98-15.79 18.98-15.79-15 29.73 0 32.86 15-34.86 15-34.86 1.81 19.58 14.91 17.79c13.09-1.79 2.65-19.51 2.65-19.51s15.44 25.72 34.44 17.72 4.52-23.66 4.52-23.66 5.48 11.66 20.48 10.66 17-10 17-10-12 25 7 27 12-28 12-28 6 15 16 15 13.99-10.56 13.99-10.56-9.01 18.5 0 20.53c9.01 2.03 13.01-18.97 13.01-18.97s-2.44 27.11 26.78 24.56c29.22-2.56 19.24-22.26 19.24-22.26s2.98 12.71 20.98 10.71 8.28-25.39 8.28-25.39 5.72 27.39 27.72 28.39 19-24 19-24-1 19 11 19 9.22-12.56 9.22-12.56 3.24 50.56 28.01 50.56c13.77 0 19.77-20 19.77-20s-10.77 76.17 25.12 77.58c35.88 1.42 41.88-139.58 41.88-139.58l-114.64-52.34L23.66 518Z" style="fill:url(#Sfumatura_senza_nome_735)"/><path d="M246.92 527.26c-.56-.83-.92-1.3-.92-1.3s.33.5.92 1.3Z" style="fill:url(#Sfumatura_senza_nome_669)"/><path d="M193.56 534.28c1.86-2.79 1.87-5.38 1.87-5.38s-1.07 2.15-1.87 5.38Z" style="fill:url(#Sfumatura_senza_nome_669-2)"/><path d="M274.09 525.41c-.65-2.4-1.52-4.14-1.52-4.14s.42 1.71 1.52 4.14Z" style="fill:url(#Sfumatura_senza_nome_669-3)"/><path d="M372.86 525.15c-.61-2.3-1.25-3.87-1.25-3.87s.37 1.67 1.25 3.87Z" style="fill:url(#Sfumatura_senza_nome_669-4)"/><path d="M323.24 523.47c.43-1.34.59-2.19.59-2.19s-.28.85-.59 2.19Z" style="fill:url(#Sfumatura_senza_nome_669-5)"/><path d="M100.36 531.49s-.04 1.1.06 2.87c.06-1.7-.06-2.87-.06-2.87Z" style="fill:url(#Sfumatura_senza_nome_669-6)"/><path d="M41.09 539.36c.08-.15.16-.3.23-.45-.11-.04-.2.13-.23.45Z" style="fill:url(#Sfumatura_senza_nome_669-7)"/><path d="M163.97 531.49s.97 1.39 2.72 3.09a19.155 19.155 0 0 0-2.72-3.09Z" style="fill:url(#Sfumatura_senza_nome_669-8)"/><path d="M143.46 541.06c-1.4-5.33-4.28-9.56-4.28-9.56s1.32 4.88 4.28 9.56Z" style="fill:url(#Sfumatura_senza_nome_669-9)"/><path d="M218.73 534.43c-.02-1.8-.09-2.93-.09-2.93s-.02 1.13.09 2.93Z" style="fill:url(#Sfumatura_senza_nome_669-10)"/><path d="M397.5 521.75c.04-.3.05-.48.05-.48s-.02.17-.05.48Z" style="fill:url(#Sfumatura_senza_nome_669-11)"/><path d="M515.26 520.99c-.48-1.17-.84-1.9-.84-1.9s.28.73.84 1.9Z" style="fill:url(#Sfumatura_senza_nome_669-12)"/><path d="M631.26 488.74c11.91 5.5 24.73 11.91 26.57-55.88 1.83-67.79-50.87-109.01-50.87-109.01s40.79 22.9 33.46-16.49c-7.33-39.39-98.93-99.85-78.12-90.68 20.81 9.17 21.32-4.59 11.25-21.08l-77.37-73.82c-.15-.14-.23-.22-.23-.22l.23.22c1.45 1.34 9.82 8.45 21.1 5.18 12.43-3.6 20.55-13.8-52.27-64.54C392.19 11.68 301.02 28.9 301.02 28.9 164.61 82.48-4.75 269.72.1 521.28c.97 47.28 30.94 37.6 40.99 18.08.04-.33.12-.5.23-.45-.08.15-.16.3-.23.45-.29 2.49 2.23 14.44 16.5 15.65 16.13 1.37 17.11-26.11 17.11-26.11s0 17.67 13.74 18.65c10.15.72 11.81-8.38 11.98-13.19-.1-1.77-.06-2.87-.06-2.87s.12 1.17.06 2.87c.45 8.24 3.8 31.14 27.25 27.02 16.74-2.94 17.78-12.74 15.79-20.33-2.96-4.68-4.28-9.56-4.28-9.56s2.89 4.24 4.28 9.56c3.46 5.46 9.15 10.65 17.61 7.48 10.49-3.94 8.25-10.22 5.61-13.96-1.75-1.7-2.72-3.09-2.72-3.09s1.41 1.23 2.72 3.09c3.28 3.18 9.33 7.46 16.99 5.76 5.39-1.19 8.3-3.7 9.88-6.06.8-3.23 1.87-5.38 1.87-5.38s0 2.59-1.87 5.38c-1.62 6.53-2.11 17.5 9.72 24.07 14.57 8.1 15.56-15.43 15.46-23.93-.11-1.81-.09-2.93-.09-2.93s.07 1.13.09 2.93c.5 8.38 3.65 31.5 23.38 25.42 20.79-6.4 8.45-27.17 4.8-32.59-.59-.8-.92-1.3-.92-1.3s.36.47.92 1.3c2.78 3.76 11.52 14.22 21.19 11.64 7.67-2.05 7.22-8.96 5.98-13.49-1.11-2.42-1.52-4.14-1.52-4.14s.87 1.74 1.52 4.14c2.7 5.92 9.53 16.09 24.66 16.16 16.99.07 22.82-12.84 24.49-18.1.31-1.34.59-2.19.59-2.19s-.16.85-.59 2.19c-1.21 5.26-2.92 18.2 9.6 18.2 15.7 0 9.82-21.59 9.82-21.59s7.5 25.23 22.4 23.41c10.77-1.31 9.4-12.33 7.81-18.34-.88-2.2-1.25-3.87-1.25-3.87s.64 1.57 1.25 3.87c1.8 4.52 5.73 11.29 12.98 10.63 9.59-.87 11.38-11.63 11.66-14.02.02-.3.05-.48.05-.48s-.01.18-.05.48c-.25 3.07-.62 20.07 21.71 18.59 19.25-1.27 18.26-13.41 16.95-18.59-.53-1.37-.75-2.32-.75-2.32s.39.9.75 2.32c1.41 3.63 5.03 10.19 12.72 9.74 5.56-.33 7.61-4.76 8.3-8.9-.15-4.23.14-7.21.14-7.21s.48 3.48-.14 7.21c.38 10.55 3.53 28.86 21 28.05 21.84-1.01 19.5-30.03 18.74-36.26-.11-.76-.16-1.19-.16-1.19s.07.44.16 1.19c.77 5.3 4.51 26.39 14.7 24.51 9.29-1.71 5.55-13.31 3.65-17.92-.56-1.17-.84-1.9-.84-1.9s.36.73.84 1.9c2.76 5.71 12.56 22.15 32.3 17.92 23.78-5.09 19.04-24.68 19.04-24.68s21.79 29.46 43.69 30.9c13.36.88 15.43-4.38 15.01-8.62-1.07-3.1-1.55-5.01-1.55-5.01s1.28 2.3 1.55 5.01c.24.71.52 1.48.83 2.3-1.52-24.09-1.99-53.35 5.13-50.07Z" style="fill:url(#Sfumatura_senza_nome_669-13)"/><path d="M625.31 536.5c-.27-2.71-1.55-5.01-1.55-5.01s.48 1.91 1.55 5.01Z" style="fill:url(#Sfumatura_senza_nome_669-14)"/><path d="M436.16 521.75c-.36-1.42-.75-2.32-.75-2.32s.22.95.75 2.32Z" style="fill:url(#Sfumatura_senza_nome_669-15)"/><path d="M496.91 514.39c-.09-.75-.16-1.19-.16-1.19s.05.43.16 1.19Z" style="fill:url(#Sfumatura_senza_nome_669-16)"/><path d="M457.32 515.39s-.29 2.98-.14 7.21c.62-3.73.14-7.21.14-7.21Z" style="fill:url(#Sfumatura_senza_nome_669-17)"/><path d="M700.36 568.08c-.15-1.73-.42-2.86-.42-2.86s.14 1.05.42 2.86Z" style="fill:url(#Sfumatura_senza_nome_669-18)"/><path d="M700.36 568.08c-.15-1.73-.42-2.86-.42-2.86s.14 1.05.42 2.86Z" style="fill:#fff;opacity:.2"/><path d="m496.18 121.78-.23-.22s.08.08.23.22Z" style="fill:url(#Sfumatura_senza_nome_669-19)"/><path d="m496.18 121.78-.23-.22s.08.08.23.22Z" style="fill:#fff;opacity:.2"/><path d="M670.93 585.17c28.74 6.83 30.05-10.09 29.44-17.08-.29-1.81-.42-2.86-.42-2.86s.27 1.13.42 2.86c1.91 12.06 10.63 58.38 31.96 60.94 24.54 2.94 33.37-49.08 35.33-61.84 3.53-22.93 24.72-284.09-83.83-369.76C575.28 111.76 518.61 21.27 381.55 13.51c-24.03-1.36-51.54 4-80.54 15.39 0 0 91.17-17.22 163.99 33.52 72.82 50.74 64.7 60.94 52.27 64.54-11.28 3.27-19.64-3.83-21.1-5.18l77.37 73.82c10.08 16.49 9.57 30.25-11.25 21.08-20.81-9.17 70.79 51.29 78.12 90.68 7.33 39.39-33.46 16.49-33.46 16.49s52.7 41.22 50.87 109.01c-1.83 67.79-14.66 61.38-26.57 55.88-7.12-3.28-6.65 25.98-5.13 50.07 4.89 13.14 17.97 39.99 44.79 46.36Z" style="fill:url(#Sfumatura_senza_nome_669-20)"/><path d="M670.93 585.17c28.74 6.83 30.05-10.09 29.44-17.08-.29-1.81-.42-2.86-.42-2.86s.27 1.13.42 2.86c1.91 12.06 10.63 58.38 31.96 60.94 24.54 2.94 33.37-49.08 35.33-61.84 3.53-22.93 24.72-284.09-83.83-369.76C575.28 111.76 518.61 21.27 381.55 13.51c-24.03-1.36-51.54 4-80.54 15.39 0 0 91.17-17.22 163.99 33.52 72.82 50.74 64.7 60.94 52.27 64.54-11.28 3.27-19.64-3.83-21.1-5.18l77.37 73.82c10.08 16.49 9.57 30.25-11.25 21.08-20.81-9.17 70.79 51.29 78.12 90.68 7.33 39.39-33.46 16.49-33.46 16.49s52.7 41.22 50.87 109.01c-1.83 67.79-14.66 61.38-26.57 55.88-7.12-3.28-6.65 25.98-5.13 50.07 4.89 13.14 17.97 39.99 44.79 46.36Z" style="fill:#fff;opacity:.2"/><path d="M610.3 545.13c21.9 1.45 13.46-13.63 13.46-13.63s11.29 45.15 47.16 53.67c35.87 8.52 29.01-19.94 29.01-19.94s7.84 60.85 32.38 63.8c24.54 2.94 33.37-49.08 35.33-61.84 3.53-22.93 24.72-284.09-83.83-369.76S518.61 21.27 381.55 13.51C244.5 5.75-5.79 216.24.1 521.28c.98 47.65 31.41 37.45 41.22 17.63-.98-.37.13 14.74 16.26 16.11 16.13 1.37 17.11-26.11 17.11-26.11s0 17.67 13.74 18.65c13.74.98 11.92-16.06 11.92-16.06s-1.19 34.9 27.31 29.9 11.51-29.9 11.51-29.9 6.19 22.93 21.89 17.04c15.7-5.89 2.89-17.04 2.89-17.04s7.97 11.45 19.71 8.85c11.75-2.6 11.75-11.44 11.75-11.44s-9.82 19.63 7.85 29.45 15.36-26.86 15.36-26.86-.5 35.74 23.47 28.36c23.98-7.39 3.88-33.89 3.88-33.89s10.38 16.07 22.11 12.95c11.73-3.13 4.46-17.63 4.46-17.63s4.85 20.2 26.18 20.3c21.33.09 25.08-20.3 25.08-20.3s-6.69 20.39 9.01 20.39 9.82-21.59 9.82-21.59 7.5 25.23 22.4 23.41c14.9-1.82 6.56-22.21 6.56-22.21s3.44 15.48 14.23 14.5 11.71-14.5 11.71-14.5-2.87 20.69 21.67 19.07c24.54-1.62 16.2-20.91 16.2-20.91s2.89 12.69 13.47 12.06 8.44-16.11 8.44-16.11-3.61 36.39 20.86 35.26c24.47-1.13 18.58-37.45 18.58-37.45s3.21 27.85 14.86 25.7c11.64-2.15 2.81-19.82 2.81-19.82s9.36 24.91 33.14 19.82 19.04-24.68 19.04-24.68" style="fill:none"/><path d="M499.13 98.28s18.71-5.3 22.8-32.98c0 0-21.31 6.63-29.74 19.83 0 0 19.13-27.46 12.78-44.3-.19-.06-19.56 10.12-28.36 38.38-.42.42 8.44-25.19-4.65-39.72 0 0-17.71 23.51-13.62 38.78 3.99 14.89 3.73 8.66 3.73 8.66" style="fill:url(#Sfumatura_senza_nome_881)"/><path d="M445 66.64s11.48-5.3 11.3-23.48c0 0-13.01 6.41-17.08 15.74 0 0 9.5-19.57 3.72-29.74-.12-.02-11.53 8.48-14.32 27.51-.23.31 2.87-17.03-7.01-25.03 0 0-8.99 16.89-4.82 26.28 4.07 9.15 3.27 5.18 3.27 5.18" style="fill:url(#Sfumatura_senza_nome_881-2)"/><path d="M465.12 103.25s10.17-12.14.25-32.64c0 0-11.32 14.22-10.94 26.97 0 0 .3-27.24-11.68-35.68-.15.05-8.53 15.77-1.51 38.83-.09.48-5.85-20.83-21.32-24.61 0 0-1.16 23.94 8.59 32.35s6.47 4.12 6.47 4.12" style="fill:url(#Sfumatura_senza_nome_881-3)"/><path d="M354.78 38.84s10.95-7.88 7.07-26.89c0 0-12.33 9.35-14.7 19.95 0 0 5.98-22.42-2.13-31.9-.13 0-10.36 11.22-9.42 31.72-.18.38-.45-18.42-12.41-24.8 0 0-6 19.51.28 28.51s4.47 4.77 4.47 4.77" style="fill:url(#Sfumatura_senza_nome_881-4)"/><path d="M157.09 152.36s3.87-10.84-8.07-22.31c0 0-4.12 12.55-.65 21.14 0 0-6.67-18.64-16.96-21.37-.09.07-1.84 12.9 8.76 26.84.06.35-9.24-12.72-20.74-11.39 0 0 5.25 16.61 14.01 19.88 8.54 3.19 5.45 1.18 5.45 1.18" style="fill:url(#Sfumatura_senza_nome_881-5)"/><path d="M240.18 80.46s8.51-13.35-3.98-32.4c0 0-9.38 15.57-7.36 28.16 0 0-3.23-27.05-16.2-33.87-.14.07-6.42 16.74 3.52 38.7-.03.49-8.5-19.89-24.32-21.65 0 0 1.95 23.89 12.7 30.97 10.48 6.9 6.95 3.25 6.95 3.25" style="fill:url(#Sfumatura_senza_nome_881-6)"/><path d="M233.73 116.3s10.61-16.64-4.96-40.38c0 0-11.69 19.4-9.17 35.09 0 0-4.02-33.72-20.19-42.21-.18.08-8 20.86 4.39 48.22-.04.61-10.59-24.79-30.31-26.97 0 0 2.43 29.77 15.83 38.59 13.06 8.6 8.67 4.05 8.67 4.05" style="fill:url(#Sfumatura_senza_nome_881-7)"/><path d="M610.14 301.8s14.99 2.12 26.62-16.3c0 0-17.26-2-27.42 4.75 0 0 22.27-13.52 23.06-27.52-.11-.1-17.11 1.04-32.28 18.39-.44.17 13.94-15.28 9.2-29.74 0 0-20.02 11.16-21.92 23.32-1.85 11.85-.08 7.34-.08 7.34" style="fill:url(#Sfumatura_senza_nome_881-8)"/><path d="M573.78 261.78s17.35-2.05 24.9-26.03c0 0-19.85 2.86-29.2 13.38 0 0 20.86-21.66 17.62-37.5-.16-.08-18.79 6.21-30.6 30.04-.44.32 11.06-21.16 1.5-35.9 0 0-19.05 18.35-17.58 32.49 1.43 13.77 2.08 8.21 2.08 8.21" style="fill:url(#Sfumatura_senza_nome_881-9)"/><path d="M575.96 298.33s15.11-.96 22.76-21.36c0 0-17.31 1.55-25.89 10.21 0 0 19.06-17.76 17-31.62-.13-.07-16.54 4.49-27.88 24.56-.39.25 10.56-17.79 2.98-30.99 0 0-17.34 14.99-16.73 27.28.59 11.98 1.41 7.2 1.41 7.2" style="fill:url(#Sfumatura_senza_nome_881-10)"/><path d="M375.36 142.13c-.04.84-.06 1.68-.06 2.53 0 31.03 25.15 56.18 56.18 56.18s56.18-25.15 56.18-56.18c0-12.85-4.33-24.69-11.59-34.16l-100.71 31.63Z" style="fill:url(#Sfumatura_senza_nome_366-2)"/><path d="M415.14 129.63s5.23 14.66 3.19 27.43 2.45 21.28 12.7 23.02c10.26 1.75 29.26.75 41.26-8.25s14.37-16.62 14.37-16.62 6.19-18.06-10.59-44.72c.45.68-60.93 19.14-60.93 19.14Z" style="fill:url(#Sfumatura_senza_nome_366-3)"/><path d="m424.48 441.8 11.66-176.58s-15.51 22.94-29.6 24.16c-14.09 1.22-25.63-34.66-25.63-65.41 0 0 0 34.68-24.35 34.68s-25.49-75.36-25.49-75.36-1.81 44.62-31.72 44.62-28.49-52.46-28.49-52.46-3.27 52.46-33.1 52.46c-29.83 0-31.64-48.94-31.64-48.94s-.05 101.38-30.52 101.38-31.69-46.27-31.69-46.27l7.19 279.2s15.24-15.86 24.5-5.87c.58.77-7.4-22.04 11.82-25.88s32.03 20.5 32.03 20.5 3.84-38.44 34.6-35.88c30.75 2.56 40.11 32.03 40.11 32.03s3.45-16.66 17.55-15.38c14.09 1.28 12.81 19.22 12.81 19.22s7.96-17.99 22.56-18.61c14.6-.61 19.72 20.14 19.72 20.14s4.01-19.4 18.02-20.72 17.1 15.34 17.1 15.34 3.32-16.64 22.54-18.57v-37.81Z" style="fill:url(#Sfumatura_senza_nome_366-4)"/><path d="M207.37 440.19c-12.58-35.73 30.91-43.97 18.68-95.83-12.22-51.86 5.81-41.58 26.14-94.47 6.39-16.62 14.72-29.79 24.27-40.31-6.11-15.13-5.59-34.13-5.59-34.13s-3.27 52.46-33.1 52.46-31.64-48.94-31.64-48.94-.05 101.38-30.52 101.38-31.69-45.36-31.69-45.36l7.19 278.28s15.24-15.86 24.5-5.87c.58.77-7.4-22.04 11.82-25.88 10.01-2 18.27 3.64 23.9 9.51-2.34-13.83 2.95-31.23-3.96-50.84Z" style="fill:none"/><path d="M254.06 466.14c30.75 2.56 40.11 32.03 40.11 32.03s3.45-16.66 17.55-15.38c2.01.18 3.69.71 5.12 1.47-7.51-21.01-17.51-51.75-15.94-62.53 2.47-16.97 33.76-11.44 12.58-48.12-21.18-36.69-13.68-50.73 7.55-74.55 13.75-15.43 12.08-34.06 20.3-54.3-9.65-21.77-10.25-61.48-10.25-61.48s-1.81 44.62-31.72 44.62c-11.91 0-18.85-8.32-22.89-18.33-9.55 10.52-17.89 23.69-24.27 40.31-20.33 52.89-38.36 42.61-26.14 94.47 12.22 51.86-31.27 60.1-18.68 95.83 6.91 19.61 1.62 37.01 3.96 50.84 5.18 5.4 8.13 11 8.13 11s3.84-38.44 34.6-35.88Z" style="fill:url(#Sfumatura_senza_nome_366-5)"/><path d="M313.48 373.62c21.18 36.69-10.12 31.16-12.58 48.12-1.57 10.77 8.43 41.52 15.94 62.53 8.63 4.56 7.69 17.75 7.69 17.75s7.96-17.99 22.56-18.61c14.6-.61 19.72 20.14 19.72 20.14s4.01-19.4 18.02-20.72c14.01-1.32 17.1 15.34 17.1 15.34s3.32-16.64 22.54-18.57v-37.81l11.66-176.58s-15.51 22.94-29.6 24.16c-14.09 1.22-25.63-34.66-25.63-65.41 0 0 0 34.68-24.35 34.68-6.67 0-11.6-5.67-15.24-13.88-8.22 20.24-6.55 38.87-20.3 54.3-21.23 23.82-28.73 37.87-7.55 74.55Z" style="fill:url(#Sfumatura_senza_nome_366-6)"/><path d="M313.48 373.62c21.18 36.69-10.12 31.16-12.58 48.12-1.57 10.77 8.43 41.52 15.94 62.53 8.63 4.56 7.69 17.75 7.69 17.75s7.96-17.99 22.56-18.61c14.6-.61 19.72 20.14 19.72 20.14s4.01-19.4 18.02-20.72c14.01-1.32 17.1 15.34 17.1 15.34s3.32-16.64 22.54-18.57v-37.81l11.66-176.58s-15.51 22.94-29.6 24.16c-14.09 1.22-25.63-34.66-25.63-65.41 0 0 0 34.68-24.35 34.68-6.67 0-11.6-5.67-15.24-13.88-8.22 20.24-6.55 38.87-20.3 54.3-21.23 23.82-28.73 37.87-7.55 74.55Z" style="fill:url(#Sfumatura_senza_nome_366-7)"/></g></g></g></svg>